<svg id="Capa_1" enable-background="new 0 0 512 512" height="512" viewBox="0 0 512 512" width="512" xmlns="http://www.w3.org/2000/svg"><g><g><path d="m326 172.831s0-12.286 0-24.492c0-38.66-31.34-70-70-70s-70 31.34-70 70v24.492l-45 7.685s0-11.758 0-32.178c0-63.513 51.487-115 115-115s115 51.487 115 115v32.178z" fill="#e9edf1"/><path d="m141 180.52v19.997l45-7.685s0-9.417 0-20.001c-17.471 2.151-32.514 4.903-45 7.689z" fill="#a2abb8"/><path d="m326 172.831v20.001l45 7.685s0-6.575 0-19.997c-12.486-2.786-27.529-5.538-45-7.689z" fill="#a2abb8"/><path d="m414.5 440.777v2.722c0 6.445-4.109 12.175-10.221 14.219-20.662 6.909-72.017 20.943-148.279 20.943s-127.617-14.034-148.279-20.943c-6.112-2.044-10.221-7.774-10.221-14.219v-219.675c0-6.445 4.109-12.175 10.221-14.219 2.729-.912 5.992-1.949 9.778-3.061z" fill="#ffd064"/><path d="m404.279 209.605c-20.662-6.909-72.017-20.943-148.279-20.943-66.203 0-113.622 10.574-138.5 17.884v216.953c0 6.445 4.109 12.175 10.221 14.219 20.662 6.909 72.017 20.943 148.279 20.943 66.203 0 113.622-10.574 138.5-17.884v-216.953c0-6.445-4.109-12.175-10.221-14.219z" fill="#fff0af"/><circle cx="246" cy="353.662" fill="#ffd064" r="115"/><circle cx="256" cy="333.662" fill="#9cd169" r="115"/><path d="m241.388 412.85c-3.979 0-7.793-1.581-10.606-4.394l-52.06-52.06c-5.858-5.858-5.858-15.355 0-21.213s15.355-5.857 21.213 0l41.453 41.453 93.315-93.315c5.857-5.858 15.355-5.858 21.213 0s5.858 15.355 0 21.213l-103.921 103.923c-2.813 2.813-6.629 4.393-10.607 4.393z" fill="#7dc03a"/><path d="m251.388 392.85c-3.979 0-7.793-1.581-10.606-4.394l-52.06-52.06c-5.858-5.858-5.858-15.355 0-21.213s15.355-5.857 21.213 0l41.453 41.453 93.315-93.315c5.857-5.858 15.355-5.858 21.213 0s5.858 15.355 0 21.213l-103.921 103.923c-2.813 2.813-6.629 4.393-10.607 4.393z" fill="#ebf7e0"/><path d="m15.661 200.322c-4.842 2.488-8.161 7.521-8.161 13.339 0 8.284 6.716 15 15 15 5.818 0 10.851-3.319 13.339-8.161-2.052 1.055-21.233-18.125-20.178-20.178z" fill="#4980ac"/><path d="m22.5 198.662c-2.466 0-4.787.606-6.839 1.661-1.055 2.052-1.661 4.373-1.661 6.839 0 8.284 6.716 15 15 15 2.466 0 4.787-.606 6.839-1.661 1.055-2.052 1.661-4.373 1.661-6.839 0-8.285-6.716-15-15-15z" fill="#81a9c8"/><path d="m15.661 320.322c-4.842 2.488-8.161 7.521-8.161 13.339 0 8.284 6.716 15 15 15 5.818 0 10.851-3.319 13.339-8.161-2.052 1.055-21.233-18.125-20.178-20.178z" fill="#4980ac"/><path d="m22.5 318.662c-2.466 0-4.787.606-6.839 1.661-1.055 2.052-1.661 4.373-1.661 6.839 0 8.284 6.716 15 15 15 2.466 0 4.787-.606 6.839-1.661 1.055-2.052 1.661-4.373 1.661-6.839 0-8.285-6.716-15-15-15z" fill="#81a9c8"/><path d="m15.661 440.322c-4.842 2.488-8.161 7.521-8.161 13.339 0 8.284 6.716 15 15 15 5.818 0 10.851-3.319 13.339-8.161-2.052 1.055-21.233-18.125-20.178-20.178z" fill="#4980ac"/><path d="m22.5 438.662c-2.466 0-4.787.606-6.839 1.661-1.055 2.052-1.661 4.373-1.661 6.839 0 8.284 6.716 15 15 15 2.466 0 4.787-.606 6.839-1.661 1.055-2.052 1.661-4.373 1.661-6.839 0-8.285-6.716-15-15-15z" fill="#81a9c8"/><path d="m482.661 200.322c-4.842 2.488-8.161 7.521-8.161 13.339 0 8.284 6.716 15 15 15 5.818 0 10.851-3.319 13.339-8.161-2.052 1.055-21.233-18.125-20.178-20.178z" fill="#4980ac"/><path d="m489.5 198.662c-2.466 0-4.787.606-6.839 1.661-1.055 2.052-1.661 4.373-1.661 6.839 0 8.284 6.716 15 15 15 2.466 0 4.787-.606 6.839-1.661 1.055-2.052 1.661-4.373 1.661-6.839 0-8.285-6.716-15-15-15z" fill="#81a9c8"/><path d="m482.661 320.322c-4.842 2.488-8.161 7.521-8.161 13.339 0 8.284 6.716 15 15 15 5.818 0 10.851-3.319 13.339-8.161-2.052 1.055-21.233-18.125-20.178-20.178z" fill="#4980ac"/><path d="m489.5 318.662c-2.466 0-4.787.606-6.839 1.661-1.055 2.052-1.661 4.373-1.661 6.839 0 8.284 6.716 15 15 15 2.466 0 4.787-.606 6.839-1.661 1.055-2.052 1.661-4.373 1.661-6.839 0-8.285-6.716-15-15-15z" fill="#81a9c8"/><path d="m482.661 440.322c-4.842 2.488-8.161 7.521-8.161 13.339 0 8.284 6.716 15 15 15 5.818 0 10.851-3.319 13.339-8.161-2.052 1.055-21.233-18.125-20.178-20.178z" fill="#4980ac"/><path d="m489.5 438.662c-2.466 0-4.787.606-6.839 1.661-1.055 2.052-1.661 4.373-1.661 6.839 0 8.284 6.716 15 15 15 2.466 0 4.787-.606 6.839-1.661 1.055-2.052 1.661-4.373 1.661-6.839 0-8.285-6.716-15-15-15z" fill="#81a9c8"/></g><g><path d="m256 486.162c-78.403 0-131.478-14.917-150.657-21.331-9.177-3.069-15.343-11.642-15.343-21.332v-219.675c0-9.69 6.166-18.263 15.343-21.332 6.076-2.032 15.552-4.917 28.157-7.91v-46.244c0-67.547 54.953-122.5 122.5-122.5 18.078 0 35.489 3.848 51.75 11.438 3.753 1.752 5.376 6.215 3.625 9.968-1.752 3.753-6.214 5.375-9.968 3.625-14.26-6.656-29.538-10.03-45.407-10.03-59.276 0-107.5 48.224-107.5 107.5v42.966c8.923-1.788 18.947-3.518 30-5.026v-37.94c0-42.733 34.766-77.5 77.5-77.5s77.5 34.767 77.5 77.5v37.94c11.053 1.508 21.077 3.238 30 5.026v-42.966c0-31.09-13.456-60.644-36.918-81.085-3.123-2.721-3.449-7.458-.728-10.582s7.459-3.449 10.582-.728c26.732 23.291 42.064 56.967 42.064 92.395v46.244c12.605 2.994 22.082 5.878 28.157 7.91 9.177 3.069 15.343 11.642 15.343 21.332v79.837c0 4.142-3.358 7.5-7.5 7.5s-7.5-3.358-7.5-7.5v-79.837c0-3.23-2.049-6.086-5.1-7.106-18.483-6.181-69.701-20.556-145.9-20.556s-127.417 14.375-145.9 20.556c-3.05 1.02-5.1 3.876-5.1 7.106v219.675c0 3.23 2.049 6.086 5.1 7.106 18.483 6.181 69.701 20.556 145.9 20.556s127.417-14.375 145.9-20.556c3.05-1.02 5.1-3.876 5.1-7.106v-109.838c0-4.142 3.358-7.5 7.5-7.5s7.5 3.358 7.5 7.5v109.837c0 9.69-6.166 18.263-15.343 21.332-19.179 6.414-72.254 21.331-150.657 21.331zm0-400.324c-34.462 0-62.5 28.038-62.5 62.5v36.11c18.488-1.992 39.392-3.287 62.5-3.287s44.012 1.295 62.5 3.287v-36.11c0-34.462-28.038-62.5-62.5-62.5zm233.5 390.324c-9.778 0-18.12-6.27-21.215-15h-21.075c-4.142 0-7.5-3.358-7.5-7.5s3.358-7.5 7.5-7.5h21.075c3.095-8.73 11.437-15 21.215-15 12.407 0 22.5 10.093 22.5 22.5s-10.093 22.5-22.5 22.5zm0-30c-4.136 0-7.5 3.364-7.5 7.5s3.364 7.5 7.5 7.5 7.5-3.364 7.5-7.5-3.364-7.5-7.5-7.5zm-467 30c-12.407 0-22.5-10.093-22.5-22.5s10.093-22.5 22.5-22.5c9.778 0 18.12 6.27 21.215 15h21.075c4.142 0 7.5 3.358 7.5 7.5s-3.358 7.5-7.5 7.5h-21.075c-3.095 8.73-11.437 15-21.215 15zm0-30c-4.136 0-7.5 3.364-7.5 7.5s3.364 7.5 7.5 7.5 7.5-3.364 7.5-7.5-3.364-7.5-7.5-7.5zm467-90c-9.778 0-18.12-6.27-21.215-15h-21.075c-4.142 0-7.5-3.358-7.5-7.5s3.358-7.5 7.5-7.5h21.075c3.095-8.73 11.437-15 21.215-15 12.407 0 22.5 10.093 22.5 22.5s-10.093 22.5-22.5 22.5zm-118.854-65.75c5.215 13.797 7.854 28.321 7.854 43.25 0 67.547-54.953 122.5-122.5 122.5s-122.5-54.953-122.5-122.5 54.953-122.5 122.5-122.5c27.239 0 53.027 8.751 74.575 25.308 3.284 2.524 3.901 7.232 1.377 10.517-2.523 3.285-7.232 3.902-10.517 1.378-18.903-14.525-41.53-22.202-65.435-22.202-59.276 0-107.5 48.224-107.5 107.5s48.224 107.5 107.5 107.5 107.5-48.224 107.5-107.5c0-10.776-1.565-21.309-4.664-31.44l-91.538 91.538c-8.773 8.773-23.047 8.773-31.82 0l-52.059-52.06c-8.773-8.773-8.772-23.046-.001-31.819.001-.001 0 0 .001-.001 8.772-8.772 23.046-8.772 31.819.001l36.15 36.15 88.012-88.012c8.773-8.773 23.045-8.772 31.82.001 8.773 8.771 8.772 23.046 0 31.819zm-176.62 30.074c-2.924 2.924-2.924 7.682 0 10.607l52.059 52.06c2.924 2.924 7.682 2.924 10.607 0l103.922-103.922c2.924-2.924 2.924-7.682 0-10.606s-7.682-2.924-10.605-.001c0 0 0 0-.001.001l-93.316 93.315c-2.929 2.929-7.678 2.929-10.607 0l-41.453-41.453c-2.924-2.925-7.682-2.925-10.606-.001zm295.474 5.676c-4.136 0-7.5 3.364-7.5 7.5s3.364 7.5 7.5 7.5 7.5-3.364 7.5-7.5-3.364-7.5-7.5-7.5zm-467 30c-12.407 0-22.5-10.093-22.5-22.5s10.093-22.5 22.5-22.5c9.778 0 18.12 6.27 21.215 15h21.075c4.142 0 7.5 3.358 7.5 7.5s-3.358 7.5-7.5 7.5h-21.075c-3.095 8.73-11.437 15-21.215 15zm0-30c-4.136 0-7.5 3.364-7.5 7.5s3.364 7.5 7.5 7.5 7.5-3.364 7.5-7.5-3.364-7.5-7.5-7.5zm467-90c-9.778 0-18.12-6.27-21.215-15h-21.075c-4.142 0-7.5-3.358-7.5-7.5s3.358-7.5 7.5-7.5h21.075c3.095-8.73 11.437-15 21.215-15 12.407 0 22.5 10.093 22.5 22.5s-10.093 22.5-22.5 22.5zm0-30c-4.136 0-7.5 3.364-7.5 7.5s3.364 7.5 7.5 7.5 7.5-3.364 7.5-7.5-3.364-7.5-7.5-7.5zm-467 30c-12.407 0-22.5-10.093-22.5-22.5s10.093-22.5 22.5-22.5c9.778 0 18.12 6.27 21.215 15h21.075c4.142 0 7.5 3.358 7.5 7.5s-3.358 7.5-7.5 7.5h-21.075c-3.095 8.73-11.437 15-21.215 15zm0-30c-4.136 0-7.5 3.364-7.5 7.5s3.364 7.5 7.5 7.5 7.5-3.364 7.5-7.5-3.364-7.5-7.5-7.5z"/></g></g></svg>