<svg id="Capa_1" enable-background="new 0 0 512 512" height="512" viewBox="0 0 512 512" width="512" xmlns="http://www.w3.org/2000/svg"><g><g><path d="m186 197.831s0-62.286 0-74.492c0-38.66 31.34-70 70-70s70 31.34 70 70v51.831c0 12.348 45 12.348 45 0s0-16.654 0-51.831c0-63.513-51.487-115-115-115s-115 51.487-115 115v82.178z" fill="#e9edf1"/><path d="m141 205.52v19.997l45-7.685s0-9.417 0-20.001c-17.471 2.151-32.514 4.903-45 7.689z" fill="#a2abb8"/><path d="m414.5 465.777v2.722c0 6.445-4.109 12.175-10.221 14.219-20.662 6.909-72.017 20.943-148.279 20.943s-127.617-14.034-148.279-20.943c-6.112-2.044-10.221-7.774-10.221-14.219v-219.675c0-6.445 4.109-12.175 10.221-14.219 2.729-.912 5.992-1.949 9.778-3.061z" fill="#ffd064"/><path d="m404.279 234.605c-20.662-6.909-72.017-20.943-148.279-20.943-66.203 0-113.622 10.574-138.5 17.884v216.953c0 6.445 4.109 12.175 10.221 14.219 20.662 6.909 72.017 20.943 148.279 20.943 66.203 0 113.622-10.574 138.5-17.884v-216.953c0-6.445-4.109-12.175-10.221-14.219z" fill="#fff0af"/><circle cx="246" cy="378.662" fill="#ffd064" r="115"/><circle cx="256" cy="358.662" fill="#de5791" r="115"/><path d="m306.104 417.552c-1.308-1.308-18.892-18.892-38.891-38.891 19.999-19.999 37.583-37.583 38.891-38.891 5.858-5.858 5.858-15.355 0-21.213s-15.355-5.858-21.213 0c-1.308 1.308-18.892 18.892-38.891 38.891-19.999-19.999-37.583-37.583-38.891-38.891-5.858-5.858-15.355-5.858-21.213 0s-5.858 15.355 0 21.213c1.308 1.308 18.892 18.892 38.891 38.891-19.999 19.999-37.583 37.583-38.891 38.891-5.858 5.858-5.858 15.355 0 21.213s15.355 5.858 21.213 0c1.308-1.308 18.892-18.892 38.891-38.891l38.891 38.891c5.858 5.858 15.355 5.858 21.213 0 5.858-5.857 5.858-15.355 0-21.213z" fill="#da0b62"/><path d="m316.104 397.552c-1.308-1.308-18.892-18.892-38.891-38.891 19.999-19.999 37.583-37.583 38.891-38.891 5.858-5.858 5.858-15.355 0-21.213s-15.355-5.858-21.213 0c-1.308 1.308-18.892 18.892-38.891 38.891-19.999-19.999-37.583-37.583-38.891-38.891-5.858-5.858-15.355-5.858-21.213 0s-5.858 15.355 0 21.213l38.891 38.891c-19.999 19.999-37.583 37.583-38.891 38.891-5.858 5.858-5.858 15.355 0 21.213s15.355 5.858 21.213 0c1.308-1.308 18.892-18.892 38.891-38.891 19.999 19.999 37.583 37.583 38.891 38.891 5.858 5.858 15.355 5.858 21.213 0 5.858-5.857 5.858-15.355 0-21.213z" fill="#f9c8dc"/><path d="m15.661 205.322c-4.842 2.488-8.161 7.521-8.161 13.339 0 8.284 6.716 15 15 15 5.818 0 10.851-3.319 13.339-8.161-2.052 1.055-21.233-18.125-20.178-20.178z" fill="#4980ac"/><path d="m22.5 203.662c-2.466 0-4.787.606-6.839 1.661-1.055 2.052-1.661 4.373-1.661 6.839 0 8.284 6.716 15 15 15 2.466 0 4.787-.606 6.839-1.661 1.055-2.052 1.661-4.373 1.661-6.839 0-8.285-6.716-15-15-15z" fill="#81a9c8"/><path d="m15.661 325.322c-4.842 2.488-8.161 7.521-8.161 13.339 0 8.284 6.716 15 15 15 5.818 0 10.851-3.319 13.339-8.161-2.052 1.055-21.233-18.125-20.178-20.178z" fill="#4980ac"/><path d="m22.5 323.662c-2.466 0-4.787.606-6.839 1.661-1.055 2.052-1.661 4.373-1.661 6.839 0 8.284 6.716 15 15 15 2.466 0 4.787-.606 6.839-1.661 1.055-2.052 1.661-4.373 1.661-6.839 0-8.285-6.716-15-15-15z" fill="#81a9c8"/><path d="m15.661 445.322c-4.842 2.488-8.161 7.521-8.161 13.339 0 8.284 6.716 15 15 15 5.818 0 10.851-3.319 13.339-8.161-2.052 1.055-21.233-18.125-20.178-20.178z" fill="#4980ac"/><path d="m22.5 443.662c-2.466 0-4.787.606-6.839 1.661-1.055 2.052-1.661 4.373-1.661 6.839 0 8.284 6.716 15 15 15 2.466 0 4.787-.606 6.839-1.661 1.055-2.052 1.661-4.373 1.661-6.839 0-8.285-6.716-15-15-15z" fill="#81a9c8"/><path d="m482.661 205.322c-4.842 2.488-8.161 7.521-8.161 13.339 0 8.284 6.716 15 15 15 5.818 0 10.851-3.319 13.339-8.161-2.052 1.055-21.233-18.125-20.178-20.178z" fill="#4980ac"/><path d="m489.5 203.662c-2.466 0-4.787.606-6.839 1.661-1.055 2.052-1.661 4.373-1.661 6.839 0 8.284 6.716 15 15 15 2.466 0 4.787-.606 6.839-1.661 1.055-2.052 1.661-4.373 1.661-6.839 0-8.285-6.716-15-15-15z" fill="#81a9c8"/><path d="m482.661 325.322c-4.842 2.488-8.161 7.521-8.161 13.339 0 8.284 6.716 15 15 15 5.818 0 10.851-3.319 13.339-8.161-2.052 1.055-21.233-18.125-20.178-20.178z" fill="#4980ac"/><path d="m489.5 323.662c-2.466 0-4.787.606-6.839 1.661-1.055 2.052-1.661 4.373-1.661 6.839 0 8.284 6.716 15 15 15 2.466 0 4.787-.606 6.839-1.661 1.055-2.052 1.661-4.373 1.661-6.839 0-8.285-6.716-15-15-15z" fill="#81a9c8"/><path d="m482.661 445.322c-4.842 2.488-8.161 7.521-8.161 13.339 0 8.284 6.716 15 15 15 5.818 0 10.851-3.319 13.339-8.161-2.052 1.055-21.233-18.125-20.178-20.178z" fill="#4980ac"/><path d="m489.5 443.662c-2.466 0-4.787.606-6.839 1.661-1.055 2.052-1.661 4.373-1.661 6.839 0 8.284 6.716 15 15 15 2.466 0 4.787-.606 6.839-1.661 1.055-2.052 1.661-4.373 1.661-6.839 0-8.285-6.716-15-15-15z" fill="#81a9c8"/></g><g><path d="m256 511.162c-78.403 0-131.478-14.917-150.657-21.331-9.177-3.069-15.343-11.642-15.343-21.332v-32.337h-17.71v22.5c0 4.142-3.358 7.5-7.5 7.5h-21.075c-3.095 8.73-11.437 15-21.215 15-12.407 0-22.5-10.093-22.5-22.5s10.093-22.5 22.5-22.5c9.778 0 18.12 6.27 21.215 15h13.575v-22.5c0-4.142 3.358-7.5 7.5-7.5h25.21v-75h-46.285c-3.095 8.73-11.437 15-21.215 15-12.407 0-22.5-10.093-22.5-22.5s10.093-22.5 22.5-22.5c9.778 0 18.12 6.27 21.215 15h46.285v-55h-25.21c-4.142 0-7.5-3.358-7.5-7.5v-42.5h-13.575c-3.095 8.73-11.437 15-21.215 15-12.407 0-22.5-10.093-22.5-22.5s10.093-22.5 22.5-22.5c9.778 0 18.12 6.27 21.215 15h21.075c4.142 0 7.5 3.358 7.5 7.5v42.5h17.71v-12.337c0-9.69 6.166-18.263 15.343-21.332 6.076-2.032 15.552-4.917 28.157-7.91v-96.244c0-67.547 54.953-122.5 122.5-122.5 18.078 0 35.489 3.848 51.751 11.438 3.753 1.752 5.376 6.215 3.625 9.968-1.752 3.754-6.215 5.376-9.968 3.625-14.261-6.656-29.538-10.03-45.407-10.03-59.276 0-107.5 48.224-107.5 107.5v92.966c8.923-1.788 18.947-3.518 30-5.026v-87.94c0-42.733 34.766-77.5 77.5-77.5s77.5 34.767 77.5 77.5v50.762c1.742 1.149 7.057 2.83 15 2.83s13.258-1.681 15-2.83v-50.762c0-31.09-13.456-60.644-36.918-81.085-3.123-2.721-3.449-7.458-.728-10.582s7.459-3.449 10.582-.728c26.732 23.291 42.064 56.967 42.064 92.395v51.831c0 10.339-11.495 16.761-30 16.761-6.751 0-13.16-.984-18.046-2.772-10.401-3.806-11.954-10.398-11.954-13.989v-51.831c0-34.462-28.038-62.5-62.5-62.5s-62.5 28.038-62.5 62.5v86.11c18.488-1.992 39.392-3.287 62.5-3.287 78.403 0 131.478 14.917 150.657 21.331 9.177 3.069 15.343 11.642 15.343 21.332v12.337h17.71v-42.5c0-4.142 3.358-7.5 7.5-7.5h21.075c3.095-8.73 11.437-15 21.215-15 12.407 0 22.5 10.093 22.5 22.5s-10.093 22.5-22.5 22.5c-9.778 0-18.12-6.27-21.215-15h-13.576v42.5c0 4.142-3.358 7.5-7.5 7.5h-25.21v32.5c0 4.142-3.358 7.5-7.5 7.5s-7.5-3.358-7.5-7.5v-59.837c0-3.23-2.049-6.086-5.1-7.106-18.483-6.181-69.701-20.556-145.9-20.556s-127.417 14.375-145.9 20.556c-3.05 1.02-5.1 3.876-5.1 7.106v219.675c0 3.23 2.049 6.086 5.1 7.106 18.483 6.181 69.701 20.556 145.9 20.556s127.417-14.375 145.9-20.556c3.05-1.02 5.1-3.876 5.1-7.106v-129.839c0-4.142 3.358-7.5 7.5-7.5h53.785c3.095-8.73 11.437-15 21.215-15 12.407 0 22.5 10.093 22.5 22.5s-10.093 22.5-22.5 22.5c-9.778 0-18.12-6.27-21.215-15h-46.285v75h25.21c4.142 0 7.5 3.358 7.5 7.5v22.5h13.575c3.095-8.73 11.437-15 21.215-15 12.407 0 22.5 10.093 22.5 22.5s-10.093 22.5-22.5 22.5c-9.778 0-18.12-6.27-21.215-15h-21.075c-4.142 0-7.5-3.358-7.5-7.5v-22.5h-17.71v32.337c0 9.69-6.166 18.263-15.343 21.332-19.179 6.414-72.254 21.331-150.657 21.331zm233.5-60c-4.136 0-7.5 3.364-7.5 7.5s3.364 7.5 7.5 7.5 7.5-3.364 7.5-7.5-3.364-7.5-7.5-7.5zm-467 0c-4.136 0-7.5 3.364-7.5 7.5s3.364 7.5 7.5 7.5 7.5-3.364 7.5-7.5-3.364-7.5-7.5-7.5zm467-120c-4.136 0-7.5 3.364-7.5 7.5s3.364 7.5 7.5 7.5 7.5-3.364 7.5-7.5-3.364-7.5-7.5-7.5zm-467 0c-4.136 0-7.5 3.364-7.5 7.5s3.364 7.5 7.5 7.5 7.5-3.364 7.5-7.5-3.364-7.5-7.5-7.5zm467-120c-4.136 0-7.5 3.364-7.5 7.5s3.364 7.5 7.5 7.5 7.5-3.364 7.5-7.5-3.364-7.5-7.5-7.5zm-467 0c-4.136 0-7.5 3.364-7.5 7.5s3.364 7.5 7.5 7.5 7.5-3.364 7.5-7.5-3.364-7.5-7.5-7.5zm233.5 270c-67.547 0-122.5-54.953-122.5-122.5s54.953-122.5 122.5-122.5c16.16 0 31.867 3.099 46.684 9.212 3.829 1.58 5.652 5.964 4.073 9.793s-5.963 5.654-9.793 4.073c-12.994-5.36-26.776-8.078-40.963-8.078-59.276 0-107.5 48.224-107.5 107.5s48.224 107.5 107.5 107.5 107.5-48.224 107.5-107.5c0-33.661-15.327-64.747-42.051-85.288-3.284-2.524-3.9-7.233-1.376-10.517s7.233-3.9 10.517-1.375c30.448 23.402 47.91 58.823 47.91 97.18-.001 67.546-54.954 122.5-122.501 122.5zm-65.408-156.089c-8.787-8.787-8.786-23.033.001-31.82 8.787-8.786 23.033-8.786 31.82.001 8.786 8.787 33.587 33.588 33.587 33.588s24.802-24.802 33.589-33.588 23.033-8.786 31.82.001c8.786 8.787 8.786 23.033-.001 31.82-8.787 8.786-33.588 33.587-33.588 33.587s24.339 24.339 33.588 33.589c8.787 8.787 8.786 23.033-.001 31.82-8.787 8.786-23.033 8.786-31.82-.001-8.786-8.788-33.587-33.589-33.587-33.589s-24.802 24.802-33.589 33.588-23.033 8.786-31.82-.001c-8.786-8.787-8.786-23.033.001-31.82 8.787-8.786 33.588-33.587 33.588-33.587s-25.015-25.015-33.588-33.588zm49.498 28.285c2.929 2.929 2.929 7.678 0 10.607s-35.962 35.962-38.891 38.891-2.929 7.678 0 10.607 7.678 2.929 10.607 0 35.21-35.209 38.892-38.891c2.929-2.929 7.678-2.929 10.607 0l38.891 38.891c2.929 2.929 7.678 2.929 10.607 0s2.929-7.678 0-10.607-34.669-34.67-38.891-38.892c-2.929-2.929-2.929-7.678 0-10.607s35.962-35.962 38.891-38.891 2.929-7.678 0-10.607-7.678-2.929-10.607 0c0 0-35.347 35.346-38.892 38.891-2.929 2.929-7.678 2.929-10.607 0s-35.962-35.962-38.891-38.891-7.678-2.929-10.607 0-2.929 7.678 0 10.607c2.633 2.634 35.962 35.963 38.891 38.892z"/></g></g></svg>