<svg id="Capa_1" enable-background="new 0 0 511.997 511.997" height="512" viewBox="0 0 511.997 511.997" width="512" xmlns="http://www.w3.org/2000/svg"><g><g><path d="m280.424 258.464-38.472 38.472 85.309 85.309-8.914 34.125c-.673 2.576.07 5.316 1.953 7.199l8.063 8.063c1.883 1.883 4.623 2.626 7.199 1.953l34.125-8.914 14.142 14.142-8.048 35.274c-.574 2.515.185 5.148 2.009 6.972l7.854 7.854c1.93 1.93 4.757 2.659 7.38 1.903l33.23-9.577 21.063 21.063c1.904 1.904 4.683 2.641 7.28 1.932l27.191-7.43z" fill="#ffd064"/><path d="m489.453 494.711c2.559-.699 4.559-2.699 5.258-5.258l9.524-34.854c.71-2.597-.027-5.376-1.932-7.28l-205.367-205.368-35 35 219.854 219.854z" fill="#fff0af"/><path d="m176.681 256.438c-2.339 25.255 6.153 51.324 25.489 70.66 34.498 34.498 90.43 34.498 124.928 0 9.863-9.862 16.893-21.48 21.116-33.844z" fill="#ffd064"/><path d="m327.098 202.17c-34.498-34.498-90.43-34.498-124.928 0-15.162 15.162-23.654 34.465-25.489 54.269 79.439 112.832 149.058 59.285 171.533 36.816 10.55-30.887 3.52-66.45-21.116-91.085z" fill="#fff0af"/><path d="m21.656 105.702c25.704-57.855 18.835 89.779 86.224 89.779 90.236 0 251.473-71.02 253.596-24.306.024.523.036 1.037.036 1.542 0 45.623-143.173 188.796-188.796 188.796s-165.216-97.551-165.216-188.797c0-23.857 5.056-46.533 14.156-67.014" fill="#9cd169"/><path d="m17.5 142.716c0-12.724 1.442-25.112 4.165-37.01 25.704-57.855 83.662-98.206 151.051-98.206 90.244 0 186.639 116.969 188.746 163.675-33.338 59.374-140.433 160.337-178.746 160.337-45.623 0-165.216-97.55-165.216-188.796zm97.62-62.716c-19.396 0-35.12 15.724-35.12 35.12s15.724 35.12 35.12 35.12 35.12-15.724 35.12-35.12-15.724-35.12-35.12-35.12z" fill="#bce097"/></g><g><path d="m452.637 511.997c-3.929 0-7.774-1.544-10.621-4.39l-17.935-17.935-28.979 8.352c-5.241 1.512-10.9.054-14.761-3.806l-7.854-7.855c-3.671-3.669-5.173-8.883-4.017-13.944l7.124-31.232-8.171-8.172-29.967 7.827c-5.135 1.342-10.647-.156-14.397-3.906l-8.063-8.063c-3.75-3.75-5.247-9.267-3.907-14.397l7.828-29.966-27.801-27.8c-23.523 6.75-49.351 4.466-71.826-7.615-18.175 12.19-34.622 19.917-46.576 19.917-25.304 0-68.397-25.755-105.034-62.392-53.209-53.211-67.68-111.247-67.68-133.905 0-95.235 77.48-172.715 172.715-172.715 30.886 0 65.07 13.018 98.857 37.647 3.347 2.44 4.083 7.131 1.643 10.479s-7.134 4.082-10.479 1.643c-31.203-22.746-62.332-34.769-90.021-34.769-86.964 0-157.715 70.751-157.715 157.715 0 37.919 23.078 82.87 63.317 123.326 37.45 37.653 76.588 57.97 94.398 57.97 24.881 0 94.859-56.66 143.993-116.589 2.626-3.204 7.353-3.67 10.555-1.044 3.203 2.626 3.671 7.352 1.045 10.555-24.643 30.058-61.51 66.912-95.083 92.216 29.922 12.613 65.155 6.062 88.569-17.354 8.787-8.787 15.198-19.159 19.129-30.262.114-.492.279-.974.494-1.438 7.292-21.906 5.021-46.489-7.597-67.309-1.537-2.537-1.436-5.742.261-8.175 17.342-24.883 19.931-36.929 19.931-41.895 0-21.255-27.358-68.251-71.558-107.113-3.111-2.735-3.415-7.474-.681-10.584 2.735-3.111 7.474-3.416 10.585-.68 43.699 38.422 76.653 89.313 76.653 118.378 0 11.213-6.702 26.855-19.934 46.542 12.176 22.579 14.522 48.393 7.71 71.94l150.818 150.818c3.799 3.799 5.279 9.378 3.862 14.561l-9.523 34.854c-1.392 5.095-5.421 9.125-10.516 10.516l-34.854 9.523c-1.298.353-2.623.526-3.937.526zm-26.382-38.257c1.962 0 3.878.771 5.305 2.197l21.062 21.063 14.73-4.025-77.563-77.564c-2.929-2.929-2.929-7.678 0-10.606 2.93-2.93 7.678-2.928 10.607 0l83.617 83.618 3.463-.946 9.524-34.855-146.109-146.109c-4.578 9.39-10.757 18.156-18.489 25.889-.737.737-1.483 1.459-2.24 2.168l49.021 49.021c2.929 2.929 2.929 7.678 0 10.606-2.931 2.93-7.679 2.928-10.607 0l-50.209-50.209c-3.82 2.583-7.801 4.871-11.9 6.855l26.099 26.099c1.883 1.883 2.626 4.623 1.953 7.199l-8.914 34.125 8.063 8.063 34.125-8.914c2.575-.675 5.315.07 7.199 1.953l14.142 14.142c1.823 1.824 2.582 4.457 2.009 6.971l-8.047 35.274 7.854 7.855 33.23-9.578c.683-.195 1.383-.292 2.075-.292zm-311.135-316c-23.501 0-42.62-19.119-42.62-42.62s19.119-42.62 42.62-42.62 42.62 19.119 42.62 42.62-19.119 42.62-42.62 42.62zm0-70.24c-15.23 0-27.62 12.39-27.62 27.62s12.39 27.62 27.62 27.62 27.62-12.39 27.62-27.62-12.39-27.62-27.62-27.62z"/></g></g></svg>