<svg id="Capa_1" enable-background="new 0 0 512.001 512.001" height="512" viewBox="0 0 512.001 512.001" width="512" xmlns="http://www.w3.org/2000/svg"><g><g><path d="m344.666 420.161c-4.842 2.488-8.161 7.521-8.161 13.339 0 8.284 6.716 15 15 15 5.818 0 10.851-3.319 13.339-8.161-2.052 1.055-21.232-18.125-20.178-20.178z" fill="#4980ac"/><path d="m351.506 418.5c-2.466 0-4.787.606-6.839 1.661-1.055 2.052-1.661 4.373-1.661 6.839 0 8.284 6.716 15 15 15 2.466 0 4.787-.606 6.839-1.661 1.055-2.052 1.661-4.373 1.661-6.839 0-8.284-6.716-15-15-15z" fill="#81a9c8"/><path d="m400.666 476.161c-4.842 2.488-8.161 7.521-8.161 13.339 0 8.284 6.716 15 15 15 5.818 0 10.851-3.319 13.339-8.161-2.052 1.055-21.232-18.125-20.178-20.178z" fill="#4980ac"/><path d="m407.506 474.5c-2.466 0-4.787.606-6.839 1.661-1.055 2.052-1.661 4.373-1.661 6.839 0 8.284 6.716 15 15 15 2.466 0 4.787-.606 6.839-1.661 1.055-2.052 1.661-4.373 1.661-6.839 0-8.284-6.716-15-15-15z" fill="#81a9c8"/><path d="m482.666 476.161c-4.842 2.488-8.161 7.521-8.161 13.339 0 8.284 6.716 15 15 15 5.818 0 10.851-3.319 13.339-8.161-2.052 1.055-21.232-18.125-20.178-20.178z" fill="#4980ac"/><path d="m489.506 474.5c-2.466 0-4.787.606-6.839 1.661-1.055 2.052-1.661 4.373-1.661 6.839 0 8.284 6.716 15 15 15 2.466 0 4.787-.606 6.839-1.661 1.055-2.052 1.661-4.373 1.661-6.839 0-8.284-6.716-15-15-15z" fill="#81a9c8"/><path d="m21.662 105.702c25.704-57.855 18.835 89.779 86.224 89.779 90.236 0 251.473-71.02 253.596-24.306.024.523.036 1.037.036 1.542 0 45.623-143.173 188.796-188.796 188.796-13.63 0-33.861-8.706-55.534-23.35 3.258-18.362-15.725-11.263-23.627-17.911-7.454-6.272-14.862-13.109-22.023-20.404 4.268-20.136-13.673-14.599-19.979-22.449-25.392-31.611-44.053-68.639-44.053-104.683 0-23.857 5.056-46.533 14.156-67.014" fill="#81a9c8"/><path d="m93.561 320.25 148.312-148.312c19.385-4.676 37.967-9.096 54.467-12.209l-179.15 178.43c-7.771-5.25-15.726-11.26-23.629-17.909zm-22.017-20.41 114.998-114.998c-17.733 3.801-35.147 7.017-51.315 8.887l-83.662 83.662c6.306 7.852 13.025 15.365 19.979 22.449z" fill="#ffd064"/><path d="m17.506 142.716c0-12.724 1.442-25.112 4.165-37.01 25.704-57.855 83.661-98.206 151.05-98.206 36.046 0 73.074 18.662 104.682 44.054 7.849 6.306 3.362 20.086 22.447 19.979 7.295 7.161 14.132 14.569 20.403 22.024 6.799 8.083.352 20.563 18.267 24.159 13.886 20.67 22.339 39.988 22.946 53.459-33.338 59.374-140.433 160.337-178.746 160.337-11.002 0-26.304-5.672-43.194-15.561 1.559-22.708-16.413-10.352-24.866-16.8-7.682-5.86-15.419-12.377-22.993-19.434 5.017-16.796-14.242-13.895-20.955-21.473-29.931-33.792-53.206-75.273-53.206-115.528zm97.62-62.716c-19.396 0-35.12 15.724-35.12 35.12s15.724 35.12 35.12 35.12 35.12-15.724 35.12-35.12-15.724-35.12-35.12-35.12z" fill="#bcd1e1"/><path d="m299.849 71.536-208.175 208.175c-7.196-6.705-14.242-13.893-20.956-21.472l206.679-206.678c7.849 6.306 15.369 13.021 22.452 19.975zm38.666 46.186c-5.333-7.939-11.467-16.075-18.267-24.159l-205.583 205.583c8.447 6.443 16.822 12.086 24.844 16.784z" fill="#fff0af"/></g><g><path d="m505.415 505.41c-8.773 8.773-23.047 8.773-31.82 0-6.914-6.914-8.379-17.246-4.395-25.608l-43.955-43.955-6.444 34.2c6.694 3.903 11.203 11.161 11.204 19.453-.001 12.407-10.095 22.501-22.5 22.501-.001 0-.001 0-.001 0-12.406-.001-22.499-10.094-22.5-22.5 0-11.237 8.279-20.576 19.059-22.238l8.339-44.259-43.156-43.156-6.444 34.2c6.694 3.903 11.203 11.161 11.204 19.453-.001 12.406-10.095 22.501-22.5 22.501h-.001c-12.406-.001-22.499-10.094-22.5-22.5 0-11.236 8.279-20.576 19.059-22.238l8.339-44.259-22.197-22.197-47.865 11.97c-2.556.639-5.26-.11-7.123-1.973l-29.108-29.108c-29.089 24.28-58.651 43.316-77.388 43.317-15.007 0-36.22-8.749-59.732-24.636-1.858-1.255-3.057-3.277-3.268-5.509-.21-2.225.583-4.428 2.163-6.008l.015-.015 78.22-77.774c2.937-2.92 7.686-2.907 10.607.03 2.915 2.932 2.907 7.669-.015 10.591-.005.005-.01.01-.015.015l-71.621 71.213c17.495 10.8 33.429 17.093 43.647 17.093 18.317 0 61.99-30.879 106.203-75.092s75.092-87.886 75.092-106.203c0-10.106-6.179-25.854-16.783-43.143l-71.553 71.148c-2.937 2.92-7.686 2.907-10.607-.03-2.915-2.932-2.907-7.669.015-10.591.005-.005.01-.01.015-.015l78.132-77.69c1.587-1.578 3.796-2.365 6.024-2.145s4.241 1.422 5.489 3.281c15.649 23.288 24.267 44.307 24.268 59.185 0 18.738-19.037 48.3-43.317 77.388l29.108 29.108c2.929 2.929 2.929 7.677 0 10.607-2.929 2.929-7.678 2.929-10.607 0l-28.306-28.306c-6.87 7.775-13.995 15.412-21.093 22.678l44.003 44.003 47.865-11.97c2.556-.639 5.26.11 7.123 1.973l82.235 82.235c1.863 1.863 2.612 4.567 1.973 7.123l-11.97 47.865 13.776 13.776c8.362-3.985 18.693-2.52 25.608 4.395 8.772 8.769 8.772 23.044-.001 31.816zm-21.213-21.213c-2.924 2.924-2.924 7.682 0 10.607s7.682 2.924 10.607 0 2.924-7.682 0-10.607-7.682-2.925-10.607 0zm-76.697 12.804c4.138-.001 7.501-3.366 7.501-7.501s-3.365-7.5-7.501-7.499c-4.136 0-7.5 3.365-7.5 7.501 0 4.135 3.365 7.5 7.501 7.499zm-56.33-156.438 102.488 102.488 8.757-35.015-76.23-76.23zm.33 100.438c4.133-.002 7.499-3.364 7.501-7.502 0-4.135-3.365-7.5-7.501-7.499-4.136 0-7.5 3.365-7.5 7.501.001 4.135 3.365 7.499 7.5 7.5zm-64.684-99.807 35.015-8.756-37.64-37.64c-7.266 7.098-14.903 14.223-22.679 21.093zm38.737-242.335-226.694 226.694c-2.929 2.929-7.678 2.929-10.607 0s-2.929-7.677 0-10.607l226.695-226.694c2.929-2.929 7.678-2.929 10.607 0 2.928 2.929 2.928 7.678-.001 10.607zm-20.409-22.017-228.302 228.301c-2.929 2.929-7.678 2.929-10.607 0s-2.929-7.677 0-10.607l228.302-228.301c2.929-2.929 7.678-2.929 10.607 0s2.929 7.678 0 10.607zm-22.442-19.985-80.43 80.43c-2.929 2.929-7.678 2.929-10.607 0s-2.929-7.678 0-10.607l74.426-74.425c-23.944-18.057-57.778-37.255-93.375-37.255-42.127 0-81.733 16.405-111.522 46.194s-46.194 69.395-46.194 111.522c0 35.597 19.197 69.431 37.254 93.375l74.426-74.426c2.929-2.929 7.678-2.929 10.607 0s2.929 7.677 0 10.607l-80.43 80.43c-1.507 1.507-3.583 2.302-5.711 2.186-2.127-.116-4.105-1.131-5.44-2.792-20.851-25.959-45.706-66.006-45.705-109.38-.001-46.134 17.965-89.507 50.587-122.129s75.994-50.587 122.129-50.587c43.374 0 83.421 24.855 109.379 45.706 1.661 1.335 2.676 3.313 2.792 5.44.116 2.128-.679 4.204-2.186 5.711zm-137.444 88.4c-16.618 16.618-43.656 16.618-60.274 0s-16.618-43.656 0-60.274 43.656-16.618 60.274 0 16.617 43.657 0 60.274zm-49.668-49.667c-10.769 10.769-10.769 28.292 0 39.061s28.292 10.769 39.061 0 10.769-28.292 0-39.061-28.292-10.769-39.061 0z"/></g></g></svg>