<svg id="Capa_1" enable-background="new 0 0 512 512" height="512" viewBox="0 0 512 512" width="512" xmlns="http://www.w3.org/2000/svg"><g><g><path d="m67.249 74.65c-4.081 2.174-7.993 4.371-11.687 6.587-2 1.2-3.062 3.864-3.062 6.567 0 34.312 14.549 234.628 56.206 310.688 24.8 45.282 106.519 93.51 145.806 105.778.489.153.988.229 1.488.229.499 0 .999-.076 1.487-.229 5.965-1.862 12.911-4.558 20.484-7.942-6.088-1.98-210.644-416.069-210.722-421.678z" fill="#ffd064"/><path d="m403.294 398.492c41.657-76.061 56.206-276.376 56.206-310.688 0-2.703-1.062-5.367-3.062-6.567-62.561-37.535-185.711-69.665-199.019-73.534-.936-.272-1.901-.272-2.838 0-12.522 3.641-122.291 32.304-187.332 66.947.078 5.609.175 11.295.296 16.957.925 43.268 16.022 229.759 54.317 299.68 22.263 40.649 97.517 85.129 134.138 97.687 8.621 2.956 15.883 5.375 21.971 7.355 42.309-18.907 104.288-59.429 125.323-97.837z" fill="#fff0af"/><path d="m115.506 218.864-18.046 23.172c8.577 55.778 20.978 111.774 37.557 142.046 17.579 32.096 82.217 74.189 120.982 88.954l18.586-27.08c-11.364 5.257-158.45-222.711-159.079-227.092z" fill="#7dc03a"/><path d="m429.186 100.353c-28.062-14.737-79.543-35.955-173.182-61.897l-153.177 52.194c-7.728 3.489-14.348 6.728-20.013 9.703 1.214 29.142 5.977 85.302 14.647 141.683h21.58c8.495 52.381 20.389 103.583 35.977 132.046 14.804 27.03 74.207 60.738 100.982 74.068h.001v24.885c38.76-14.763 103.403-56.858 120.981-88.953l37.558-142.046c8.669-56.382 13.432-112.541 14.646-141.683z" fill="#bce097"/><path d="m119.041 242.036h136.961l.001-203.581c-.001 0-.002-.001-.004-.001-74.733 20.705-122.616 38.402-153.172 52.196 1.234 29.224 5.992 85.191 14.634 141.386.513 3.334 1.04 6.669 1.58 10z" fill="#dcefc9"/><path d="m376.981 384.082c16.579-30.272 28.981-86.268 37.558-142.046h-158.537l-.002 206.113c.039-.016 73.977-24.088 120.981-64.067z" fill="#dcefc9"/><path d="m15.661 228.697c-4.842 2.488-8.161 7.521-8.161 13.339 0 8.284 6.716 15 15 15 5.818 0 10.851-3.319 13.339-8.161-2.052 1.055-21.233-18.126-20.178-20.178z" fill="#4980ac"/><path d="m22.5 227.036c-2.466 0-4.787.606-6.839 1.661-1.055 2.052-1.661 4.373-1.661 6.839 0 8.284 6.716 15 15 15 2.466 0 4.787-.606 6.839-1.661 1.055-2.052 1.661-4.373 1.661-6.839 0-8.284-6.716-15-15-15z" fill="#81a9c8"/><path d="m482.661 228.697c-4.842 2.488-8.161 7.521-8.161 13.339 0 8.284 6.716 15 15 15 5.818 0 10.851-3.319 13.339-8.161-2.052 1.055-21.233-18.126-20.178-20.178z" fill="#4980ac"/><path d="m489.5 227.036c-2.466 0-4.787.606-6.839 1.661-1.055 2.052-1.661 4.373-1.661 6.839 0 8.284 6.716 15 15 15 2.466 0 4.787-.606 6.839-1.661 1.055-2.052 1.661-4.373 1.661-6.839 0-8.284-6.716-15-15-15z" fill="#81a9c8"/><path d="m361 260.619c0-63.513-51.487-115-115-115-57.185 0-104.613 41.742-113.498 96.417l123.496 133.146c58.83-5.068 105.002-54.419 105.002-114.563z" fill="#bce097"/><path d="m132.502 242.036c-.983 6.05-1.502 12.256-1.502 18.583 0 63.513 51.487 115 115 115 3.37 0 6.703-.154 9.999-.438l-.001-133.146h-123.496z" fill="#7dc03a"/><circle cx="256" cy="240.619" fill="#9cd169" r="115"/><path d="m241.388 319.808c-3.979 0-7.793-1.581-10.606-4.394l-52.06-52.06c-5.858-5.858-5.858-15.355 0-21.213s15.355-5.857 21.213 0l41.453 41.453 93.315-93.315c5.857-5.858 15.355-5.858 21.213 0s5.858 15.355 0 21.213l-103.921 103.922c-2.813 2.813-6.629 4.394-10.607 4.394z" fill="#7dc03a"/><path d="m251.388 299.808c-3.979 0-7.793-1.581-10.606-4.394l-52.06-52.06c-5.858-5.858-5.858-15.355 0-21.213s15.355-5.857 21.213 0l41.453 41.453 93.315-93.315c5.857-5.858 15.355-5.858 21.213 0s5.858 15.355 0 21.213l-103.921 103.922c-2.813 2.813-6.629 4.394-10.607 4.394z" fill="#ebf7e0"/></g><g><path d="m256 512c-1.253 0-2.506-.19-3.725-.571-21.49-6.71-53.011-22.983-80.303-41.456-23.683-16.031-55.025-40.819-69.845-67.878-19.011-34.712-32.479-94.313-41.545-152.762h-16.867c-3.095 8.73-11.437 15-21.215 15-12.407 0-22.5-10.093-22.5-22.5s10.093-22.5 22.5-22.5c9.778 0 18.12 6.27 21.215 15h14.631c-9.454-65.98-13.346-127.573-13.346-146.529 0-5.537 2.569-10.517 6.704-12.998 38.449-23.069 104.039-47.52 194.948-72.675 2.702-.748 4.685-1.296 5.834-1.63 2.299-.667 4.728-.667 7.025 0 1.15.334 3.132.882 5.833 1.63 71.312 19.732 127.516 39.226 167.052 57.94 3.744 1.772 5.342 6.244 3.57 9.988s-6.245 5.34-9.988 3.57c-38.759-18.347-94.15-37.539-164.634-57.041-2.316-.641-4.12-1.141-5.345-1.489-1.224.349-3.029.848-5.347 1.49-110.71 30.633-164.72 55.297-190.604 70.705-.026.132-.048.306-.048.51 0 34.972 15.057 233.634 55.284 307.086 10.438 19.059 33.557 41.313 65.097 62.661 25.859 17.503 55.422 32.868 75.619 39.324 20.199-6.456 49.76-21.82 75.619-39.324 31.54-21.349 54.658-43.602 65.097-62.661 40.227-73.452 55.284-272.114 55.284-307.086 0-.233-.028-.425-.06-.564-3.044-2.275-3.932-6.532-1.934-9.861 2.13-3.552 6.737-4.705 10.29-2.573 4.135 2.481 6.704 7.461 6.704 12.998 0 18.956-3.892 80.549-13.346 146.529h14.631c3.095-8.73 11.437-15 21.215-15 12.407 0 22.5 10.093 22.5 22.5s-10.093 22.5-22.5 22.5c-9.778 0-18.12-6.27-21.215-15h-16.868c-9.066 58.449-22.534 118.049-41.545 152.762-14.819 27.059-46.162 51.847-69.845 67.878-27.292 18.473-58.813 34.746-80.305 41.457-1.217.38-2.469.57-3.722.57zm233.5-277.667c-4.136 0-7.5 3.365-7.5 7.5 0 4.136 3.364 7.5 7.5 7.5s7.5-3.364 7.5-7.5c0-4.135-3.364-7.5-7.5-7.5zm-467 0c-4.136 0-7.5 3.365-7.5 7.5 0 4.136 3.364 7.5 7.5 7.5s7.5-3.364 7.5-7.5c0-4.135-3.364-7.5-7.5-7.5zm430.072-146.669c.002.001.004.003.007.004-.002-.001-.004-.002-.007-.004zm-196.572 392.871c-.905 0-1.81-.164-2.669-.491-32.753-12.474-84.887-44.609-112.001-74.775-2.769-3.081-2.516-7.823.564-10.592 3.081-2.768 7.823-2.516 10.592.564 22.261 24.768 64.911 52.501 96.014 66.534l.002-98.882c-61.179-3.714-110.385-52.542-114.696-113.56h-27.666c7.729 48.019 18.289 94.876 31.818 123.924 1.749 3.755.123 8.216-3.632 9.965s-8.216.123-9.965-3.632c-30.747-66.016-46.551-219.187-49.041-278.925-.121-2.897 1.439-5.604 4.007-6.952 37.701-19.797 96.469-40.821 174.67-62.486 1.311-.363 2.694-.363 4.005 0 78.208 21.667 136.975 42.69 174.67 62.486 2.567 1.348 4.127 4.055 4.007 6.952-2.685 64.433-19.788 226.159-53.12 287.02-18.922 34.55-86.607 77.779-124.89 92.36-.859.327-1.764.49-2.669.49zm114.646-283.166c4.503 11.916 7.086 24.374 7.707 37.167h6.187c4.142 0 7.5 3.358 7.5 7.5s-3.358 7.5-7.5 7.5h-6.361c-4.402 60.928-53.562 109.646-114.676 113.356l-.002 98.907c39.656-17.745 92.477-54.979 106.903-81.32 31.794-58.052 48.116-217.238 51.068-275.663-25.559-12.901-72.932-32.468-157.968-56.476l-.001 70.003c23.727 1.421 46.201 9.583 65.399 23.821 3.327 2.468 4.024 7.165 1.557 10.492-2.468 3.327-7.164 4.023-10.492 1.557-18.608-13.8-40.728-21.094-63.967-21.094-59.276 0-107.5 48.224-107.5 107.5s48.224 107.5 107.5 107.5 107.5-48.224 107.5-107.5c0-10.777-1.565-21.309-4.664-31.44l-91.538 91.538c-8.773 8.773-23.047 8.773-31.82 0l-52.059-52.06c-8.773-8.773-8.772-23.046-.001-31.819.001-.001 0 0 .001-.001 8.772-8.772 23.046-8.772 31.819.001l36.15 36.15 88.012-88.012c8.773-8.773 23.045-8.772 31.82.001 8.773 8.771 8.772 23.046 0 31.819zm-176.62 30.075c-2.924 2.924-2.924 7.682 0 10.607l52.059 52.06c2.924 2.924 7.682 2.924 10.607 0l103.922-103.922c2.924-2.924 2.924-7.682 0-10.606s-7.682-2.924-10.605-.001c0 0 0 0-.001.001l-93.316 93.315c-2.929 2.929-7.678 2.929-10.607 0l-41.453-41.453c-2.924-2.925-7.682-2.925-10.606-.001zm-90.205 6.889h29.838c3.155-62.151 52.853-112.224 114.844-115.987l.001-70.008c-85.047 24.009-132.417 43.576-157.979 56.48 1.478 30.001 5.859 79.445 13.296 129.515z"/></g></g></svg>