<svg id="Capa_1" enable-background="new 0 0 512.004 512.004" height="512" viewBox="0 0 512.004 512.004" width="512" xmlns="http://www.w3.org/2000/svg"><g><g><path d="m39.703 204.361c1.867 5.745 87.534 67.942 93.515 67.942 6.041 0 91.667-62.254 93.515-67.942 1.867-5.745-30.881-106.418-35.719-109.933-4.887-3.551-110.752-3.515-115.591 0-4.888 3.55-37.568 104.245-35.72 109.933z" fill="#e592b8"/><path d="m90.183 187.959 16.438-50.59s-30.924-42.468-31.226-42.919c-2.15 1.591-8.789 9.96-15.774 19.398-9.139 12.348-8.872 26.526-9.917 29.744-1.867 5.745-11.848 55.081-10 60.77.005.015.013.034.018.05 1.998-.737 50.461-16.453 50.461-16.453z" fill="#de5791"/><path d="m59.62 113.847c-9.14 12.349-18.872 26.526-19.918 29.744-1.867 5.745-1.848 55.081 0 60.769.005.014.015.035.02.05.844-.311 9.412-3.461 19.261-6.929-1.741-7.757-1.291-77.696.637-83.634z" fill="#da0b62"/><path d="m191.013 94.428-31.198 42.941 16.438 50.59 50.48 16.402c1.867-5.745 1.848-55.081 0-60.77-1.868-5.745-30.882-45.648-35.72-49.163z" fill="#de5791"/><path d="m226.676 204.402s-47.947-17.705-50.423-16.443c-2.452 1.25-40.255 31.267-43.035 31.267l-5.873 8.972 5.873 44.105c6.041 0 42.957-15.263 47.795-18.779 2.704-1.965 22.77-15.055 31.535-27.32 7.074-9.899 13.302-19.261 14.128-21.802z" fill="#81a9c8"/><path d="m133.217 251.733v20.571c6.041 0 52.957-15.263 57.795-18.779 2.702-1.963 12.768-15.045 21.544-27.313-9.735 4.95-73.471 25.492-79.339 25.521z" fill="#4980ac"/><path d="m191.013 94.428c-4.887-3.551-51.814-18.779-57.795-18.779-6.041 0-52.957 15.263-57.795 18.779-.009.006-.019.015-.028.022.303.451 28.495 42.487 31.226 42.919 2.718.43 51.035.435 53.781 0 2.718-.431 30.611-42.941 30.611-42.941z" fill="#bcd1e1"/><path d="m90.183 187.959c-2.399-1.222-48.463 15.716-50.462 16.452 2.006 5.912 30.876 35.607 35.701 39.113 4.887 3.551 51.814 28.779 57.795 28.779v-53.078c-2.752 0-40.557-30.004-43.034-31.266z" fill="#da0b62"/><path d="m133.204 251.733c-5.981 0-42.922-13.656-45.384-15.444-2.437-1.771-26.878-32.716-28.745-38.461-.031-.096-.061-.214-.091-.346-9.849 3.467-18.417 6.618-19.261 6.929 1.995 5.898 30.873 45.607 35.7 49.114 4.887 3.551 51.814 18.779 57.795 18.779v-20.571c-.005 0-.01 0-.014 0z" fill="#b3094e"/><path d="m339.169 278.766c1.173 3.612 55.014 42.717 58.773 42.717 3.797 0 57.611-39.141 58.773-42.717 1.173-3.612-19.408-66.907-22.449-69.117-3.072-2.232-69.606-2.21-72.647 0-3.073 2.232-23.612 65.541-22.45 69.117z" fill="#bcd1e1"/><path d="m361.601 271.475 13.881-42.736s-26.113-35.875-26.369-36.256c-1.62 1.199-6.259 6.958-11.43 13.849-8.206 10.935-7.753 24.721-8.709 27.664-1.576 4.853-11.561 46.53-10 51.335.004.013.011.029.016.043 1.687-.623 42.611-13.899 42.611-13.899z" fill="#de5791"/><path d="m337.929 278.582c-1.548-4.768-1.859-66.313-.245-72.25-8.207 10.936-17.754 24.72-18.71 27.663-1.576 4.853-1.561 46.53 0 51.335.004.012.013.03.017.042.786-.289 9.553-3.514 18.938-6.79z" fill="#da0b62"/><path d="m446.746 192.464-26.345 36.275 13.881 42.736 42.627 13.856c1.576-4.853 1.561-46.53 0-51.335-1.577-4.854-26.077-38.563-30.163-41.532z" fill="#81a9c8"/><path d="m476.861 285.365s-40.488-14.957-42.58-13.89c-2.071 1.056-33.993 26.413-36.34 26.413l-4.96 7.579 4.96 37.258c5.101 0 44.719-22.894 48.805-25.864 2.481-1.803 12.299-4.699 20.074-15.742 5.159-7.326 9.419-13.838 10.041-15.754z" fill="#f9c8dc"/><path d="m397.942 322.416v20.309c5.101 0 44.719-12.894 48.805-15.864 2.479-1.802 12.297-14.688 20.084-25.736-8.472 4.191-64.004 21.291-68.889 21.291z" fill="#e592b8"/><path d="m446.746 192.464c-4.127-3-43.754-15.864-48.805-15.864-5.101 0-44.719 12.894-48.805 15.864-.007.005-.016.013-.024.018.256.381 24.063 35.891 26.369 36.256 2.296.364 43.096.367 45.415 0 2.296-.364 25.85-36.274 25.85-36.274z" fill="#dce7ef"/><path d="m361.601 271.475c-2.026-1.033-40.924 13.276-42.612 13.898 1.694 4.994 36.073 28.527 40.147 31.489 4.127 3 33.754 25.863 38.805 25.864v-44.838c-2.324-.001-34.248-25.347-36.34-26.413z" fill="#81a9c8"/><path d="m180.739 411.709c.743 2.286 34.836 27.039 37.217 27.039 2.404 0 36.481-24.776 37.217-27.039.743-2.286-12.29-42.352-14.215-43.751-1.945-1.413-44.077-1.399-46.002 0-1.946 1.414-14.952 41.488-14.217 43.751z" fill="#dce7ef"/><path d="m194.944 407.094 8.79-27.052s-16.536-22.709-16.698-22.95c-2.654 1.964-8.099 23.241-9.085 26.277-.998 3.072-10.988 29.453-10 32.495.003.008.007.018.01.027 1.069-.393 26.983-8.797 26.983-8.797z" fill="#bcd1e1"/><path d="m248.861 357.081-16.683 22.962 8.79 27.052 26.993 8.771c.998-3.072.988-29.453 0-32.495-.998-3.074-16.513-24.411-19.1-26.29z" fill="#e592b8"/><path d="m267.93 415.887s-25.638-9.467-26.963-8.793c-1.311.668-21.525 16.719-23.012 16.719l-3.141 4.798 3.141 23.584c3.23 0 18.317-8.162 20.905-10.042 2.614-1.898 28.082-23.225 29.07-26.266z" fill="#bcd1e1"/><path d="m248.861 357.081c-2.613-1.899-27.706-10.042-30.905-10.042-3.23 0-28.317 8.162-30.905 10.042-.005.003-.01.008-.015.012.162.241 15.237 22.719 16.698 22.95 1.454.23 27.29.233 28.758 0 1.454-.231 16.369-22.962 16.369-22.962z" fill="#f9c8dc"/><path d="m194.944 407.094c-1.283-.654-25.914 8.404-26.983 8.798 1.073 3.161 26.51 14.387 29.09 16.262 2.613 1.899 17.706 20.041 20.905 20.042v-28.382c-1.472-.001-21.687-16.045-23.012-16.72z" fill="#81a9c8"/><path d="m376.117 54.286c-4.842 2.488-8.161 7.521-8.161 13.339 0 8.284 6.716 15 15 15 5.818 0 10.851-3.319 13.339-8.161-2.052 1.055-21.233-18.126-20.178-20.178z" fill="#da0b62"/><path d="m382.956 52.625c-2.466 0-4.787.606-6.839 1.661-1.055 2.052-1.661 4.373-1.661 6.839 0 8.284 6.716 15 15 15 2.466 0 4.787-.606 6.839-1.661 1.055-2.052 1.661-4.373 1.661-6.839 0-8.284-6.716-15-15-15z" fill="#de5791"/><path d="m456.971 408.174c-4.842 2.488-8.161 7.521-8.161 13.339 0 8.284 6.716 15 15 15 5.818 0 10.851-3.319 13.339-8.161-2.052 1.055-21.232-18.125-20.178-20.178z" fill="#4980ac"/><path d="m463.81 406.514c-2.466 0-4.787.606-6.839 1.661-1.055 2.052-1.661 4.373-1.661 6.839 0 8.284 6.716 15 15 15 2.466 0 4.787-.606 6.839-1.661 1.055-2.052 1.661-4.373 1.661-6.839 0-8.285-6.715-15-15-15z" fill="#81a9c8"/><path d="m397.941 322.416c-5.051 0-34.329-11.279-36.407-12.789-2.058-1.496-22.028-26.191-23.605-31.044-9.385 3.276-18.152 6.5-18.939 6.79 1.684 4.982 26.07 38.527 30.146 41.489 4.127 3 43.752 15.863 48.804 15.864v-20.31z" fill="#4980ac"/><path d="m185.775 409.603c-.988-3.041.213-49.275 1.261-52.51-2.652 1.961-18.098 23.24-19.085 26.276-.998 3.072-.988 29.453 0 32.495.002.008.008.019.011.027.662-.244 10.242-3.766 17.813-6.288z" fill="#81a9c8"/><path d="m217.956 433.199v18.996c3.23 0 28.317-8.162 30.905-10.042 2.613-1.899 18.112-23.247 19.1-26.289-2.719 1.976-46.774 17.335-50.005 17.335z" fill="#81a9c8"/><path d="m198.807 425.973c-1.303-.947-12.034-13.297-13.032-16.37-7.571 2.522-17.151 6.044-17.813 6.288 1.066 3.154 16.509 24.387 19.089 26.262 2.613 1.899 27.706 10.042 30.905 10.042v-18.996c-3.199 0-17.833-6.269-19.149-7.226z" fill="#4980ac"/></g><g><path d="m217.956 478.056c-4.142 0-7.5-3.357-7.5-7.5v-12.4c-6.26-1.688-14.806-4.466-20.858-6.778l-7.288 10.03c-2.436 3.351-7.126 4.095-10.476 1.659-3.351-2.435-4.094-7.125-1.66-10.476l7.294-10.039c-4.073-5.048-9.351-12.314-12.884-17.738l-11.799 3.833c-3.939 1.276-8.17-.876-9.45-4.815s.876-8.171 4.815-9.45l11.814-3.839c-.328-6.477-.327-15.451.003-21.912l-11.798-3.834c-3.939-1.28-6.096-5.511-4.815-9.45 1.28-3.94 5.511-6.094 9.45-4.815l11.814 3.839c3.538-5.426 8.804-12.674 12.866-17.707l-7.3-10.001c-2.442-3.346-1.709-8.038 1.637-10.479 3.345-2.443 8.037-1.71 10.479 1.636l7.321 10.031c6.051-2.312 14.583-5.083 20.834-6.77v-12.4c0-4.143 3.358-7.5 7.5-7.5s7.5 3.357 7.5 7.5v18.36c0 4.021-3.163 7.302-7.137 7.491-3.768.556-22.566 6.646-26.831 8.662-3.132 3.32-14.157 18.496-16.354 22.514-.583 4.525-.582 23.286.001 27.827 2.184 3.996 13.182 19.133 16.343 22.495.011.008.022.017.033.024 4.158 1.961 21.955 7.742 26.447 8.589 4.484-.844 22.326-6.643 26.463-8.601 3.131-3.317 14.159-18.497 16.355-22.514.583-4.523.582-23.284-.001-27.826-2.254-4.124-13.885-20.1-16.618-22.778-2.426-1.951-3.404-5.216-2.418-8.196.245-.74.623-1.496 1.082-2.126l10.79-14.783c2.442-3.346 7.134-4.078 10.48-1.636 3.346 2.441 4.079 7.134 1.637 10.479l-7.3 10.001c4.062 5.033 9.329 12.28 12.867 17.707l11.813-3.839c3.938-1.279 8.171.875 9.451 4.815 1.28 3.939-.876 8.17-4.815 9.45l-11.799 3.834c.33 6.462.331 15.435.003 21.912l11.814 3.839c3.939 1.279 6.096 5.511 4.815 9.45-1.28 3.938-5.512 6.095-9.45 4.815l-11.799-3.833c-3.533 5.424-8.812 12.689-12.885 17.738l7.292 10.036c2.435 3.351 1.691 8.041-1.66 10.476-3.351 2.438-8.041 1.693-10.476-1.659l-7.286-10.027c-6.053 2.313-14.598 5.09-20.858 6.778v12.4c.002 4.143-3.356 7.501-7.498 7.501zm26.288-115.066c.077.063.148.113.208.157-.071-.05-.14-.103-.208-.157zm-26.032-8.455c-.084.002-.17.004-.255.004.07-.003.158.001.255-.004zm245.598 89.479c-12.407 0-22.5-10.094-22.5-22.5s10.093-22.5 22.5-22.5 22.5 10.094 22.5 22.5-10.093 22.5-22.5 22.5zm0-30c-4.136 0-7.5 3.364-7.5 7.5s3.364 7.5 7.5 7.5c4.135 0 7.5-3.364 7.5-7.5s-3.365-7.5-7.5-7.5zm-65.854-34.905c-4.142 0-7.5-3.357-7.5-7.5v-22.898c-10.589-2.664-28.644-8.53-38.785-12.601l-13.511 18.512c-2.443 3.345-7.133 4.079-10.48 1.636-3.346-2.441-4.078-7.134-1.636-10.479l13.487-18.478c-6.993-8.368-18.145-23.716-23.965-32.978l-21.809 7.086c-3.938 1.277-8.17-.876-9.45-4.815s.876-8.17 4.815-9.45l21.786-7.079c-.741-10.876-.743-29.873-.007-40.797l-21.809-7.086c-3.939-1.28-6.095-5.511-4.815-9.45 1.28-3.94 5.507-6.096 9.451-4.815l21.786 7.079c5.796-9.239 16.971-24.623 23.987-33.024l-13.463-18.531c-2.435-3.351-1.692-8.041 1.659-10.476 3.351-2.437 8.042-1.692 10.476 1.659l16.644 22.908c.146.167.285.342.417.524.19.262.361.532.513.809 8.647 12.88 18.946 27.59 22.948 32.489 7.757.173 30.759.173 38.516.001 3.303-4.048 10.893-14.771 18.3-25.623-11.549-4.275-32.778-10.974-37.547-11.6-1.765.255-7.994 1.819-19.124 5.352-3.948 1.251-8.165-.932-9.417-4.88-1.253-3.947.932-8.164 4.879-9.417 7.569-2.402 12.677-3.855 16.155-4.733v-22.828c0-4.143 3.358-7.5 7.5-7.5s7.5 3.357 7.5 7.5v22.897c10.605 2.668 28.696 8.548 38.829 12.619l13.458-18.523c2.435-3.351 7.125-4.096 10.476-1.659 3.351 2.435 4.094 7.125 1.66 10.476l-13.467 18.536c7.016 8.4 18.19 23.784 23.987 33.023l21.787-7.078c3.94-1.28 8.17.875 9.45 4.815 1.28 3.939-.876 8.171-4.815 9.45l-21.809 7.086c.737 10.923.734 29.921-.006 40.797l21.786 7.079c3.939 1.28 6.096 5.511 4.815 9.45-1.28 3.94-5.508 6.095-9.451 4.815l-21.809-7.086c-5.819 9.261-16.971 24.608-23.965 32.977l13.487 18.479c2.442 3.346 1.709 8.038-1.636 10.479-3.347 2.441-8.038 1.709-10.48-1.636l-13.511-18.512c-10.141 4.07-28.196 9.937-38.785 12.601v22.898c-.002 4.143-3.36 7.5-7.502 7.5zm0-58.794c4.142 0 7.5 3.357 7.5 7.5v5.467c11.923-3.369 32.706-10.327 36.872-12.598 3.461-3.27 16.677-21.137 23.527-31.408-12.261-4.414-24.588-8.615-29.71-9.988-2.004 1.494-5.117 3.871-7.971 6.051-26.161 19.977-26.94 19.977-30.219 19.977-3.342 0-4.038 0-30.105-19.896-2.888-2.204-6.038-4.608-8.063-6.118-1.693.455-4.732 1.356-10.092 3.139-3.929 1.31-8.176-.817-9.484-4.749-1.307-3.931.819-8.177 4.75-9.483 14.762-4.912 16.983-5.042 20.07-3.469 1.182.603 2.63 1.666 11.92 8.757 5.912 4.513 15.939 12.166 21.009 15.668 5.088-3.512 15.169-11.209 21.11-15.746 9.301-7.103 10.625-8.075 11.81-8.679 2.991-1.525 4.736-2.417 39.465 10.192.456-12.191.272-33.18-.549-38.354-.027-.075-.053-.151-.078-.228-.034-.103-.064-.206-.093-.309-2.342-4.622-14.519-21.694-22.071-31.315-9.529 14.041-15.086 21.694-18.632 25.92l3.674 11.31c1.28 3.939-.876 8.17-4.815 9.45-3.938 1.279-8.171-.875-9.45-4.815l-3.32-10.22c-9.058.158-25.05.158-34.109 0l-3.321 10.22c-1.28 3.94-5.511 6.095-9.45 4.815s-6.096-5.511-4.815-9.45l3.671-11.3c-3.546-4.223-9.104-11.877-18.634-25.927-7.688 9.796-20.172 27.321-22.19 31.565-1.122 5.982-1.121 40.64.002 46.652 2.609 5.501 22.981 33.538 27.424 37.742 4.147 2.264 24.934 9.222 36.867 12.593v-5.466c0-4.142 3.358-7.5 7.5-7.5zm-264.739-7.085c-4.142 0-7.5-3.357-7.5-7.5v-28c-7.508-1.821-18.109-5.165-25.062-7.437-3.938-1.286-6.086-5.521-4.8-9.458 1.287-3.938 5.523-6.086 9.458-4.8 8.665 2.83 15.568 4.886 20.404 6.205v-14.478c0-4.143 3.358-7.5 7.5-7.5s7.5 3.357 7.5 7.5v14.522c13.996-3.839 40.945-12.831 45.655-15.54 4.958-4.468 29.552-38.294 32.753-45.008.016-.054.033-.107.05-.16.027-.085.056-.169.086-.252 1.332-7.085 1.344-47.472.038-55.254-.044-.116-.086-.233-.125-.354-.048-.147-.091-.296-.129-.443-2.758-5.576-18.495-27.582-27.405-38.755-2.61 3.828-5.905 8.628-9.25 13.41-4.361 6.237-7.963 11.239-10.705 14.869-1.317 1.743-2.436 3.188-3.424 4.38l6.061 18.653c1.28 3.939-.875 8.17-4.815 9.45-3.94 1.279-8.17-.875-9.451-4.815l-5.74-17.664c-10.721.213-31.477.213-42.202 0l-5.739 17.664c-1.28 3.94-5.51 6.095-9.45 4.815-3.939-1.28-6.096-5.511-4.815-9.45l6.059-18.646c-.994-1.198-2.117-2.648-3.443-4.403-2.749-3.638-6.359-8.652-10.729-14.903-3.327-4.758-6.604-9.533-9.209-13.356-9.113 11.43-25.378 34.209-27.575 39.125-1.114 5.251-1.341 33.34-.681 47.934 4.353-1.568 9.8-3.51 15.276-5.41 7.215-2.503 13.086-4.449 17.45-5.786 8.488-2.601 11.419-3.119 14.497-1.553 1.3.663 2.983 1.902 13.856 10.202 7.298 5.57 19.847 15.147 25.61 19.051 5.786-3.913 18.403-13.548 25.738-19.149 10.763-8.219 12.43-9.446 13.715-10.102 2.995-1.525 5.835-1.061 13.417 1.214 3.927 1.179 9.238 2.917 15.786 5.168 3.917 1.347 6 5.614 4.654 9.531-1.348 3.917-5.615 5.997-9.531 4.654-11.317-3.891-16.608-5.443-19.024-6.063-2.341 1.735-6.301 4.76-9.914 7.519-30.515 23.302-31.433 23.302-34.847 23.302-3.395 0-4.308 0-34.706-23.202-3.673-2.803-7.7-5.877-10.063-7.626-5.916 1.505-21.666 6.874-37.423 12.565 7.978 12.165 25.275 35.583 29.142 38.941 2.63 1.983 3.593 5.381 2.598 8.36-.239.753-.602 1.48-1.093 2.154l-20.1 27.538c-2.442 3.345-7.135 4.076-10.479 1.636-3.346-2.441-4.079-7.134-1.637-10.479l16.518-22.63c-8.335-9.802-22.639-29.484-29.415-40.477l-26.706 8.676c-3.941 1.279-8.17-.875-9.45-4.815-1.28-3.939.876-8.171 4.815-9.45l26.679-8.668c-.986-12.819-.989-37.184-.009-50.072l-26.705-8.678c-3.939-1.28-6.095-5.511-4.815-9.45 1.28-3.94 5.513-6.096 9.451-4.815l26.678 8.669c6.742-10.957 21.073-30.687 29.439-40.532l-16.483-22.691c-2.435-3.351-1.692-8.041 1.659-10.476 3.352-2.437 8.041-1.692 10.476 1.659l16.476 22.678c11.912-4.906 35.115-12.446 47.655-15.487v-28.039c0-4.143 3.358-7.5 7.5-7.5s7.5 3.357 7.5 7.5v28.039c12.54 3.041 35.744 10.581 47.655 15.487l16.48-22.683c2.434-3.352 7.125-4.097 10.476-1.659 3.351 2.435 4.094 7.125 1.659 10.476l-16.49 22.697c8.366 9.845 22.697 29.574 29.438 40.531l26.679-8.669c3.938-1.279 8.17.876 9.451 4.815 1.28 3.939-.875 8.17-4.815 9.45l-26.705 8.677c.979 12.889.977 37.253-.009 50.073l26.679 8.668c3.939 1.28 6.096 5.511 4.815 9.45-1.28 3.94-5.51 6.095-9.45 4.815l-26.705-8.677c-6.777 10.993-21.08 30.676-29.416 40.477l16.518 22.631c2.442 3.346 1.709 8.038-1.637 10.479-3.345 2.442-8.038 1.71-10.479-1.636l-16.543-22.666c-11.928 4.907-35.081 12.429-47.602 15.465v28.04c.001 4.145-3.357 7.502-7.499 7.502zm-53.159-66.472c.02.014.038.028.057.042-.019-.015-.039-.029-.057-.042zm29.784-116.98c8.784.238 37.96.237 46.743.001 3.856-4.595 13.546-18.292 23.029-32.231-13.467-5.105-40.957-13.808-46.399-14.388-5.421.572-32.923 9.281-46.398 14.392 9.485 13.949 19.17 27.64 23.025 32.226zm273.114-39.653c-12.407 0-22.5-10.094-22.5-22.5s10.093-22.5 22.5-22.5 22.5 10.094 22.5 22.5-10.093 22.5-22.5 22.5zm0-30c-4.136 0-7.5 3.364-7.5 7.5s3.364 7.5 7.5 7.5c4.135 0 7.5-3.364 7.5-7.5s-3.365-7.5-7.5-7.5z"/></g></g></svg>