<svg id="Capa_1" enable-background="new 0 0 512.004 512.004" height="512" viewBox="0 0 512.004 512.004" width="512" xmlns="http://www.w3.org/2000/svg"><g><g><g><path d="m287.562 308.403c0-16.396 0-31.488 0-31.488h-63.12v66.247c0 17.43 14.13 22.56 31.56 22.56s31.56-5.13 31.56-22.56c-2.572 6.264 0-34.759 0-34.759z" fill="#365f7e"/><path d="m242.195 333.209c0 12.073 7.968 20.753 24.017 20.753 9.991 0 18.778-4.536 21.35-10.8 0-7.739 0-22.665 0-35.759z" fill="#4980ac"/></g><path d="m335.75 361.593c-4.842 2.488-8.161 7.521-8.161 13.339 0 8.284 6.716 15 15 15 5.818 0 10.851-3.319 13.339-8.161-2.052 1.055-21.232-18.126-20.178-20.178z" fill="#4980ac"/><path d="m342.59 359.932c-2.466 0-4.787.606-6.839 1.661-1.055 2.052-1.661 4.373-1.661 6.839 0 8.284 6.716 15 15 15 2.466 0 4.787-.606 6.839-1.661 1.055-2.052 1.661-4.373 1.661-6.839 0-8.284-6.716-15-15-15z" fill="#81a9c8"/><path d="m68.476 404.04c-4.842 2.488-8.161 7.521-8.161 13.339 0 8.284 6.716 15 15 15 5.818 0 10.851-3.319 13.339-8.161-2.052 1.055-21.232-18.126-20.178-20.178z" fill="#4980ac"/><path d="m75.315 402.379c-2.466 0-4.787.606-6.839 1.661-1.055 2.052-1.661 4.373-1.661 6.839 0 8.284 6.716 15 15 15 2.466 0 4.787-.606 6.839-1.661 1.055-2.052 1.661-4.373 1.661-6.839 0-8.284-6.715-15-15-15z" fill="#81a9c8"/><path d="m383.68 280.172c-4.842 2.488-8.161 7.521-8.161 13.339 0 8.284 6.716 15 15 15 5.818 0 10.851-3.319 13.339-8.161-2.052 1.055-21.232-18.126-20.178-20.178z" fill="#4980ac"/><path d="m390.519 278.511c-2.466 0-4.787.606-6.839 1.661-1.055 2.052-1.661 4.373-1.661 6.839 0 8.284 6.716 15 15 15 2.466 0 4.787-.606 6.839-1.661 1.055-2.052 1.661-4.373 1.661-6.839 0-8.284-6.715-15-15-15z" fill="#81a9c8"/><path d="m448.296 188.254c-4.842 2.488-8.161 7.521-8.161 13.339 0 8.284 6.716 15 15 15 5.818 0 10.851-3.319 13.339-8.161-2.052 1.055-21.233-18.126-20.178-20.178z" fill="#4980ac"/><path d="m455.135 186.593c-2.466 0-4.787.606-6.839 1.661-1.055 2.052-1.661 4.373-1.661 6.839 0 8.284 6.716 15 15 15 2.466 0 4.787-.606 6.839-1.661 1.055-2.052 1.661-4.373 1.661-6.839 0-8.284-6.716-15-15-15z" fill="#81a9c8"/><path d="m122.575 218.975c-4.842 2.488-8.161 7.521-8.161 13.339 0 8.284 6.716 15 15 15 5.818 0 10.851-3.319 13.339-8.161-2.052 1.055-21.233-18.125-20.178-20.178z" fill="#4980ac"/><path d="m129.414 217.314c-2.466 0-4.787.606-6.839 1.661-1.055 2.052-1.661 4.373-1.661 6.839 0 8.284 6.716 15 15 15 2.466 0 4.787-.606 6.839-1.661 1.055-2.052 1.661-4.373 1.661-6.839 0-8.284-6.715-15-15-15z" fill="#81a9c8"/><path d="m50.029 54.712c-4.842 2.488-8.161 7.521-8.161 13.339 0 8.284 6.716 15 15 15 5.818 0 10.851-3.319 13.339-8.161-2.051 1.055-21.232-18.125-20.178-20.178z" fill="#4980ac"/><path d="m56.869 53.052c-2.466 0-4.787.606-6.839 1.661-1.055 2.052-1.661 4.373-1.661 6.839 0 8.284 6.716 15 15 15 2.466 0 4.787-.606 6.839-1.661 1.055-2.052 1.661-4.373 1.661-6.839 0-8.285-6.716-15-15-15z" fill="#81a9c8"/><path d="m256.002 176.494-86.588 69.991c0 5.359 2.859 10.311 7.5 12.99l71.588 41.331c4.641 2.679 10.359 2.679 15 0l71.588-41.331c4.641-2.679 7.5-7.631 7.5-12.99z" fill="#4980ac"/><path d="m256.002 80.442c-2.59 0-5.179.67-7.5 2.01l-71.588 41.331c-4.641 2.679-7.5 7.631-7.5 12.99v109.711l86.588-49.991z" fill="#7dc03a"/><path d="m189.835 229.979c.948 3.954 3.471 7.413 7.08 9.497l71.588 41.331c4.641 2.679 10.359 2.679 15 0l59.081-34.11c.001-.071.007-.141.007-.211l-86.588-69.991z" fill="#81a9c8"/><path d="m342.59 136.773c0-5.359-2.859-10.311-7.5-12.99l-71.588-41.331c-2.321-1.34-4.91-2.01-7.5-2.01l-17.565 105.91 104.153 60.132z" fill="#bcd1e1"/><path d="m189.421 116.562c-.001.071-.007.141-.007.211v109.711c0 2.618.686 5.136 1.925 7.342l64.663-37.333v-116.051c-2.59 0-5.179.67-7.5 2.01z" fill="#9cd169"/></g><g><path d="m386.382 512.003c-1.272 0-2.562-.324-3.743-1.006-3.587-2.071-4.816-6.658-2.745-10.245l48.135-83.373-42.119-72.952-90.848-10.544v4.95l32.916 19.004c3.935-3.368 9.04-5.404 14.612-5.404 12.406 0 22.5 10.093 22.5 22.5 0 9.778-6.27 18.12-15 21.215v65.595c0 2.68-1.43 5.155-3.75 6.495l-74.063 42.76c-3.585 2.072-8.175.843-10.245-2.745-2.071-3.587-.842-8.174 2.745-10.245l70.313-40.595v-61.265c-8.73-3.095-15-11.437-15-21.215 0-1.404.13-2.779.377-4.112l-27.541-15.9c-3.239 8.017-10.094 13.678-20.071 16.361-4 1.076-8.114-1.294-9.19-5.295-1.075-4 1.296-8.115 5.296-9.19 7.845-2.109 11.068-6.03 11.102-13.517-.002-.086-.002-.173 0-.26v-43.112l-12.81 7.396c-6.94 4.007-15.562 4.006-22.5 0l-12.81-7.396v43.112c.002.087.002.173 0 .26.033 7.488 3.258 11.408 11.104 13.518 4 1.075 6.371 5.19 5.296 9.19-1.076 4-5.189 6.371-9.19 5.295-9.979-2.682-16.833-8.344-20.073-16.361l-42.164 24.343v58.149l70.313 40.595c3.587 2.071 4.816 6.658 2.745 10.245-2.07 3.586-6.657 4.816-10.245 2.745l-74.063-42.76c-2.32-1.34-3.75-3.815-3.75-6.495v-66.81c0-2.68 1.43-5.155 3.75-6.495l51.278-29.605v-4.95l-90.848 10.544-33.683 58.34c3.367 3.935 5.403 9.04 5.403 14.612s-2.036 10.678-5.403 14.612l39.698 68.761c2.071 3.587.842 8.174-2.745 10.245-3.585 2.072-8.175.843-10.245-2.745l-39.692-68.75c-1.333.247-2.708.376-4.112.376-12.406 0-22.5-10.093-22.5-22.5s10.094-22.5 22.5-22.5c1.404 0 2.779.129 4.112.376l35.562-61.594c1.186-2.054 3.274-3.426 5.631-3.7l96.322-11.18v-6.641l-96.322-11.18c-2.124-.247-4.042-1.388-5.271-3.137l-64.615-91.918c-.888-1.263-1.364-2.769-1.364-4.313v-112.325c-8.73-3.095-15-11.437-15-21.215 0-12.407 10.094-22.5 22.5-22.5s22.5 10.093 22.5 22.5c0 9.778-6.27 18.12-15 21.215v109.954l61.318 87.228 91.255 10.592v-5.794l-72.866-41.878c-3.94 3.393-9.066 5.446-14.662 5.446-12.406 0-22.5-10.093-22.5-22.5 0-9.778 6.27-18.12 15-21.215v-76.785c0-1.316.347-2.61 1.005-3.75l73.213-126.813c2.07-3.588 6.656-4.817 10.245-2.745 3.587 2.071 4.816 6.658 2.745 10.245l-72.211 125.072v74.776c8.73 3.095 15 11.437 15 21.215 0 1.381-.125 2.735-.365 4.048l10.365 5.916v-105.506c0-8.012 4.311-15.479 11.25-19.485l71.588-41.331c6.938-4.007 15.562-4.006 22.5 0l24.104 13.917c3.587 2.071 4.816 6.658 2.745 10.245-2.07 3.588-6.66 4.815-10.245 2.745l-24.104-13.917c-2.313-1.336-5.186-1.336-7.5 0l-71.588 41.331c-2.313 1.335-3.75 3.825-3.75 6.495v96.721l60.338-34.836c3.585-2.072 8.174-.843 10.245 2.745 2.071 3.587.842 8.174-2.745 10.245l-66.83 38.584c.646 1.119 1.579 2.072 2.729 2.739.01.006.02.011.029.017l71.571 41.322c2.313 1.335 5.188 1.335 7.5 0l71.565-41.319c.013-.007.025-.014.037-.021 1.149-.667 2.082-1.62 2.728-2.738l-66.83-38.584c-3.587-2.071-4.816-6.658-2.745-10.245 2.07-3.587 6.656-4.817 10.245-2.745l60.338 34.836v-96.721c0-2.67-1.438-5.16-3.75-6.495l-21.507-12.416c-3.587-2.071-4.816-6.658-2.745-10.245 2.07-3.587 6.656-4.818 10.245-2.745l21.507 12.417c6.939 4.007 11.25 11.473 11.25 19.485v105.485l25-14.295v-91.639l-72.21-125.073c-2.071-3.587-.842-8.174 2.745-10.245 3.585-2.072 8.174-.843 10.245 2.745l73.216 126.812c.658 1.14 1.005 2.434 1.005 3.75v98c0 2.69-1.441 5.175-3.777 6.511l-91.251 52.421v5.794l73.519-8.533c2.282-10.006 11.253-17.496 21.939-17.496 2.101 0 4.136.29 6.065.831l40.22-57.214c-2.625-3.68-4.17-8.18-4.17-13.035 0-9.778 6.27-18.12 15-21.215v-127.326c0-4.142 3.357-7.5 7.5-7.5s7.5 3.358 7.5 7.5v127.327c8.73 3.095 15 11.437 15 21.215 0 12.407-10.094 22.5-22.5 22.5-2.101 0-4.135-.289-6.064-.83l-40.22 57.214c2.623 3.68 4.169 8.18 4.169 13.034 0 12.407-10.094 22.5-22.5 22.5-8.858 0-16.537-5.146-20.205-12.604l-75.253 8.734v6.641l96.322 11.18c2.356.274 4.445 1.646 5.631 3.7l46.169 79.967c1.34 2.32 1.34 5.18 0 7.5l-50.3 87.123c-1.389 2.405-3.91 3.75-6.502 3.75zm-311.067-102.124c-4.136 0-7.5 3.364-7.5 7.5s3.364 7.5 7.5 7.5 7.5-3.364 7.5-7.5c0-2.751-1.489-5.162-3.704-6.467-.016-.009-.031-.018-.047-.027-.02-.011-.038-.022-.058-.033-1.089-.619-2.35-.973-3.691-.973zm267.275-42.447c-4.136 0-7.5 3.364-7.5 7.5 0 4.135 3.364 7.5 7.5 7.5s7.5-3.365 7.5-7.5c0-4.136-3.364-7.5-7.5-7.5zm40.498-72.905c.498 3.657 3.641 6.484 7.432 6.484 4.136 0 7.5-3.365 7.5-7.5 0-2.522-1.251-4.757-3.165-6.118-.008-.005-.016-.01-.023-.016-.01-.007-.021-.015-.031-.022-1.214-.847-2.69-1.345-4.28-1.345-4.136 0-7.5 3.364-7.5 7.5 0 .242.012.482.034.718.007.049.013.097.019.146.004.052.009.103.014.153zm-253.674-69.713c-4.136 0-7.5 3.364-7.5 7.5s3.364 7.5 7.5 7.5 7.5-3.364 7.5-7.5-3.364-7.5-7.5-7.5zm321.475-17.042c1.208.833 2.671 1.321 4.246 1.321 4.136 0 7.5-3.364 7.5-7.5 0-4.135-3.364-7.5-7.5-7.5s-7.5 3.365-7.5 7.5c0 2.507 1.237 4.731 3.133 6.094.019.013.037.026.057.039.021.016.042.031.064.046zm-394.02-147.22c-4.136 0-7.5 3.364-7.5 7.5s3.364 7.5 7.5 7.5 7.5-3.364 7.5-7.5-3.364-7.5-7.5-7.5z"/></g></g></svg>