<svg id="Capa_1" enable-background="new 0 0 512 512" height="512" viewBox="0 0 512 512" width="512" xmlns="http://www.w3.org/2000/svg"><g><g><path d="m350.874 432.65-81.64-115.005-201.82 43.155c0 83.36 56.82 129.7 108.82 129.7 52.209 0 74.605-18.2 74.605-18.2l107.113-19.98c-2.11-6.34-4.464-12.954-7.078-19.67z" fill="#de5791"/><path d="m290.554 452.32c-6.251 0-11.818-3.891-14.04-9.733-16.495-43.368-45.789-61.787-99.1-61.787-2.244 0-29.417 0-58.342 0 3.83 21.881 14.693 40.16 36.482 40.16 24.84 0 38.341 10.859 46.249 24.84 11.996 21.208 15.216 26.5 49.036 26.5h20l7.594 22.079c2.083 6.056 7.78 10.121 14.184 10.121h70.139c4.827 0 8.396-4.487 7.308-9.189-2.171-9.38-6.151-25.075-12.112-42.991z" fill="#e592b8"/><path d="m293.267 414.745s-7.77 0-20.116 0c-25.535 0-45.238-24.486-34.566-48.971h54.682z" fill="#a71e6a"/><path d="m67.414 360.8c-23.189 0-47.464-10-50-10 0-34.812-7.28-56.885-2.046-86.29 31.433-176.598 153.535-257.01 321.626-257.01 20.52 0 55.831 5.022 55.831 5.022z" fill="#a2abb8"/><path d="m152.97 126.939c-17.195 17.195-88.278 88.278-137.576 137.576-4.461 25.038-7.111 51.997-7.8 80.947-.2 8.412 6.587 15.339 15.002 15.339h44.817l191.3-204.743c-2.999-14.062-87.502-47.36-105.743-29.119z" fill="#7e8b96"/><path d="m257.849 72.969c-90.581 22.473-190.435 93.739-190.435 287.831h50c0-185.645 66.647-258.975 140.435-287.831z" fill="#c8d2dc"/><path d="m429.902 256 30.884-74.614-97.469-97.469s56.977-56.976 63.456-63.456c6.48-6.48 1.88-12.96-4.6-12.96-19.372 0-37.713 5.273-52.761 20.321-10.277 10.277-17.182 17.182-36.096 36.096-22.424 0-48.537 2.368-75.469 9.05-90.579 22.471-140.433 93.741-140.433 287.832h80c53.311 0 82.605 18.419 99.1 61.787 2.222 5.842 7.79 9.733 14.04 9.733h68.842c4.787 0 8.35-4.431 7.333-9.109-18.487-84.962-73.9-122.411-73.9-122.411v-38.758c14.326 5.068 32.876 7.937 59.366 7.937z" fill="#e9edf1"/><path d="m479.109 199.708c-3.661-3.661-10.182-10.182-18.322-18.322-16.708 16.708-49.452 49.452-88.593 88.593 0 0 10.678 14.568 26.715 30.605s34.196 14.68 45.651 3.224c10.314 10.314 27.676 8.16 39.131-3.295 38.947-38.948 14.51-81.713-4.582-100.805z" fill="#c8d2dc"/></g><g><path d="m372.05 512c-3.524 0-6.666-2.495-7.357-6.084-.063-.325-6.143-31.517-19.108-66.097h-35.031c-9.277 0-17.737-5.854-21.051-14.566-.387-1.018-.781-2.021-1.183-3.008h-15.169c-15.351 0-29.525-7.4-37.917-19.795-6.358-9.391-8.499-20.485-6.212-31.309-9.346-1.926-19.832-2.841-31.608-2.841h-174.824c-12.407 0-22.499-10.093-22.496-22.978.016-78.7 18.119-145.52 48.34-198.668 28.898-50.825 70.454-89.116 123.512-113.81 3.755-1.748 8.216-.12 9.964 3.635s.12 8.216-3.635 9.964c-56.515 26.303-99.002 69.2-126.46 126.856h52.962c10.194-16.651 22.111-31.659 35.747-45h-29.11c-4.142 0-7.5-3.358-7.5-7.5s3.358-7.5 7.5-7.5h46.037c.525-.422 1.051-.84 1.582-1.257 59.808-47.129 131.675-55.218 171.163-55.61l33.915-33.915c1.864-1.864 3.801-3.615 5.807-5.249-10.816-1.161-23.577-2.268-32.924-2.268-46.978 0-89.935 6.423-127.676 19.091-3.93 1.317-8.179-.797-9.497-4.724s.797-8.179 4.724-9.497c39.282-13.184 83.845-19.87 132.449-19.87 18.207 0 47.146 3.765 55.087 4.848 9.127-3.225 19.176-4.848 30.093-4.848 6.379 0 11.957 3.513 14.208 8.949 2.294 5.539.685 11.825-4.305 16.814l-58.153 58.153 110.488 110.488c6.274 6.274 21.378 23.392 26.104 46.774 4.743 23.464-2.699 45.815-21.522 64.637-12.954 12.954-31.205 15.721-44.3 7.609-13.248 9.174-33.173 10.376-51.087-7.538-12.071-12.07-21.108-23.23-25.146-28.428-19.865-.209-35.411-2.099-48.132-5.347v24.894c12.633 9.747 57.222 48.749 73.728 124.611.97 4.46-.116 9.058-2.981 12.613-2.863 3.553-7.12 5.59-11.68 5.59h-17.829c12.073 33.523 17.606 61.959 17.857 63.265.781 4.067-1.882 7.997-5.949 8.779-.479.093-.955.137-1.425.137zm-297.086-158.7h122.45c28.319 0 50.343 5.158 67.33 15.77 17.157 10.718 29.842 27.351 38.78 50.851 1.114 2.93 3.94 4.899 7.03 4.899h68.841c-4.803-22.082-12.23-40.869-20.5-56.52h-46.066c-4.142 0-7.5-3.358-7.5-7.5s3.358-7.5 7.5-7.5h37.334c-19.99-31.287-41.21-46.065-41.545-46.294-2.05-1.397-3.289-3.726-3.289-6.206v-33.619c-16.768-6.917-28.041-16.9-39.793-28.653-2.929-2.929-2.929-7.678 0-10.606s7.678-2.93 10.606 0c21.11 21.111 38.065 34.08 92.958 34.544l67.791-67.79c2.929-2.929 7.678-2.929 10.606 0 2.929 2.929 2.929 7.678 0 10.606l-65.328 65.328c4.398 5.507 12.216 14.843 22.043 24.671 9.499 9.499 20.05 12.153 28.924 7.711l-23.396-23.396c-2.929-2.929-2.929-7.678 0-10.606 2.929-2.929 7.678-2.929 10.606 0l29.515 29.515c4.235 4.235 9.465 4.703 13.114 4.354 5.458-.527 11.076-3.315 15.41-7.649 15.315-15.315 21.178-32.494 17.426-51.059-3.917-19.379-16.696-33.827-22.008-39.14l-110.486-110.488s-1.338 1.338-1.681 1.68c-2.924 2.924-7.682 2.924-10.606 0s-2.925-7.681 0-10.606 70.44-70.44 70.44-70.44c.053-.053.104-.105.151-.155-19.476.11-34.824 6.041-46.905 18.123l-36.095 36.095c-.058.059-.117.116-.177.172-.005.004-.009.009-.014.013-.001.001-.003.003-.004.004-.003.003-.006.006-.01.009-.003.003-.006.005-.009.008-.001.001-.003.003-.005.005-.005.004-.009.009-.014.013 0 0-.001.001-.001.001-1.324 1.214-3.086 1.959-5.021 1.971-.015 0-.03 0-.046 0-37.207 0-98.027 6.46-151.323 41.883h93.239c4.142 0 7.5 3.358 7.5 7.5s-3.358 7.5-7.5 7.5h-113.188c-14.452 12.262-27.968 27.086-39.85 45h79.48c4.142 0 7.5 3.358 7.5 7.5s-3.358 7.5-7.5 7.5h-88.622c-7.51 13.432-14.154 28.375-19.71 45h118.887c4.142 0 7.5 3.358 7.5 7.5s-3.358 7.5-7.5 7.5h-123.47c-3.863 13.897-7.008 28.871-9.316 45h89.787c4.142 0 7.5 3.358 7.5 7.5s-3.358 7.5-7.5 7.5h-91.655c-1.508 14.155-2.401 29.129-2.615 45.001zm168.528 21.974c-1.126 6.538.287 13.042 4.163 18.766 5.598 8.268 15.129 13.205 25.497 13.205h7.814c-9.135-15.428-21.21-25.828-37.474-31.971zm-226.309-66.974c-1.092 12.121-2.094 24.581-2.093 37.376 0 4.259 3.364 7.624 7.5 7.624h37.373c.206-15.575 1.058-30.577 2.552-45zm1.573-15h45.574c2.186-15.735 5.18-30.74 8.981-45h-22.897c-4.142 0-7.5-3.358-7.5-7.5s3.358-7.5 7.5-7.5h27.279c5.106-16.019 11.308-31.024 18.599-45h-51.144c-12.903 31.168-21.745 66.244-26.392 105zm325.158 218.7h-51.296c-9.604 0-18.154-6.102-21.277-15.183l-5.853-17.018h-12.262c-7.273 4.821-31.552 18.2-76.992 18.2-25.202 0-50.347-9.834-70.802-27.691-22.32-19.485-37.143-46.709-42.866-78.73-.729-4.077 1.986-7.974 6.063-8.702 4.074-.734 7.973 1.985 8.702 6.063 11.037 61.752 58.108 94.061 98.902 94.061 19.798 0 35.066-2.745 46.211-6-13.07-3.829-18.432-12.058-27.17-27.508-8.117-14.349-20.738-21.032-39.721-21.032-4.142 0-7.5-3.358-7.5-7.5s3.358-7.5 7.5-7.5c24.268 0 42.024 9.638 52.777 28.647 11.375 20.109 12.836 22.692 42.508 22.692h20c3.202 0 6.051 2.033 7.092 5.061l7.594 22.079c1.041 3.027 3.891 5.061 7.092 5.061h9.786l-7.656-22.261c-1.347-3.917.736-8.185 4.653-9.532 3.919-1.347 8.185.736 9.532 4.653l9.334 27.14h15.138l-7.656-22.261c-1.347-3.917.736-8.185 4.653-9.532 3.919-1.347 8.185.736 9.532 4.653l11.075 32.2c.788 2.292.42 4.823-.987 6.796s-3.683 3.144-6.106 3.144zm-111.681-203.7h-30.431c-4.142 0-7.5-3.358-7.5-7.5s3.358-7.5 7.5-7.5h30.431c4.142 0 7.5 3.358 7.5 7.5s-3.357 7.5-7.5 7.5zm233.83-31.9c-3.547-2.14-4.687-6.75-2.547-10.296 4.044-6.704 3.731-11.855 2.891-16.011-.82-4.06 1.806-8.017 5.866-8.837 4.063-.818 8.017 1.807 8.837 5.866 1.921 9.505.367 18.249-4.751 26.731-2.137 3.541-6.755 4.683-10.296 2.547zm-92.4-85.848c-4.142 0-7.5-3.358-7.5-7.5v-30c0-4.142 3.358-7.5 7.5-7.5s7.5 3.358 7.5 7.5v30c0 4.142-3.358 7.5-7.5 7.5z"/></g></g></svg>