<svg id="Capa_1" enable-background="new 0 0 512 512" height="512" viewBox="0 0 512 512" width="512" xmlns="http://www.w3.org/2000/svg"><g><g><path d="m7.5 460.25c0 8.25 6.75 15 15 15h467c8.25 0 15-6.75 15-15v-5l-248.5-32.956-248.5 22.956z" fill="#a2abb8"/><path d="m27.5 95.25h-5c-8.25 0-15 6.75-15 15v46l248.5 22.956z" fill="#a2abb8"/><path d="m27.834 443.372c1.447 6.764 7.486 11.878 14.666 11.878h462v-10l-248.5-22.956z" fill="#c8d2dc"/><path d="m27.5 158.098 228.5 21.108 248.5-22.956v-46c0-8.25-6.75-15-15-15h-462z" fill="#c8d2dc"/><path d="m28.38 445.25h-20.88v-46.309c10.44-18.411 0-75 0-75v-45c10.44-28.371 0-75 0-75v-47.691h20z" fill="#bcd1e1"/><path d="m27.5 204.902c-6.488-.602-13.13-.961-20-.961v75c6.87 0 13.512-.358 20-.961l10-48.752z" fill="#dce7ef"/><path d="m7.5 398.941c6.87 0 13.512-.358 20-.961l10-33.291-10-39.788c-6.488-.602-13.13-.961-20-.961z" fill="#81a9c8"/><path d="m27.5 440.25c0 1.754.321 3.432.88 5h476.12v-289h-477v48.652s14.86 44.689 0 73.079v46.921s15.58 48.765 0 73.079z" fill="#dce7ef"/><path d="m131.749 263.941c44.584 0 79.666 15 124.249 15s79.666-15 124.249-15 79.666 15 124.249 15v-75c-44.584 0-79.666 15-124.249 15s-79.666-15-124.249-15-79.666 15-124.249 15c-37.714 0-68.63-10.732-104.249-14.039v73.079c35.619-3.308 66.535-14.04 104.249-14.04z" fill="#f7f9fa"/><path d="m131.749 383.941c44.584 0 79.666 15 124.249 15s79.666-15 124.249-15 79.666 15 124.249 15v-75c-44.584 0-79.666 15-124.249 15s-79.666-15-124.249-15-79.666 15-124.249 15c-37.714 0-68.63-10.732-104.249-14.039v73.079c35.619-3.308 66.535-14.04 104.249-14.04z" fill="#bcd1e1"/></g><g><path d="m489.5 482.75h-467c-12.407 0-22.5-10.093-22.5-22.5v-274c0-4.142 3.358-7.5 7.5-7.5s7.5 3.358 7.5 7.5v10.327c20.013.716 38.282 4.156 56.012 7.494 20.131 3.791 39.145 7.371 60.737 7.371s40.606-3.58 60.737-7.371c10.725-2.02 21.815-4.108 33.21-5.571 4.116-.528 7.867 2.375 8.395 6.484s-2.375 7.866-6.483 8.394c-10.961 1.408-21.833 3.455-32.346 5.434-19.921 3.751-40.521 7.63-63.513 7.63s-43.591-3.878-63.513-7.629c-17.77-3.346-34.667-6.528-53.237-7.228v59.715c18.57-.7 35.467-3.882 53.237-7.228 19.921-3.751 40.521-7.629 63.513-7.629s43.591 3.878 63.512 7.629c13.184 2.482 25.89 4.875 39.153 6.23-.595-2.017-.915-4.152-.915-6.359 0-9.778 6.27-18.12 15-21.215v-38.634c-.001-.051-.001-.101-.001-.151s0-.101.001-.151v-40.042h-240.999c-4.142 0-7.5-3.358-7.5-7.5v-46c0-12.407 10.093-22.5 22.5-22.5h226v-51c0-4.142 3.358-7.5 7.5-7.5s7.5 3.358 7.5 7.5v51h120c4.142 0 7.5 3.358 7.5 7.5s-3.358 7.5-7.5 7.5h-361c-4.136 0-7.5 3.364-7.5 7.5v38.5h482v-38.5c0-4.136-3.364-7.5-7.5-7.5h-76c-4.142 0-7.5-3.358-7.5-7.5s3.358-7.5 7.5-7.5h76c12.407 0 22.5 10.093 22.5 22.5v350c0 12.407-10.093 22.5-22.5 22.5zm-474.5-30v7.5c0 4.136 3.364 7.5 7.5 7.5h467c4.136 0 7.5-3.364 7.5-7.5v-7.5zm0-15h482v-31.334c-21.701-.339-41.299-4.029-60.284-7.604-20.131-3.791-39.145-7.371-60.737-7.371-17.409 0-33.632 2.462-47.205 4.872-4.072.726-7.971-1.995-8.695-6.074-.724-4.078 1.996-7.971 6.074-8.695 14.216-2.523 31.252-5.102 49.826-5.102 22.992 0 43.591 3.878 63.512 7.629 19.122 3.601 37.235 7.011 57.509 7.344v-59.832c-18.57.701-35.471 3.883-53.24 7.229-19.921 3.751-40.521 7.629-63.512 7.629s-43.591-3.878-63.512-7.629c-6.748-1.271-13.62-2.564-20.591-3.703 6.517 9.908 11.482 21.674 11.482 37.183 0 28.07-22.677 50.058-51.627 50.058-28.467 0-51.627-23.16-51.627-51.627 0-2.657 1.406-5.116 3.697-6.464 2.29-1.348 5.123-1.383 7.445-.092l14.915 8.286c3.621 2.012 4.926 6.578 2.914 10.198-2.011 3.621-6.579 4.925-10.198 2.914l-.831-.461c5.6 13.068 18.591 22.247 33.686 22.247 20.539 0 36.627-15.399 36.627-35.058 0-33.642-40.587-55.242-43.672-85.97-20.192-.68-38.604-4.146-56.469-7.51-20.131-3.791-39.145-7.371-60.737-7.371s-40.606 3.58-60.737 7.371c-17.73 3.338-35.999 6.778-56.012 7.494v30.271c20.013.716 38.282 4.156 56.012 7.494 20.131 3.791 39.145 7.371 60.737 7.371 21.591 0 40.605-3.58 60.736-7.371 15.298-2.88 31.117-5.859 47.98-7.063 4.133-.3 7.72 2.814 8.015 6.947.295 4.131-2.815 7.72-6.947 8.015-16.003 1.143-31.392 4.041-46.273 6.843-19.921 3.751-40.521 7.629-63.512 7.629-22.992 0-43.591-3.878-63.513-7.629-17.77-3.346-34.667-6.528-53.237-7.228v59.715c18.57-.7 35.467-3.882 53.237-7.228 19.921-3.751 40.521-7.629 63.513-7.629 20.439 0 38.997 3.097 54.786 5.999 4.074.749 6.77 4.659 6.021 8.732s-4.655 6.771-8.732 6.021c-15.139-2.783-32.896-5.752-52.074-5.752-21.592 0-40.606 3.58-60.737 7.371-17.73 3.338-35.999 6.778-56.012 7.494v31.441zm267.792-119.679c12.686 1.475 24.889 3.773 36.719 6 20.13 3.791 39.145 7.371 60.736 7.371s40.606-3.58 60.737-7.371c17.731-3.338 36-6.778 56.015-7.494v-30.271c-20.015-.716-38.284-4.156-56.015-7.494-20.131-3.791-39.145-7.371-60.737-7.371s-40.606 3.58-60.737 7.371c-17.544 3.303-35.616 6.706-55.383 7.471 2.204 12.491 9.919 21.567 18.665 31.788zm-26.792-61.63c-4.136 0-7.5 3.365-7.5 7.5 0 4.136 3.364 7.5 7.5 7.5-.001 0-.001 0-.001 0 4.137 0 7.501-3.365 7.501-7.5s-3.364-7.5-7.5-7.5zm124.248 0c22.992 0 43.591 3.878 63.512 7.629 17.769 3.346 34.67 6.528 53.24 7.229v-59.716c-18.57.701-35.471 3.883-53.24 7.229-19.921 3.751-40.521 7.629-63.512 7.629s-43.591-3.878-63.513-7.629c-17.768-3.346-34.667-6.527-53.235-7.228v31.143c8.73 3.095 15 11.437 15 21.215 0 2.208-.32 4.342-.915 6.359 13.263-1.355 25.968-3.748 39.15-6.23 19.922-3.751 40.521-7.63 63.513-7.63zm-116.748-59.864c20.013.716 38.281 4.156 56.011 7.494 20.13 3.791 39.145 7.371 60.737 7.371s40.606-3.58 60.737-7.371c17.731-3.338 36-6.778 56.015-7.494v-32.827h-233.5zm210.5-62.827c-4.411 0-8-3.589-8-8s3.589-8 8-8 8 3.589 8 8-3.589 8-8 8zm-30 0c-4.411 0-8-3.589-8-8s3.589-8 8-8 8 3.589 8 8-3.589 8-8 8zm-30 0c-4.411 0-8-3.589-8-8s3.589-8 8-8 8 3.589 8 8-3.589 8-8 8z"/></g></g></svg>