<svg id="Capa_1" enable-background="new 0 0 511.999 511.999" height="512" viewBox="0 0 511.999 511.999" width="512" xmlns="http://www.w3.org/2000/svg"><g><g><path d="m67.249 74.65c-4.081 2.174-7.993 4.371-11.687 6.587-2 1.2-3.062 3.864-3.062 6.567 0 34.312 14.549 234.628 56.206 310.688 24.8 45.282 106.519 93.51 145.806 105.778.489.153.988.229 1.488.229.499 0 .999-.076 1.487-.229 5.965-1.862 12.911-4.558 20.484-7.942-6.088-1.98-210.644-416.069-210.722-421.678z" fill="#ffd064"/><path d="m403.294 398.492c41.656-76.061 56.206-276.376 56.206-310.689 0-2.703-1.062-5.367-3.062-6.567-62.561-37.535-185.711-69.664-199.02-73.533-.936-.272-1.901-.272-2.838 0-12.522 3.641-122.291 32.304-187.331 66.947.078 5.609.175 11.295.296 16.957.925 43.268 16.022 229.759 54.317 299.68 22.263 40.649 97.517 85.129 134.138 97.687 8.621 2.956 15.883 5.375 21.971 7.355 42.309-18.907 104.287-59.43 125.323-97.837z" fill="#fff0af"/><path d="m90.48 189.989c3.852 32.962 24.279 57.215 15.94 102.381 7.6 37.11 17.093 70.502 28.597 91.508 2.362 4.313 5.574 8.806 9.458 13.389 61.725 10.856 77.968 62.785 111.525 75.565 33.542-12.775 86.448-46.017 111.482-75.536-29.487 25.432-263.422-277.422-264.655-306.646l-.18-.119c-7.646 3.456-14.215 6.669-19.833 9.619.835 20.059 3.352 52.918 7.666 89.839z" fill="#4980ac"/><path d="m102.647 90.531c.976 23.128 4.343 63.129 9.912 106.614l-22.078-7.155c3.852 32.963 9.137 69.159 15.94 102.381l20.786-6.776c8.006 38.763 16.83 68.438 27.81 88.487.835 1.525 1.82 3.073 2.925 4.635l-13.465 18.547c25.022 29.527 77.963 62.788 111.522 75.569v-24.683c.039-.016 81.995-25.421 111.481-50.852.279-.328 30.497-67.815 38.097-104.926 6.803-33.22 12.088-69.419 15.94-102.381 4.314-36.921-21.501-104.035-44.449-112.859-29.299-11.269-68.554-24.332-121.068-38.881-52.512 14.548-72.12 49.552-121.07 38.879-12.488 4.802-23.155 9.275-32.283 13.401z" fill="#81a9c8"/><path d="m421.518 189.989c4.315-36.92 6.832-69.781 7.668-89.84-12.324-6.472-29.169-14.195-52.116-23.019l-219.127 301.587c18.486 26.135 72.792 56.854 98.057 69.432h.001v-409.898c-52.513 14.548-91.767 27.612-121.07 38.88l232.59 320.133c3.883-4.582 7.1-9.074 9.461-13.385 11.504-21.006 20.997-54.399 28.596-91.508l-293.019-95.226c1.468 11.461 3.099 23.17 4.901 34.891 3.171 19.435 6.388 37.291 9.748 53.559z" fill="#bcd1e1"/><path d="m186.4 266.324c1.389 4.276 65.148 50.567 69.6 50.567 4.496 0 68.224-46.334 69.599-50.567 1.389-4.276-22.983-79.203-26.585-81.819-3.637-2.643-82.429-2.616-86.03 0-3.637 2.643-27.959 77.586-26.584 81.819z" fill="#e592b8"/><path d="m212.965 257.693 16.438-50.59s-30.924-42.468-31.226-42.919c-2.15 1.591-8.789 9.96-15.774 19.398-9.139 12.348-8.872 26.526-9.917 29.744-1.867 5.745-11.848 55.081-10 60.77.005.015.013.034.018.05 1.998-.737 50.461-16.453 50.461-16.453z" fill="#de5791"/><path d="m182.403 183.581c-9.14 12.349-18.872 26.526-19.918 29.744-1.867 5.745-1.848 55.081 0 60.769.005.014.015.035.02.05.844-.311 9.412-3.461 19.261-6.929-1.742-7.757-1.292-77.696.637-83.634z" fill="#da0b62"/><path d="m313.795 164.161-31.198 42.941 16.438 50.59 50.48 16.402c1.867-5.745 1.848-55.081 0-60.77-1.867-5.744-30.881-45.647-35.72-49.163z" fill="#de5791"/><path d="m349.458 274.136s-47.947-17.705-50.423-16.443c-2.452 1.25-40.255 31.267-43.035 31.267l-5.873 8.972 5.873 44.105c6.041 0 42.957-15.263 47.795-18.779 2.704-1.965 22.77-15.055 31.535-27.319 7.075-9.9 13.302-19.263 14.128-21.803z" fill="#f9c8dc"/><path d="m256 321.466v20.571c6.041 0 52.957-15.263 57.795-18.779 2.702-1.963 12.768-15.045 21.544-27.313-9.736 4.951-73.471 25.493-79.339 25.521z" fill="#e592b8"/><path d="m313.795 164.161c-4.887-3.551-51.814-18.779-57.795-18.779-6.041 0-52.957 15.263-57.795 18.779-.009.006-.019.015-.028.022.303.451 28.495 42.487 31.226 42.919 2.718.43 51.035.435 53.781 0 2.718-.43 30.611-42.941 30.611-42.941z" fill="#f9c8dc"/><path d="m212.965 257.693c-2.399-1.222-48.463 15.716-50.462 16.452 2.006 5.912 30.876 35.607 35.701 39.113 4.887 3.551 51.814 28.779 57.795 28.779v-53.078c-2.752 0-40.557-30.004-43.034-31.266z" fill="#da0b62"/><path d="m255.986 321.467c-5.981 0-42.922-13.656-45.384-15.444-2.437-1.771-26.878-32.716-28.745-38.461-.031-.096-.061-.214-.091-.346-9.849 3.467-18.417 6.618-19.261 6.929 1.995 5.898 30.873 45.607 35.7 49.114 4.887 3.551 51.814 18.779 57.795 18.779v-20.571c-.004-.001-.01 0-.014 0z" fill="#b3094e"/></g><g><path d="m256 511.999c-1.253 0-2.506-.19-3.725-.571-21.489-6.71-53.011-22.983-80.303-41.456-23.684-16.031-55.025-40.819-69.845-67.878-12.196-22.27-22.109-54.777-30.045-90.66l-25.866 8.418 4.244 13.04c1.282 3.939-.872 8.171-4.811 9.453-3.94 1.283-8.171-.872-9.453-4.811l-13.131-40.343c-1.282-3.939.872-8.171 4.811-9.453 3.939-1.28 8.171.871 9.453 4.811l4.244 13.041 27.39-8.915c-17.238-85.378-23.963-183.957-23.963-208.872 0-5.537 2.569-10.518 6.705-12.999 38.446-23.067 104.036-47.518 194.945-72.672 2.703-.748 7.259-2.132 9.349-2.132s6.643 1.383 9.343 2.13c71.312 19.731 127.517 39.226 167.054 57.941 3.744 1.772 5.342 6.244 3.57 9.988s-6.243 5.342-9.988 3.57c-38.761-18.348-94.152-37.54-164.636-57.042-2.315-.641-4.119-1.14-5.343-1.488-1.224.349-3.029.849-5.35 1.49-110.709 30.633-164.718 55.297-190.602 70.704-.026.133-.047.306-.047.51 0 34.972 15.057 233.633 55.284 307.086 10.438 19.059 33.557 41.313 65.096 62.661 25.86 17.503 55.423 32.868 75.62 39.324 20.199-6.456 49.76-21.82 75.62-39.324 31.539-21.349 54.657-43.602 65.096-62.661 40.227-73.451 55.284-272.113 55.284-307.086 0-.233-.028-.425-.06-.564-3.044-2.275-3.932-6.531-1.935-9.861 2.131-3.552 6.738-4.705 10.289-2.574 4.136 2.48 6.705 7.461 6.705 12.999 0 24.915-6.725 123.493-23.964 208.871l27.39 8.915 4.244-13.04c1.282-3.939 5.515-6.091 9.453-4.811 3.938 1.282 6.093 5.514 4.811 9.453l-13.131 40.343c-1.282 3.939-5.515 6.094-9.453 4.811-3.938-1.282-6.093-5.514-4.811-9.453l4.244-13.04-25.866-8.419c-7.935 35.883-17.849 68.392-30.045 90.661-14.819 27.059-46.161 51.847-69.845 67.878-27.292 18.473-58.813 34.746-80.305 41.457-1.216.38-2.468.57-3.721.57zm196.573-424.335c.002.001.004.002.007.004-.003-.001-.005-.002-.007-.004zm-196.573 392.668c-.905 0-1.81-.164-2.67-.491-34.729-13.228-89.058-47.616-114.576-77.725-1.336-1.577-1.963-3.634-1.731-5.688.152-1.352.667-2.622 1.473-3.687l50.043-68.879c-8.368-9.833-22.763-29.641-29.565-40.682l-43.846 14.246c5.778 27.038 12.582 51.642 20.438 70.229 1.612 3.815-.173 8.215-3.988 9.828-3.813 1.613-8.214-.173-9.828-3.988-29.095-68.828-44.067-216.318-46.43-273.033-.121-2.897 1.439-5.604 4.007-6.953 37.701-19.797 96.47-40.821 174.671-62.486 1.309-.362 2.695-.362 4.004 0 78.209 21.667 136.977 42.691 174.671 62.486 2.567 1.348 4.127 4.055 4.006 6.952-2.684 64.432-19.786 226.156-53.119 287.02-18.922 34.55-86.607 77.779-124.89 92.36-.861.328-1.765.491-2.67.491zm7.5-132.133v113.396c31.891-14.27 72.292-41.142 94.396-64.819l-46.579-64.111c-11.976 4.929-35.251 12.491-47.817 15.534zm-109.41 48.596c22.732 24.431 63.634 50.976 94.409 64.791v-113.387c-12.565-3.044-35.841-10.605-47.816-15.534zm169.372-72.932 44.217 60.859c1.02-1.511 1.931-2.996 2.725-4.446 10.453-19.085 19.231-49.095 26.414-82.867l-43.79-14.228c-6.803 11.04-21.197 30.848-29.566 40.682zm-67.462-13.186c4.143 0 7.5 3.358 7.5 7.5v14.619c14.048-3.849 41.159-12.896 45.882-15.617 4.976-4.477 29.673-38.446 32.892-45.196.017-.055.034-.11.052-.166.028-.086.058-.172.088-.256 1.34-7.119 1.353-47.664.039-55.481-.045-.118-.088-.238-.127-.36-.049-.149-.093-.3-.131-.45-2.772-5.607-18.599-27.735-27.541-38.945-2.624 3.849-5.941 8.682-9.309 13.497-4.379 6.261-7.995 11.283-10.748 14.926-1.327 1.757-2.452 3.209-3.446 4.409l6.09 18.742c1.28 3.939-.876 8.171-4.815 9.451-3.936 1.281-8.171-.875-9.45-4.815l-5.769-17.754c-10.766.215-31.646.215-42.412 0l-5.769 17.754c-1.279 3.94-5.516 6.096-9.45 4.815-3.939-1.28-6.096-5.511-4.815-9.451l6.113-18.814c-4.161-4.851-11.034-14.256-23.546-32.738-9.151 11.476-25.497 34.367-27.699 39.302-1.122 5.271-1.35 33.526-.684 48.174 4.377-1.577 9.861-3.532 15.375-5.445 7.243-2.513 13.138-4.467 17.519-5.809 8.513-2.609 11.45-3.129 14.532-1.56 1.301.663 2.992 1.908 13.916 10.246 7.331 5.596 19.94 15.22 25.72 19.131 5.801-3.921 18.477-13.601 25.845-19.227 10.815-8.259 12.49-9.493 13.78-10.15 2.992-1.523 5.821-1.062 13.381 1.202 3.913 1.172 9.21 2.905 15.744 5.149 3.918 1.346 6.002 5.612 4.656 9.53-1.346 3.917-5.612 6.004-9.529 4.657-11.269-3.871-16.542-5.417-18.95-6.033-2.352 1.742-6.341 4.789-9.979 7.567-30.615 23.378-31.534 23.378-34.954 23.378-3.4 0-4.313 0-34.815-23.28-3.696-2.821-7.751-5.916-10.124-7.673-5.935 1.508-21.778 6.908-37.623 12.633 7.937 12.107 25.11 35.37 29.186 39.044 4.696 2.713 31.815 11.759 45.877 15.612v-14.617c-.002-4.143 3.355-7.501 7.498-7.501zm-156.687-109.933c3.343 26.836 7.602 55.199 12.797 81.892l42.2-13.712c-.992-12.869-.995-37.375-.009-50.313zm258.375 68.18 42.132 13.689c5.185-26.757 9.425-55.124 12.757-81.833l-54.879 17.832c.986 12.937.983 37.443-.01 50.312zm-34.18-105.312c8.4 9.881 22.814 29.725 29.58 40.726l61.449-19.966c3.706-32.443 5.995-61.189 6.933-79.758-10.146-5.122-23.73-11.294-41.745-18.378zm-226.149 20.726 61.552 20c6.766-11 21.18-30.845 29.581-40.726l-56.218-77.376c-18.014 7.083-31.602 13.257-41.749 18.38.972 19.611 3.233 48.068 6.834 79.722zm135.159 15.417c8.806.238 38.147.239 46.955.001 4.497-5.354 16.923-23.081 27.732-39.179.154-.282.327-.557.521-.824.146-.201.299-.392.46-.573l57.022-78.485c-25.724-9.542-58.962-20.49-101.71-32.559v91.039c6.751 1.635 16.173 4.55 24.124 7.132 3.939 1.279 6.097 5.51 4.817 9.45-1.28 3.941-5.515 6.096-9.45 4.817-15.157-4.922-24.738-7.409-27.001-7.679-5.458.578-33.104 9.332-46.62 14.462 9.539 14.026 19.281 27.799 23.15 32.398zm-85.728-119.06 53.827 74.086c11.956-4.928 35.294-12.512 47.883-15.561v-91.084c-42.751 12.07-75.984 23.017-101.71 32.559z"/></g></g></svg>