<svg id="Capa_1" enable-background="new 0 0 512 512" height="512" viewBox="0 0 512 512" width="512" xmlns="http://www.w3.org/2000/svg"><g><g><path d="m7.5 116h248.5v270h-248.5z" fill="#a2abb8"/><path d="m504.5 386-477-17.038v-236.277l477-16.685z" fill="#c8d2dc"/><path d="m504.5 411-477-42.038-20 16.685v30c0 8.25 6.75 15 15 15h467c8.25 0 15-6.75 15-15 0-2.447 0-4.647 0-4.647z" fill="#c8d2dc"/><path d="m504.5 96c0-8.25-6.75-15-15-15h-467c-8.25 0-15 6.75-15 15v20l229.282 191.274c11.13 9.285 27.306 9.285 38.435 0l229.283-191.274s0-11.2 0-20z" fill="#e9edf1"/><path d="m236.782 194.372-209.282 174.59v27.038c0 8.25 6.75 15 15 15h462c0-9.998 0-25.354 0-25.354l-229.282-191.274c-11.13-9.284-27.306-9.284-38.436 0z" fill="#e9edf1"/><path d="m22.5 81c-8.25 0-15 6.75-15 15v20l20 16.685 21.5-11.685-21.5-40z" fill="#c8d2dc"/><path d="m275.218 307.274 229.282-191.274s0-11.2 0-20c0-8.25-6.75-15-15-15h-462v51.685l209.282 174.589c11.13 9.285 27.306 9.285 38.436 0z" fill="#e9edf1"/><circle cx="246" cy="270.823" fill="#a2abb8" r="115"/><circle cx="256" cy="250.823" fill="#9cd169" r="115"/><path d="m241.388 330.012c-3.979 0-7.793-1.581-10.606-4.394l-52.06-52.06c-5.858-5.858-5.858-15.355 0-21.213s15.355-5.857 21.213 0l41.453 41.453 93.315-93.315c5.857-5.858 15.355-5.858 21.213 0s5.858 15.355 0 21.213l-103.921 103.922c-2.813 2.813-6.629 4.394-10.607 4.394z" fill="#7dc03a"/><path d="m251.388 310.012c-3.979 0-7.793-1.581-10.606-4.394l-52.06-52.06c-5.858-5.858-5.858-15.355 0-21.213s15.355-5.857 21.213 0l41.453 41.453 93.315-93.315c5.857-5.858 15.355-5.858 21.213 0s5.858 15.355 0 21.213l-103.921 103.922c-2.813 2.813-6.629 4.394-10.607 4.394z" fill="#ebf7e0"/></g><path d="m489.5 73.5h-467c-12.407 0-22.5 10.093-22.5 22.5v320c0 12.407 10.093 22.5 22.5 22.5h467c12.407 0 22.5-10.093 22.5-22.5v-230c0-4.142-3.358-7.5-7.5-7.5s-7.5 3.358-7.5 7.5v183.976l-97.32-81.186c-3.18-2.652-7.91-2.226-10.563.955s-2.226 7.91.955 10.563l106.928 89.202v26.49c0 4.136-3.364 7.5-7.5 7.5h-467c-4.136 0-7.5-3.364-7.5-7.5v-26.49l106.928-89.202c3.181-2.653 3.608-7.383.955-10.563-2.653-3.181-7.383-3.608-10.563-.955l-97.32 81.186v-237.952l119.957 100.071.011-.05c-.964 6.179-1.468 12.509-1.468 18.955 0 67.547 54.953 122.5 122.5 122.5s122.5-54.953 122.5-122.5c0-6.404-.489-12.734-1.456-18.964l.011.049 119.945-100.061v23.976c0 4.142 3.358 7.5 7.5 7.5s7.5-3.358 7.5-7.5v-60c0-12.407-10.093-22.5-22.5-22.5zm7.5 38.99-123.671 103.17.003.015c-.803-2.666-1.698-5.308-2.687-7.924l.575-.575c8.773-8.773 8.773-23.047 0-31.819-8.775-8.773-23.047-8.774-31.82-.001l-88.012 88.012-36.15-36.15c-8.773-8.773-23.047-8.773-31.819-.001-.001.001 0 0-.001.001-8.772 8.773-8.773 23.046.001 31.819l52.059 52.06c8.773 8.773 23.047 8.773 31.82 0l91.538-91.538c3.099 10.131 4.664 20.664 4.664 31.44 0 59.276-48.224 107.5-107.5 107.5s-107.5-48.223-107.5-107.499 48.224-107.5 107.5-107.5c23.905 0 46.532 7.677 65.435 22.202 3.285 2.524 7.994 1.907 10.517-1.378 2.523-3.284 1.907-7.993-1.377-10.517-21.548-16.556-47.336-25.307-74.575-25.307-55.317 0-102.18 36.859-117.339 87.305l.029-.129-123.69-103.186v-16.49c0-4.136 3.364-7.5 7.5-7.5h467c4.136 0 7.5 3.364 7.5 7.5zm-136.386 84.079-103.922 103.922c-2.924 2.924-7.682 2.924-10.607 0l-52.059-52.06c-2.924-2.925-2.924-7.682 0-10.607 2.924-2.924 7.682-2.924 10.606 0l41.453 41.453c2.929 2.929 7.678 2.929 10.607 0l93.316-93.315s0 0 .001-.001c2.923-2.923 7.681-2.923 10.605.001 2.924 2.925 2.924 7.683 0 10.607z"/></g></svg>