<svg id="Capa_1" enable-background="new 0 0 512 512" height="512" viewBox="0 0 512 512" width="512" xmlns="http://www.w3.org/2000/svg"><g><g><path d="m7.5 431c0 8.25 6.75 15 15 15h467c8.25 0 15-6.75 15-15v-5l-248.5-32.956-248.5 22.956z" fill="#a2abb8"/><path d="m27.5 66h-5c-8.25 0-15 6.75-15 15v46l248.5 22.956z" fill="#a2abb8"/><path d="m27.5 128.848 228.5 21.108 248.5-22.956v-46c0-8.25-6.75-15-15-15h-462z" fill="#c8d2dc"/><path d="m28.38 416h-20.88v-289h20z" fill="#e9edf1"/><path d="m27.834 414.122c1.447 6.764 7.486 11.878 14.666 11.878h462v-10l-248.5-22.956z" fill="#c8d2dc"/><path d="m27.5 411c0 1.754.321 3.432.88 5h476.12v-289h-477z" fill="#f7f9fa"/><path d="m474.95 127h29.55v289h-29.55z" fill="#e9edf1"/><circle cx="246" cy="290.823" fill="#a2abb8" r="115"/><circle cx="256" cy="270.823" fill="#9cd169" r="115"/><path d="m241.388 350.012c-3.979 0-7.793-1.581-10.606-4.394l-52.06-52.06c-5.858-5.858-5.858-15.355 0-21.213s15.355-5.857 21.213 0l41.453 41.453 93.315-93.315c5.857-5.858 15.355-5.858 21.213 0s5.858 15.355 0 21.213l-103.921 103.922c-2.813 2.813-6.629 4.394-10.607 4.394z" fill="#7dc03a"/><path d="m251.388 330.012c-3.979 0-7.793-1.581-10.606-4.394l-52.06-52.06c-5.858-5.858-5.858-15.355 0-21.213s15.355-5.857 21.213 0l41.453 41.453 93.315-93.315c5.857-5.858 15.355-5.858 21.213 0s5.858 15.355 0 21.213l-103.921 103.922c-2.813 2.813-6.629 4.394-10.607 4.394z" fill="#ebf7e0"/></g><g><path d="m474 104.5c-4.411 0-8-3.589-8-8s3.589-8 8-8 8 3.589 8 8-3.589 8-8 8zm-22-8c0-4.411-3.589-8-8-8s-8 3.589-8 8 3.589 8 8 8 8-3.589 8-8zm-30 0c0-4.142-3.357-7.5-7.5-7.5-.168 0-.335.005-.5.017-.165-.011-.332-.017-.5-.017-4.143 0-7.5 3.358-7.5 7.5 0 4.411 3.589 8 8 8s8-3.589 8-8zm90-15.5v350c0 12.407-10.094 22.5-22.5 22.5h-467c-12.407 0-22.5-10.093-22.5-22.5v-274c0-4.142 3.358-7.5 7.5-7.5s7.5 3.358 7.5 7.5v251.5h482v-274h-15v251.5c0 4.142-3.357 7.5-7.5 7.5s-7.5-3.358-7.5-7.5v-251.5h-459.5c-4.142 0-7.5-3.358-7.5-7.5v-46c0-12.407 10.093-22.5 22.5-22.5h361c4.143 0 7.5 3.358 7.5 7.5s-3.357 7.5-7.5 7.5h-361c-4.136 0-7.5 3.364-7.5 7.5v38.5h482v-38.5c0-4.136-3.364-7.5-7.5-7.5h-76c-4.143 0-7.5-3.358-7.5-7.5s3.357-7.5 7.5-7.5h76c12.406 0 22.5 10.093 22.5 22.5zm-141.354 146.574c5.215 13.797 7.854 28.321 7.854 43.25 0 67.547-54.953 122.5-122.5 122.5s-122.5-54.953-122.5-122.5 54.953-122.5 122.5-122.5c27.239 0 53.027 8.751 74.575 25.308 3.284 2.524 3.901 7.232 1.377 10.517-2.523 3.285-7.232 3.902-10.517 1.378-18.903-14.527-41.53-22.204-65.435-22.204-59.276 0-107.5 48.224-107.5 107.5s48.224 107.5 107.5 107.5 107.5-48.224 107.5-107.5c0-10.776-1.565-21.309-4.664-31.44l-91.538 91.538c-8.773 8.773-23.047 8.773-31.82 0l-52.059-52.06c-8.773-8.773-8.772-23.046-.001-31.819.001-.001 0 0 .001-.001 8.772-8.772 23.046-8.772 31.819.001l36.15 36.15 88.012-88.012c8.773-8.773 23.045-8.772 31.82.001 8.773 8.771 8.772 23.046 0 31.819zm-176.62 30.074c-2.924 2.924-2.924 7.682 0 10.607l52.059 52.06c2.924 2.924 7.682 2.924 10.607 0l103.922-103.922c2.924-2.924 2.924-7.682 0-10.606s-7.682-2.924-10.605-.001c0 0 0 0-.001.001l-93.316 93.315c-2.929 2.929-7.678 2.929-10.607 0l-41.453-41.453c-2.924-2.925-7.682-2.925-10.606-.001zm302.974 173.352v-7.5h-482v7.5c0 4.136 3.364 7.5 7.5 7.5h467c4.136 0 7.5-3.364 7.5-7.5z"/></g></g></svg>