<svg id="Capa_1" enable-background="new 0 0 512 512" height="512" viewBox="0 0 512 512" width="512" xmlns="http://www.w3.org/2000/svg"><g><g><path d="m407 444.5h-272c-8.25 0-15-6.75-15-15v-407c0-8.25 6.75-15 15-15h272c8.25 0 15 6.75 15 15v407c0 8.25-6.75 15-15 15z" fill="#e9edf1"/><path d="m377 474.5h-272c-8.25 0-15-6.75-15-15v-407c0-8.25 6.75-15 15-15h272c8.25 0 15 6.75 15 15v407c0 8.25-6.75 15-15 15z" fill="#c8d2dc"/><path d="m80 67.5h-5c-8.25 0-15 6.75-15 15v407c0 8.25 6.75 15 15 15h132c8.25 0 155-39.442 155-47.692v-10.153c-40.438 14.527-282-379.155-282-379.155z" fill="#c8d2dc"/><path d="m347 67.5h-267v409.5c0 4.125 3.375 7.5 7.5 7.5h139.5c6.344 0 94.562-23.318 135-37.846v-364.154c0-8.25-6.75-15-15-15z" fill="#e9edf1"/><path d="m362 279.5c0-8.25-6.75-15-15-15h-140c-8.25 0-15 6.75-15 15v210c0 8.25 6.75 15 15 15h140c8.25 0 15-6.75 15-15z" fill="#c8d2dc"/><path d="m452 249.5c0-8.25-6.75-15-15-15h-210c-8.25 0-15 6.75-15 15v210c0 8.25 6.75 15 15 15h210c8.25 0 15-6.75 15-15z" fill="#fff0af"/><path d="m287 344.324c-4.868 1.136-8.608 2.261-11.131 3.104-2.314.774-3.869 2.943-3.869 5.383v63.379c0 2.44 1.555 4.609 3.869 5.383 7.822 2.615 27.262 7.928 56.131 7.928s48.309-5.313 56.131-7.928c2.314-.774 3.869-2.943 3.869-5.383v-10.351c-5.219 2.154-105-61.515-105-61.515z" fill="#ebb044"/><path d="m388.131 347.428c-7.822-2.615-27.262-7.928-56.131-7.928-19.556 0-34.778 2.438-45 4.824v63.828s19.276 6.349 53.287 6.349c28.384 0 46.494-6.507 51.713-8.662v-53.027c0-2.441-1.555-4.61-3.869-5.384z" fill="#ffd064"/></g><g><path d="m347 512h-272c-12.406 0-22.5-10.093-22.5-22.5v-305.266c0-4.142 3.357-7.5 7.5-7.5s7.5 3.358 7.5 7.5v305.266c0 4.136 3.364 7.5 7.5 7.5h272c4.136 0 7.5-3.364 7.5-7.5v-7.5h-127.5c-12.406 0-22.5-10.093-22.5-22.5v-17.5h-84.5c-4.143 0-7.5-3.358-7.5-7.5s3.357-7.5 7.5-7.5h84.5v-25h-84.5c-4.143 0-7.5-3.358-7.5-7.5s3.357-7.5 7.5-7.5h84.5v-25h-84.5c-4.143 0-7.5-3.358-7.5-7.5s3.357-7.5 7.5-7.5h84.5v-25h-84.5c-4.143 0-7.5-3.358-7.5-7.5s3.357-7.5 7.5-7.5h84.5v-25h-84.5c-4.143 0-7.5-3.358-7.5-7.5s3.357-7.5 7.5-7.5h84.5v-17.5c0-2.628.453-5.153 1.285-7.5h-85.785c-4.143 0-7.5-3.358-7.5-7.5s3.357-7.5 7.5-7.5h234.5v-144.5c0-4.136-3.364-7.5-7.5-7.5h-272c-4.136 0-7.5 3.364-7.5 7.5v66.734c0 4.142-3.357 7.5-7.5 7.5s-7.5-3.358-7.5-7.5v-66.734c0-12.407 10.094-22.5 22.5-22.5h7.5v-7.5c0-12.407 10.094-22.5 22.5-22.5h7.5v-7.5c0-12.407 10.094-22.5 22.5-22.5h272c12.406 0 22.5 10.093 22.5 22.5v182c0 4.142-3.357 7.5-7.5 7.5s-7.5-3.358-7.5-7.5v-182c0-4.136-3.364-7.5-7.5-7.5h-272c-4.136 0-7.5 3.364-7.5 7.5v7.5h249.5c11.199 0 22.5 8.503 22.5 27.5v169.5h37.5c12.406 0 22.5 10.093 22.5 22.5v210c0 12.407-10.094 22.5-22.5 22.5h-45c-4.143 0-7.5-3.358-7.5-7.5s3.357-7.5 7.5-7.5h45c4.136 0 7.5-3.364 7.5-7.5v-210c0-4.136-3.364-7.5-7.5-7.5h-210c-4.136 0-7.5 3.364-7.5 7.5v210c0 4.136 3.364 7.5 7.5 7.5h135c4.143 0 7.5 3.358 7.5 7.5v15c0 12.407-10.094 22.5-22.5 22.5zm22.5-285h15v-169.5c0-2.932-.541-12.5-7.5-12.5h-272c-4.136 0-7.5 3.364-7.5 7.5v7.5h249.5c12.406 0 22.5 10.093 22.5 22.5zm-37.5 210c-29.274 0-49.224-5.21-58.51-8.315-5.377-1.798-8.99-6.819-8.99-12.495v-63.379c0-5.676 3.613-10.697 8.991-12.496 3.23-1.08 7.752-2.416 13.509-3.697v-34.618c0-24.813 20.187-45 45-45s45 20.187 45 45v34.618c5.757 1.282 10.278 2.617 13.51 3.698 5.377 1.798 8.99 6.819 8.99 12.495v63.379c0 5.676-3.613 10.697-8.991 12.496-9.285 3.104-29.235 8.314-58.509 8.314zm-52.5-22.133c7.665 2.434 25.915 7.133 52.5 7.133s44.836-4.699 52.5-7.133v-60.733c-7.665-2.435-25.915-7.134-52.5-7.134s-44.836 4.699-52.5 7.133zm52.5-82.867c11.455 0 21.48.797 30 1.955v-31.955c0-16.542-13.458-30-30-30s-30 13.458-30 30v31.955c8.52-1.158 18.545-1.955 30-1.955zm-30-130h-182c-4.143 0-7.5-3.358-7.5-7.5s3.357-7.5 7.5-7.5h182c4.143 0 7.5 3.358 7.5 7.5s-3.357 7.5-7.5 7.5zm0-40h-182c-4.143 0-7.5-3.358-7.5-7.5s3.357-7.5 7.5-7.5h182c4.143 0 7.5 3.358 7.5 7.5s-3.357 7.5-7.5 7.5z"/></g></g></svg>