<svg id="Capa_1" enable-background="new 0 0 512 512" height="512" viewBox="0 0 512 512" width="512" xmlns="http://www.w3.org/2000/svg"><g><g><path d="m303.5 136.992s0-2.286 0-14.492c0-38.66-31.34-70-70-70s-70 31.34-70 70v14.492l-45 7.685s0-1.758 0-22.178c0-63.513 51.487-115 115-115s115 51.487 115 115v22.178z" fill="#e9edf1"/><path d="m118.5 144.682v19.997l45-7.685s0-9.417 0-20.001c-17.471 2.15-32.514 4.902-45 7.689z" fill="#a2abb8"/><path d="m303.5 136.992v20.001l45 7.685s0-6.575 0-19.997c-12.486-2.786-27.529-5.538-45-7.689z" fill="#a2abb8"/><path d="m94.999 170.705c-3.786 1.112-7.05 2.149-9.778 3.061-6.112 2.045-10.221 7.775-10.221 14.22v281.352c0 6.445 4.109 12.175 10.221 14.219 20.662 6.909 72.017 20.943 148.279 20.943l10-195.802z" fill="#ffd064"/><path d="m392 469.338v-2.722l-158.5-157.918v195.802c76.262 0 127.617-14.034 148.279-20.943 6.112-2.044 10.221-7.774 10.221-14.219z" fill="#81a9c8"/><path d="m95 170.708v278.63c0 6.445 4.109 12.175 10.221 14.219 18.8 6.286 63.018 18.468 128.279 20.613l10-162.15-10-169.197c-66.203 0-113.622 10.574-138.5 17.885z" fill="#fff0af"/><path d="m392 466.616v-278.63c0-6.445-4.109-12.175-10.221-14.219-20.662-6.909-72.017-20.943-148.279-20.943v331.346c6.464.212 13.127.33 20 .33 66.203 0 113.622-10.574 138.5-17.884z" fill="#bcd1e1"/></g><g><path d="m233.5 512c-78.403 0-131.479-14.917-150.658-21.331-9.176-3.068-15.342-11.641-15.342-21.332v-281.351c0-9.691 6.166-18.263 15.342-21.332 6.076-2.032 15.553-4.917 28.158-7.91v-36.244c0-67.547 54.953-122.5 122.5-122.5 18.077 0 35.488 3.848 51.751 11.438 3.753 1.752 5.376 6.214 3.624 9.968-1.751 3.753-6.214 5.376-9.968 3.625-14.261-6.656-29.538-10.031-45.407-10.031-59.275 0-107.5 48.224-107.5 107.5v32.966c8.924-1.788 18.947-3.518 30-5.026v-27.94c0-42.734 34.767-77.5 77.5-77.5s77.5 34.766 77.5 77.5v27.94c11.053 1.508 21.077 3.238 30 5.026v-32.966c0-31.09-13.456-60.644-36.918-81.085-3.123-2.721-3.449-7.458-.729-10.582 2.722-3.125 7.46-3.449 10.582-.728 26.733 23.291 42.065 56.967 42.065 92.395v36.244c12.605 2.994 22.082 5.878 28.158 7.91 9.176 3.069 15.342 11.641 15.342 21.332v13.348c4.415-2.559 9.54-4.026 15-4.026 16.542 0 30 13.458 30 30v13c0 16.542-13.458 30-30 30s-30-13.458-30-30v-52.322c0-3.23-2.049-6.086-5.1-7.106-18.483-6.181-69.7-20.556-145.9-20.556s-127.417 14.375-145.9 20.556c-3.051 1.02-5.1 3.876-5.1 7.106v281.352c0 3.23 2.049 6.086 5.1 7.106 18.483 6.181 69.7 20.556 145.9 20.556s127.417-14.375 145.9-20.556c3.051-1.02 5.1-3.876 5.1-7.106v-9.056c-4.415 2.559-9.54 4.026-15 4.026-16.542 0-30-13.458-30-30v-13c0-16.542 13.458-30 30-30s30 13.458 30 30v48.03c0 9.691-6.166 18.264-15.342 21.332-19.179 6.413-72.255 21.33-150.658 21.33zm136-105.692c-8.271 0-15 6.729-15 15v13c0 8.271 6.729 15 15 15s15-6.729 15-15v-13c0-8.271-6.729-15-15-15zm30-179v13c0 8.271 6.729 15 15 15s15-6.729 15-15v-13c0-8.271-6.729-15-15-15s-15 6.729-15 15zm-166-81.985c23.108 0 44.012 1.295 62.5 3.287v-26.11c0-34.462-28.037-62.5-62.5-62.5s-62.5 28.038-62.5 62.5v26.11c18.488-1.991 39.392-3.287 62.5-3.287zm203.5 318.985c-4.143 0-7.5-3.358-7.5-7.5v-58c0-4.142 3.357-7.5 7.5-7.5s7.5 3.358 7.5 7.5v58c0 4.142-3.357 7.5-7.5 7.5zm-135 0c-4.143 0-7.5-3.358-7.5-7.5v-58c0-4.142 3.357-7.5 7.5-7.5s7.5 3.358 7.5 7.5v58c0 4.142-3.357 7.5-7.5 7.5zm-45 0c-4.143 0-7.5-3.358-7.5-7.5v-58c0-4.142 3.357-7.5 7.5-7.5s7.5 3.358 7.5 7.5v58c0 4.142-3.357 7.5-7.5 7.5zm180-97c-4.143 0-7.5-3.358-7.5-7.5v-58c0-4.142 3.357-7.5 7.5-7.5s7.5 3.358 7.5 7.5v58c0 4.142-3.357 7.5-7.5 7.5zm-45 0c-4.143 0-7.5-3.358-7.5-7.5v-58c0-4.142 3.357-7.5 7.5-7.5s7.5 3.358 7.5 7.5v58c0 4.142-3.357 7.5-7.5 7.5zm-67.5 0c-16.542 0-30-13.458-30-30v-13c0-16.542 13.458-30 30-30s30 13.458 30 30v13c0 16.542-13.458 30-30 30zm0-58c-8.271 0-15 6.729-15 15v13c0 8.271 6.729 15 15 15s15-6.729 15-15v-13c0-8.271-6.729-15-15-15zm-67.5 58c-4.143 0-7.5-3.358-7.5-7.5v-58c0-4.142 3.357-7.5 7.5-7.5s7.5 3.358 7.5 7.5v58c0 4.142-3.357 7.5-7.5 7.5zm90-97c-4.143 0-7.5-3.358-7.5-7.5v-58c0-4.142 3.357-7.5 7.5-7.5s7.5 3.358 7.5 7.5v58c0 4.142-3.357 7.5-7.5 7.5zm-67.5 0c-16.542 0-30-13.458-30-30v-13c0-16.542 13.458-30 30-30s30 13.458 30 30v13c0 16.542-13.458 30-30 30zm0-58c-8.271 0-15 6.729-15 15v13c0 8.271 6.729 15 15 15s15-6.729 15-15v-13c0-8.271-6.729-15-15-15z"/></g></g></svg>