<svg id="Capa_1" enable-background="new 0 0 512 512" height="512" viewBox="0 0 512 512" width="512" xmlns="http://www.w3.org/2000/svg"><g><g><path d="m7.5 431c0 8.25 6.75 15 15 15h467c8.25 0 15-6.75 15-15v-5l-248.5-32.956-248.5 22.956z" fill="#a2abb8"/><path d="m27.5 66h-5c-8.25 0-15 6.75-15 15v46l248.5 22.956z" fill="#a2abb8"/><path d="m27.5 128.848 228.5 21.108 248.5-22.956v-46c0-8.25-6.75-15-15-15h-462z" fill="#c8d2dc"/><path d="m28.38 416h-20.88v-289h20z" fill="#e9edf1"/><path d="m27.834 414.122c1.447 6.764 7.486 11.878 14.666 11.878h462v-10l-248.5-22.956z" fill="#c8d2dc"/><path d="m27.5 411c0 1.754.321 3.432.88 5h476.12v-289h-477z" fill="#f7f9fa"/><path d="m473.5 127h29.55v289h-29.55z" fill="#e9edf1"/><path d="m356.139 406h-220.278c-14.716 0-23.913-15.93-16.555-28.675l110.139-190.767c7.358-12.744 25.753-12.744 33.111 0l110.139 190.767c7.358 12.745-1.84 28.675-16.556 28.675z" fill="#a2abb8"/><path d="m366.139 386h-220.278c-14.716 0-23.913-15.93-16.555-28.675l110.139-190.767c7.358-12.744 25.753-12.744 33.111 0l110.139 190.767c7.358 12.745-1.84 28.675-16.556 28.675z" fill="#e592b8"/></g><g><path d="m489.5 453.5h-467c-12.407 0-22.5-10.093-22.5-22.5v-274c0-4.142 3.358-7.5 7.5-7.5s7.5 3.358 7.5 7.5v251.5h482v-274h-15v251.5c0 4.142-3.358 7.5-7.5 7.5s-7.5-3.358-7.5-7.5v-251.5h-459.5c-4.142 0-7.5-3.358-7.5-7.5v-46c0-12.407 10.093-22.5 22.5-22.5h361c4.142 0 7.5 3.358 7.5 7.5s-3.358 7.5-7.5 7.5h-361c-4.136 0-7.5 3.364-7.5 7.5v38.5h482v-38.5c0-4.136-3.364-7.5-7.5-7.5h-76c-4.142 0-7.5-3.358-7.5-7.5s3.358-7.5 7.5-7.5h76c12.407 0 22.5 10.093 22.5 22.5v350c0 12.407-10.093 22.5-22.5 22.5zm-474.5-30v7.5c0 4.136 3.364 7.5 7.5 7.5h467c4.136 0 7.5-3.364 7.5-7.5v-7.5zm351.139-30h-220.278c-9.623 0-18.24-4.975-23.051-13.309-1.057-1.831-1.882-3.739-2.474-5.691h-52.836c-4.142 0-7.5-3.358-7.5-7.5s3.358-7.5 7.5-7.5h52.766c.597-2.033 1.445-4.021 2.544-5.925l22.56-39.075h-77.87c-4.142 0-7.5-3.358-7.5-7.5s3.358-7.5 7.5-7.5h86.53l25.98-45h-112.51c-4.142 0-7.5-3.358-7.5-7.5s3.358-7.5 7.5-7.5h121.171l25.98-45h-147.151c-4.142 0-7.5-3.358-7.5-7.5s3.358-7.5 7.5-7.5h155.812l9.637-16.692c4.812-8.333 13.429-13.308 23.051-13.308s18.239 4.975 23.051 13.308l9.637 16.692h125.812c4.142 0 7.5 3.358 7.5 7.5s-3.358 7.5-7.5 7.5h-117.152l25.98 45h91.172c4.142 0 7.5 3.358 7.5 7.5s-3.358 7.5-7.5 7.5h-82.511l25.98 45h56.53c4.142 0 7.5 3.358 7.5 7.5s-3.358 7.5-7.5 7.5h-47.87l22.56 39.075c1.099 1.903 1.947 3.892 2.544 5.925h22.767c4.142 0 7.5 3.358 7.5 7.5s-3.358 7.5-7.5 7.5h-22.836c-.592 1.952-1.417 3.861-2.474 5.691-4.811 8.334-13.428 13.309-23.051 13.309zm-230.339-32.425c-2.1 3.637-2.1 7.979 0 11.617 2.1 3.637 5.861 5.808 10.061 5.808h220.278c4.2 0 7.96-2.171 10.061-5.808 2.1-3.637 2.1-7.98 0-11.617l-110.139-190.767c-2.1-3.637-5.861-5.808-10.061-5.808s-7.96 2.171-10.061 5.808zm120.2-13.575c-4.411 0-8-3.589-8-8s3.589-8 8-8 8 3.589 8 8-3.589 8-8 8zm0-29.72c-4.142 0-7.5-3.358-7.5-7.5v-76.36c0-4.142 3.358-7.5 7.5-7.5s7.5 3.358 7.5 7.5v76.36c0 4.142-3.358 7.5-7.5 7.5zm218-213.28c-4.411 0-8-3.589-8-8s3.589-8 8-8 8 3.589 8 8-3.589 8-8 8zm-30 0c-4.411 0-8-3.589-8-8s3.589-8 8-8 8 3.589 8 8-3.589 8-8 8zm-30 0c-4.411 0-8-3.589-8-8s3.589-8 8-8 8 3.589 8 8-3.589 8-8 8z"/></g></g></svg>