<svg id="Capa_1" enable-background="new 0 0 512.002 512.002" height="512" viewBox="0 0 512.002 512.002" width="512" xmlns="http://www.w3.org/2000/svg"><g><g><path d="m424.693 333.123s3.833 171.377-17.577 171.377-58.51 0-155.506 0-74.833-156.66-74.833-156.66c47.176-9.78 187.031-48.29 192.323-40.874 8.82 12.36 26.108 20.044 55.593 26.157" fill="#bcd1e1"/><path d="m218.765 396.123c-96.996 0-35.046-63.001-35.046-63.001 47.176-9.78 63.128-23.585 63.128-54.125h114.719c0 11.452 2.243 20.552 7.535 27.967-22.438 34.036-70.545 89.159-150.336 89.159z" fill="#81a9c8"/><path d="m406.706 189.171c20.072 0 24.928-9.136 24.928-20.406s0-14.861 0-21.765-5.596-12.5-12.5-12.5-12.5 5.596-12.5 12.5h-204.856c0-6.904-5.597-12.5-12.5-12.5-6.904 0-12.5 5.596-12.5 12.5v21.765c0 11.27 4.857 20.406 24.928 20.406z" fill="#81a9c8"/><path d="m231.015 364.209c14.338 0 27.281-3.899 27.281-22.644 0-14.27 0-15.624 0-19.527 0-6.904-5.596-12.5-12.5-12.5-6.903 0-12.5 5.596-12.5 12.5h-190c0-6.904-5.597-12.5-12.5-12.5-6.904 0-12.5 5.596-12.5 12.5v19.527c0 18.745 12.943 22.644 27.281 22.644z" fill="#bcd1e1"/><path d="m24.981 504.5c-8.811-28.623-10.699-54.65 5.427-70.39 19.53-19.062 54.67-7.66 54.67-7.66h106.435s-4.945 78.05-133.067 78.05z" fill="#bcd1e1"/><path d="m246.183 434.11c-19.53-19.062-54.67-7.66-54.67-7.66s-14.267 47.05-61.067 47.05c-39.6 0-48.558-17.117-66.96-9.716s-5.04 40.716-5.04 40.716h193.164c8.812-28.623 10.699-54.65-5.427-70.39z" fill="#dce7ef"/><path d="m138.296 444.808c46.541 0 52.467-240.884 0-240.884s-95 42.533-95 95v42.642c0 61.626 48.459 103.242 95 103.242z" fill="#bcd1e1"/><path d="m138.296 444.808c46.541 0 95-41.616 95-103.243 0-11.999 0-32.426 0-42.642 0-52.467-42.533-95-95-95s-65 42.533-65 95v42.642c0 61.627 18.459 103.243 65 103.243z" fill="#dce7ef"/><path d="m304.206 298.77c-56.609 0-102.5-52.918-102.5-109.599 0-11.036 0-68.149 0-79.171 0-56.609 45.891-102.5 102.5-102.5s56.609 291.27 0 291.27z" fill="#81a9c8"/><path d="m304.206 298.77c-56.609 0-72.5-52.918-72.5-109.599 0-11.036 0-68.149 0-79.171 0-56.609 15.891-102.5 72.5-102.5s102.5 45.891 102.5 102.5v79.171c0 56.681-45.891 109.599-102.5 109.599z" fill="#bcd1e1"/><path d="m377.116 361.32c-47.822 0-86.59 38.768-86.59 86.59 0 21.633 7.934 41.413 21.05 56.59h95.54c14.448 0 17.401-78.045 17.793-128.8-13.697-9.084-30.126-14.38-47.793-14.38z" fill="#81a9c8"/><circle cx="407.116" cy="417.91" fill="#9cd169" r="86.59"/><path d="m477.42 367.359-82.03 82.03-36.149-36.15c-2.93-2.929-7.678-2.93-10.607 0-2.929 2.929-2.929 7.678 0 10.606l41.453 41.454c1.407 1.407 3.314 2.197 5.304 2.197s3.896-.79 5.304-2.197l84.618-84.618c-2.237-4.69-4.884-9.145-7.893-13.322z" fill="#7dc03a"/></g><g><path d="m249.403 511.668c-4.009-1.04-6.18-5.416-4.961-9.375 9.462-30.736 8.317-51.283-3.498-62.816-14.173-13.835-40.448-7.713-46.051-6.197-16.976 12.232-36.877 19.028-56.598 19.028-19.726 0-39.631-6.799-56.61-19.037-5.612-1.547-31.738-7.751-46.039 6.206-11.816 11.533-12.96 32.08-3.498 62.816 1.219 3.958-1.002 8.156-4.961 9.375-3.957 1.219-8.156-1.003-9.375-4.961-11.275-36.625-8.869-62.127 7.356-77.963 10.773-10.515 25.094-13.242 37.321-13.176-10.884-12.759-18.651-27.791-22.908-44.118-23.609-2.143-28.787-17.146-28.787-29.884v-19.527c0-11.028 8.972-20 20-20 1.726 0 3.401.22 5 .633v-3.748c0-12.096 2.089-23.941 6.208-35.206 1.423-3.891 5.731-5.888 9.62-4.468 3.89 1.423 5.891 5.729 4.468 9.62-3.514 9.609-5.296 19.721-5.296 30.054v42.642c0 57.271 45.244 95.743 87.5 95.743s87.5-38.472 87.5-95.743v-42.642c0-48.248-39.252-87.5-87.5-87.5-26.121 0-50.678 11.542-67.375 31.668-2.645 3.188-7.374 3.627-10.561.983-3.188-2.645-3.628-7.373-.983-10.561 19.557-23.571 48.321-37.09 78.919-37.09 21.905 0 42.227 6.907 58.903 18.657-1.434-6.211-2.366-12.511-2.767-18.829-20.576-2.527-25.154-16.001-25.154-27.487v-21.765c0-11.028 8.972-20 20-20 1.7 0 3.351.213 4.928.614v-17.614c0-60.654 49.346-110 110-110 32.837 0 63.707 14.508 84.694 39.804 2.645 3.188 2.204 7.917-.983 10.561-3.188 2.645-7.916 2.205-10.562-.983-18.126-21.85-44.788-34.382-73.147-34.382-52.383 0-95 42.617-95 95v79.171c0 54.389 44.393 102.099 95 102.099s95-47.709 95-102.099v-79.171c0-11.218-1.935-22.196-5.75-32.63-1.423-3.89.578-8.197 4.468-9.62 3.896-1.422 8.197.579 9.62 4.468 4.421 12.089 6.662 24.801 6.662 37.782v17.614c1.577-.401 3.229-.614 4.929-.614 11.028 0 20 8.972 20 20v21.765c0 11.485-4.578 24.96-25.154 27.487-1.709 26.923-13.069 53.564-31.758 74.031-4.124 4.517-8.496 8.64-13.077 12.349.964 20.67 11.039 33.293 55.084 42.728 14.211 2.597 27.59 8.444 39.351 17.279 3.312 2.488 3.979 7.189 1.491 10.501-2.487 3.312-7.188 3.98-10.501 1.492-9.244-6.945-25.031-15.812-47.454-15.812-43.61 0-79.09 35.48-79.09 79.09s35.479 79.09 79.089 79.09 79.09-35.479 79.09-79.09c0-13.017-3.143-25.636-9.152-36.972l-71.359 71.36c-2.924 2.924-7.682 2.924-10.607 0l-41.453-41.454c-2.929-2.929-2.929-7.678 0-10.606 2.931-2.929 7.679-2.929 10.607 0l36.149 36.15 88.012-88.012c2.931-2.93 7.679-2.929 10.607 0s2.929 7.678 0 10.606l-10.942 10.942c8.613 14.491 13.139 30.955 13.139 47.985 0 51.881-42.209 94.09-94.09 94.09s-94.09-42.208-94.09-94.09c0-43.189 29.254-79.676 68.984-90.69-4.42-2.34-8.201-4.887-11.459-7.686-8.26-7.095-13.279-15.928-15.363-27.246-15.665 9.138-33.056 13.981-50.982 13.981-23.341 0-45.772-8.21-64.668-23.418.829 5.238 1.258 10.604 1.258 16.072v3.748c1.599-.413 3.274-.633 5-.633 11.028 0 20 8.972 20 20v19.527c0 12.738-5.178 27.741-28.787 29.884-4.257 16.327-12.024 31.359-22.909 44.118 12.204-.087 26.547 2.659 37.322 13.176 16.225 15.837 18.631 41.339 7.356 77.963-.993 3.225-4.688 6.179-9.376 4.963zm-218.607-194.63c-2.757 0-5 2.243-5 5v19.527c0 7.529 1.995 12.57 10.856 14.389-.568-4.727-.856-9.531-.856-14.389v-19.527c0-2.757-2.243-5-5-5zm210 5v19.527c0 4.858-.288 9.663-.856 14.389 8.862-1.819 10.856-6.86 10.856-14.389v-19.527c0-2.757-2.243-5-5-5s-5 2.243-5 5zm173.41-175.882v34.908c9.929-1.886 9.929-7.784 9.929-12.299v-21.765c0-2.757-2.243-5-5-5-2.47 0-4.527 1.799-4.929 4.156zm-224.928-4.156c-2.757 0-5 2.243-5 5v21.765c0 4.515 0 10.414 9.928 12.299v-34.911c-.403-2.355-2.46-4.153-4.928-4.153zm-50.982 274.069c-15.414 0-28.336-6.841-33.724-17.854-1.82-3.721-.28-8.213 3.441-10.033 3.718-1.821 8.212-.28 10.033 3.441 2.807 5.738 10.756 9.445 20.25 9.445s17.443-3.708 20.25-9.445c1.82-3.721 6.311-5.261 10.033-3.441 3.721 1.82 5.261 6.312 3.441 10.033-5.388 11.013-18.31 17.854-33.724 17.854zm34.5-56.226c-4.142 0-7.5-3.358-7.5-7.5v-21.273c0-4.142 3.358-7.5 7.5-7.5s7.5 3.358 7.5 7.5v21.273c0 4.142-3.358 7.5-7.5 7.5zm-69 0c-4.142 0-7.5-3.358-7.5-7.5v-21.273c0-4.142 3.358-7.5 7.5-7.5s7.5 3.358 7.5 7.5v21.273c0 4.142-3.358 7.5-7.5 7.5zm91.296-54.014c-7.878-7.399-22.052-7.967-29.319-1-2.991 2.866-7.738 2.765-10.604-.225-2.866-2.991-2.766-7.738.225-10.604 13.062-12.518 36.462-12.051 50.079 1 2.99 2.867 3.117 7.639.225 10.604-2.836 2.907-7.591 3.056-10.606.225zm-124.197-.225c-2.892-2.965-2.766-7.738.225-10.604 13.616-13.051 37.018-13.519 50.079-1 2.99 2.866 3.091 7.614.225 10.604-2.867 2.99-7.613 3.091-10.604.225-7.267-6.966-21.441-6.4-29.319 1-3.016 2.831-7.771 2.682-10.606-.225zm233.311-47.25c-17.024 0-32.98-7.389-44.928-20.806-2.754-3.094-2.479-7.834.614-10.589 3.094-2.755 7.834-2.479 10.589.613 9.062 10.177 21.039 15.781 33.725 15.781s24.663-5.604 33.725-15.781c2.757-3.093 7.498-3.367 10.589-.613 3.094 2.754 3.368 7.495.614 10.589-11.948 13.416-27.904 20.806-44.928 20.806zm36.5-76.018c-4.143 0-7.5-3.358-7.5-7.5v-21.273c0-4.142 3.357-7.5 7.5-7.5s7.5 3.358 7.5 7.5v21.273c0 4.142-3.358 7.5-7.5 7.5zm-73 0c-4.143 0-7.5-3.358-7.5-7.5v-21.273c0-4.142 3.357-7.5 7.5-7.5s7.5 3.358 7.5 7.5v21.273c0 4.142-3.358 7.5-7.5 7.5zm-37.06-53.893c-3.019-2.836-3.167-7.583-.332-10.602 7.193-7.658 16.794-11.875 27.033-11.875 10.239 0 19.839 4.218 27.032 11.875 2.836 3.019 2.688 7.766-.332 10.602s-7.766 2.687-10.602-.332c-4.327-4.607-10.045-7.145-16.099-7.145s-11.771 2.538-16.1 7.145c-2.83 3.014-7.586 3.164-10.6.332zm136.518-.332c-4.329-4.606-10.045-7.145-16.099-7.145s-11.771 2.538-16.099 7.145c-2.836 3.019-7.582 3.169-10.602.332-3.02-2.836-3.168-7.583-.332-10.602 7.193-7.658 16.793-11.875 27.032-11.875s19.839 4.217 27.032 11.875c2.836 3.019 2.687 7.765-.332 10.602-3.013 2.832-7.768 2.682-10.6-.332z"/></g></g></svg>