<svg id="Capa_1" enable-background="new 0 0 512 512" height="512" viewBox="0 0 512 512" width="512" xmlns="http://www.w3.org/2000/svg"><g><g><path d="m27.5 72.5h-5c-8.25 0-15 6.75-15 15v60c14.3 22 0 30 0 30v157c11.42 21.288 0 30 0 30v60c0 8.25 6.75 15 15 15h467c8.25 0 15-6.75 15-15v-5z" fill="#7e8b96"/><path d="m489.5 72.5h-462v332c0 8.25 6.75 15 15 15h462v-332c0-8.25-6.75-15-15-15z" fill="#a2abb8"/><path d="m7.5 147.5h55v30h-55z" fill="#4e5a61"/><path d="m7.5 334.5h55v30h-55z" fill="#4e5a61"/><path d="m459.5 384.5v-83.649c-2.82-12.96 0-30 0-30v-30c-4.98-13.04 0-30 0-30v-83.351c0-5.523-4.477-10-10-10h-387c-5.523 0-10 4.477-10 10v257c0 5.523 4.477 10 10 10h387c5.523 0 10-4.477 10-10z" fill="#c8d2dc"/><path d="m331.562 300.851h127.938v-30h-117.842v-30h117.842v-30h-127.938z" fill="#7e8b96"/><circle cx="246" cy="276" fill="#a2abb8" r="96.84"/><circle cx="256" cy="256" fill="#e9edf1" r="96.84"/><circle cx="256" cy="256" fill="#c8d2dc" r="66.84"/></g><g><path d="m474.5 447h-437c-20.678 0-37.5-16.822-37.5-37.5v-202c0-4.142 3.357-7.5 7.5-7.5s7.5 3.358 7.5 7.5v119.5h30v-142h-37.5c-4.143 0-7.5-3.358-7.5-7.5v-75c0-20.678 16.822-37.5 37.5-37.5h437c20.678 0 37.5 16.822 37.5 37.5v307c0 20.678-16.822 37.5-37.5 37.5zm-459.5-75v37.5c0 12.407 10.094 22.5 22.5 22.5h437c12.406 0 22.5-10.093 22.5-22.5v-307c0-12.407-10.094-22.5-22.5-22.5h-437c-12.406 0-22.5 10.093-22.5 22.5v37.5h30v-12.5c0-9.649 7.851-17.5 17.5-17.5h387c9.649 0 17.5 7.851 17.5 17.5v173.352c0 4.142-3.357 7.5-7.5 7.5h-113.269c-18.092 31.062-51.765 51.988-90.231 51.988-57.533 0-104.34-46.807-104.34-104.34s46.807-104.34 104.34-104.34c38.343 0 71.924 20.793 90.058 51.691h105.942v-75.851c0-1.378-1.121-2.5-2.5-2.5h-387c-1.379 0-2.5 1.122-2.5 2.5v257c0 1.378 1.121 2.5 2.5 2.5h387c1.379 0 2.5-1.122 2.5-2.5v-53.648c0-4.142 3.357-7.5 7.5-7.5s7.5 3.358 7.5 7.5v53.648c0 9.649-7.851 17.5-17.5 17.5h-387c-9.649 0-17.5-7.851-17.5-17.5v-12.5zm0-15h30v-15h-30zm151.66-101c0 49.262 40.078 89.34 89.34 89.34s89.34-40.078 89.34-89.34-40.078-89.34-89.34-89.34-89.34 40.078-89.34 89.34zm186.77 37.352h98.57v-15h-94.07c-1.128 5.151-2.64 10.162-4.5 15zm6.654-30h91.916v-15h-91.938c.184 2.524.277 5.078.277 7.648.001 2.472-.085 4.922-.255 7.352zm-2.22-30h94.136v-15h-98.685c1.877 4.836 3.405 9.847 4.549 15zm-342.864-63.352h30v-15h-30zm241 160.34c-40.991 0-74.34-33.349-74.34-74.34s33.349-74.34 74.34-74.34c14.019 0 27.685 3.94 39.519 11.395 3.505 2.208 4.557 6.839 2.349 10.343-2.208 3.505-6.837 4.557-10.343 2.349-9.438-5.945-20.339-9.087-31.524-9.087-32.72 0-59.34 26.62-59.34 59.34s26.62 59.34 59.34 59.34 59.34-26.62 59.34-59.34c0-11.185-3.142-22.086-9.087-31.524-2.207-3.505-1.155-8.136 2.35-10.343s8.135-1.156 10.343 2.349c7.454 11.835 11.395 25.5 11.395 39.518-.002 40.991-33.351 74.34-74.342 74.34z"/></g></g></svg>