<svg id="Capa_1" enable-background="new 0 0 512 512" height="512" viewBox="0 0 512 512" width="512" xmlns="http://www.w3.org/2000/svg"><g><g><path d="m7.5 371c0 8.25 6.75 15 15 15h437c8.25 0 15-6.75 15-15v-5l-218.5-32.956-248.5 22.956z" fill="#a2abb8"/><path d="m27.5 36h-5c-8.25 0-15 6.75-15 15v46l248.5 22.956z" fill="#a2abb8"/><path d="m27.5 98.848 228.5 21.108 218.5-22.956v-46c0-8.25-6.75-15-15-15h-432z" fill="#c8d2dc"/><path d="m28.38 356h-20.88v-259h20z" fill="#e9edf1"/><path d="m27.834 354.122c1.447 6.764 7.486 11.878 14.666 11.878h432v-10l-218.5-22.956z" fill="#c8d2dc"/><path d="m27.5 351c0 1.754.321 3.432.88 5h446.12v-259h-447z" fill="#f7f9fa"/><path d="m291.09 146h-5c-8.25 0-15 6.75-15 15v195h113.91z" fill="#e9edf1"/><path d="m444.725 97h29.55v259h-29.55z" fill="#e9edf1"/><path d="m301.09 166.992-30-9.992h-205.18c-8.25 0-15 6.75-15 15v68c0 8.25 6.75 15 15 15h205.18l30-9.992z" fill="#9cd169"/><path d="m271.09 157h40v98h-40z" fill="#7dc03a"/><path d="m291.09 461c0 8.25 6.75 15 15 15h182.41c8.25 0 15-6.75 15-15v-5l-108.5-32.956-103.91 22.956z" fill="#4e5a61"/><path d="m311.09 126h-5c-8.25 0-15 6.75-15 15v16l113.91 22.956z" fill="#4e5a61"/><path d="m311.09 157 93.91 22.956 98.5-22.956v-16c0-8.25-6.75-15-15-15h-177.41z" fill="#7e8b96"/><path d="m311.97 446h-20.88v-289h20z" fill="#e9edf1"/><path d="m311.424 444.122c1.447 6.764 7.486 11.878 14.666 11.878h177.41v-10l-108.5-22.956z" fill="#7e8b96"/><path d="m311.09 441c0 1.754.321 3.432.88 5h191.53v-289h-192.41z" fill="#f7f9fa"/><circle cx="397.795" cy="309.295" fill="#9cd169" r="76.705"/><path d="m460.471 265.102-74.286 74.286-36.149-36.15c-2.93-2.929-7.678-2.93-10.607 0-2.929 2.929-2.929 7.678 0 10.606l41.453 41.454c1.407 1.407 3.314 2.197 5.304 2.197s3.896-.79 5.304-2.197l76.634-76.634c-2.094-4.797-4.667-9.335-7.653-13.562z" fill="#7dc03a"/></g><g><path d="m489.5 483.5h-183.41c-12.407 0-22.5-10.094-22.5-22.5v-67.5h-261.09c-12.407 0-22.5-10.094-22.5-22.5v-244c0-4.143 3.358-7.5 7.5-7.5s7.5 3.357 7.5 7.5v221.5h246.09c4.142 0 7.5 3.357 7.5 7.5s-3.358 7.5-7.5 7.5h-246.09v7.5c0 4.136 3.364 7.5 7.5 7.5h261.09v-116h-217.68c-12.407 0-22.5-10.094-22.5-22.5v-68c0-12.406 10.093-22.5 22.5-22.5h195.18c4.142 0 7.5 3.357 7.5 7.5s-3.358 7.5-7.5 7.5h-195.18c-4.135 0-7.5 3.364-7.5 7.5v68c0 4.136 3.365 7.5 7.5 7.5h217.68v-105.5c0-12.406 10.093-22.5 22.5-22.5h130.91v-15h-429.5c-4.142 0-7.5-3.357-7.5-7.5v-46c0-12.406 10.093-22.5 22.5-22.5h331c4.142 0 7.5 3.357 7.5 7.5s-3.358 7.5-7.5 7.5h-331c-4.136 0-7.5 3.364-7.5 7.5v38.5h452v-38.5c0-4.136-3.364-7.5-7.5-7.5h-76c-4.142 0-7.5-3.357-7.5-7.5s3.358-7.5 7.5-7.5h76c12.407 0 22.5 10.094 22.5 22.5v68.5h7.5c12.407 0 22.5 10.094 22.5 22.5v319c0 12.406-10.093 22.5-22.5 22.5zm-190.91-30v7.5c0 4.136 3.364 7.5 7.5 7.5h183.41c4.136 0 7.5-3.364 7.5-7.5v-7.5zm0-15h198.41v-274h-198.41zm0-289h198.41v-7.5c0-4.136-3.364-7.5-7.5-7.5h-183.41c-4.136 0-7.5 3.364-7.5 7.5zm153.41-30h15v-15h-15zm-54.205 274c-46.431 0-84.205-37.774-84.205-84.205s37.774-84.205 84.205-84.205c15.96 0 31.496 4.487 44.929 12.977 3.501 2.213 4.546 6.845 2.333 10.347-2.212 3.502-6.844 4.547-10.347 2.333-11.031-6.972-23.796-10.656-36.915-10.656-38.16 0-69.205 31.045-69.205 69.205s31.045 69.205 69.205 69.205 69.205-31.046 69.205-69.206c0-10.997-2.563-21.67-7.472-31.319l-62.388 62.388c-2.929 2.928-7.678 2.928-10.606 0l-36.721-36.721c-2.929-2.93-2.929-7.678 0-10.607 2.929-2.928 7.678-2.928 10.606 0l31.418 31.418 63.817-63.816c.043-.046.088-.09.133-.134l13.409-13.409c2.929-2.928 7.678-2.928 10.606 0 2.929 2.93 2.929 7.678 0 10.607l-9.224 9.224c7.489 12.829 11.42 27.353 11.42 42.37.002 46.43-37.772 84.204-84.203 84.204zm-163.975-69.6c-1.919 0-3.839-.732-5.303-2.196-2.929-2.93-2.929-7.678 0-10.607l3.597-3.597h-88.194c-4.142 0-7.5-3.357-7.5-7.5s3.358-7.5 7.5-7.5h88.194l-3.597-3.597c-2.929-2.93-2.929-7.678 0-10.607 2.929-2.928 7.678-2.928 10.606 0l16.4 16.4c2.929 2.93 2.929 7.678 0 10.607l-16.4 16.4c-1.464 1.465-3.384 2.197-5.303 2.197zm7.18-89.345c-4.142 0-7.5-3.357-7.5-7.5v-8.064l-6.983 4.032c-3.587 2.069-8.174.843-10.245-2.745-2.071-3.587-.842-8.174 2.745-10.245l6.983-4.033-6.983-4.032c-3.587-2.071-4.816-6.658-2.745-10.245 2.07-3.588 6.657-4.815 10.245-2.745l6.983 4.032v-8.064c0-4.143 3.358-7.5 7.5-7.5s7.5 3.357 7.5 7.5v8.064l6.983-4.032c3.587-2.069 8.174-.843 10.245 2.745 2.071 3.587.842 8.174-2.745 10.245l-6.983 4.032 6.983 4.032c3.587 2.071 4.816 6.658 2.745 10.245-2.071 3.588-6.659 4.814-10.245 2.745l-6.983-4.032v8.064c0 4.143-3.358 7.501-7.5 7.501zm-70 0c-4.142 0-7.5-3.357-7.5-7.5v-8.064l-6.983 4.032c-3.587 2.069-8.174.843-10.245-2.745-2.071-3.587-.842-8.174 2.745-10.245l6.983-4.033-6.983-4.032c-3.587-2.071-4.816-6.658-2.745-10.245 2.071-3.588 6.657-4.815 10.245-2.745l6.983 4.032v-8.064c0-4.143 3.358-7.5 7.5-7.5s7.5 3.357 7.5 7.5v8.064l6.983-4.032c3.587-2.069 8.174-.843 10.245 2.745 2.071 3.587.842 8.174-2.745 10.245l-6.983 4.032 6.983 4.032c3.587 2.071 4.816 6.658 2.745 10.245-2.072 3.588-6.659 4.814-10.245 2.745l-6.983-4.032v8.064c0 4.143-3.358 7.501-7.5 7.501zm-70 0c-4.142 0-7.5-3.357-7.5-7.5v-8.064l-6.983 4.032c-3.587 2.069-8.174.843-10.245-2.745-2.071-3.587-.842-8.174 2.745-10.245l6.983-4.033-6.983-4.032c-3.587-2.071-4.816-6.658-2.745-10.245 2.07-3.588 6.657-4.815 10.245-2.745l6.983 4.032v-8.064c0-4.143 3.358-7.5 7.5-7.5s7.5 3.357 7.5 7.5v8.064l6.983-4.032c3.587-2.069 8.174-.843 10.245 2.745 2.071 3.587.842 8.174-2.745 10.245l-6.983 4.032 6.983 4.032c3.587 2.071 4.816 6.658 2.745 10.245-2.071 3.588-6.659 4.814-10.245 2.745l-6.983-4.032v8.064c0 4.143-3.358 7.501-7.5 7.501zm343-160.055c-4.411 0-8-3.589-8-8s3.589-8 8-8 8 3.589 8 8-3.589 8-8 8zm-30 0c-4.411 0-8-3.589-8-8s3.589-8 8-8 8 3.589 8 8-3.589 8-8 8zm-30 0c-4.411 0-8-3.589-8-8s3.589-8 8-8 8 3.589 8 8-3.589 8-8 8z"/></g></g></svg>