<svg id="Capa_1" enable-background="new 0 0 512.032 512.032" height="512" viewBox="0 0 512.032 512.032" width="512" xmlns="http://www.w3.org/2000/svg"><g><g><g fill="#a2abb8"><path d="m121.344 54.381v-46.865c0-4.143 3.358-7.5 7.5-7.5s7.5 3.357 7.5 7.5v46.821z"/><path d="m75.354 74.198-27.547-37.915c-2.435-3.351-1.692-8.041 1.659-10.476s8.041-1.692 10.476 1.659l27.521 37.879z"/><path d="m49.796 117.262-44.572-14.482c-3.94-1.28-6.095-5.511-4.815-9.451s5.511-6.095 9.451-4.815l44.53 14.469z"/><path d="m203.257 102.997 44.571-14.482c3.94-1.28 8.171.876 9.451 4.815s-.875 8.17-4.815 9.451l-44.53 14.469z"/><path d="m54.431 167.125-44.572 14.482c-3.94 1.28-8.171-.876-9.451-4.815s.875-8.17 4.815-9.451l44.53-14.469z"/><path d="m170.199 65.381 27.547-37.915c2.435-3.351 7.125-4.094 10.476-1.659s4.094 7.125 1.659 10.476l-27.521 37.88z"/><path d="m87.489 204.741-27.547 37.915c-2.435 3.351-7.125 4.094-10.476 1.659s-4.094-7.125-1.659-10.476l27.521-37.879z"/></g><path d="m218.752 105.848c-1.795-5.524-29.69-43.887-34.341-47.267-4.699-3.414-49.816-18.054-55.566-18.054-5.808 0-50.914 14.674-55.566 18.054-2.049 1.488-8.5 9.625-15.274 18.782-1.217 1.646-10.767 26.153-11.63 28.808-1.795 5.524-4.193 50.526-2.416 55.995 1.795 5.524 28.069 41.819 32.721 45.199 4.699 3.414 47.71 16.219 53.46 16.219 5.808 0 49.619-8.664 54.271-12.044 4.699-3.414 32.565-41.798 34.341-47.267 1.794-5.524 1.776-52.956 0-58.425z" fill="#de5791"/><path d="m426.259 119.216h-335.44-5c-8.25 0-15 6.75-15 15v243.6c0 8.25 6.75 15 15 15h340.44c8.25 0 15-6.75 15-15v-5-238.6c0-8.25-6.75-15-15-15z" fill="#bcd1e1"/><path d="m129.13 209.754c-5.769 0-41.402-13.172-43.776-14.897-2.351-1.708-25.926-31.556-27.726-37.098-.03-.092-.059-.206-.088-.334-1.68-7.483-1.246-74.334.614-80.061-8.816 11.911-18.203 24.976-19.212 28.08-1.801 5.542-1.783 53.13 0 58.616.004.014.014.034.019.048 1.924 5.689 29.779 43.991 34.435 47.374 4.714 3.425 49.979 18.113 55.748 18.113v-19.842c-.005 0-.011.001-.014.001z" fill="#da0b62"/><path d="m345.214 292.899c-4.725-4.725-12.803-1.378-12.803 5.303v74.613h-226.592c-8.25 0-15-6.75-15-15v-238.6h-5c-8.25 0-15 6.75-15 15v243.6c0 8.25 6.75 15 15 15h340.44c8.25 0 15-6.75 15-15v-5h-16.128z" fill="#81a9c8"/><path d="m106.999 165.776c1.79-1.301-16.18-46.56-16.18-46.56h-5c-8.25 0-15 6.75-15 15v74.86c1.073 1.209 1.925 2.076 2.46 2.464 1.723 1.252 8.881 4.013 17.54 7.009 0 .001 11.528-49.393 16.18-52.773z" fill="#81a9c8"/><path d="m136.344 215.741v46.865c0 4.143-3.358 7.5-7.5 7.5s-7.5-3.357-7.5-7.5v-46.821z" fill="#9abbd4"/><path d="m207.893 152.859 44.571 14.482c3.94 1.28 6.095 5.511 4.815 9.451s-5.511 6.095-9.451 4.815l-44.53-14.469z" fill="#9abbd4"/><path d="m90.819 218.549c14.954 5.174 35.679 5.035 39.321 5.035 5.808 0 46.541-12.941 51.193-16.321 2.632-1.912 15.613-10.523 24.126-22.45 6.684-9.363 12.511-18.135 13.293-20.54 1.273-3.916 1.633-28.9 1.103-45.058h-129.036z" fill="#9abbd4"/><path d="m256.039 330.934c-26.157 0-47.947-11.327-56.867-29.56-1.82-3.721-.279-8.213 3.441-10.033 3.718-1.82 8.212-.28 10.033 3.441 6.285 12.849 23.318 21.151 43.392 21.151s37.107-8.303 43.392-21.151c1.82-3.722 6.312-5.261 10.033-3.441s5.261 6.313 3.441 10.033c-8.918 18.233-30.708 29.56-56.865 29.56z" fill="#4980ac"/><path d="m211.545 259.861c-2.684 0-5.28-1.445-6.628-3.98-1.945-3.657-.557-8.198 3.1-10.144l7.549-4.015-7.549-4.015c-3.657-1.945-5.045-6.486-3.1-10.144 1.945-3.656 6.487-5.044 10.143-3.101l20 10.637c2.448 1.303 3.979 3.849 3.979 6.622s-1.53 5.319-3.979 6.622l-20 10.637c-1.121.598-2.327.881-3.515.881z" fill="#4980ac"/><path d="m290.539 259.859c-4.142 0-7.5-3.357-7.5-7.5v-21.273c0-4.143 3.358-7.5 7.5-7.5s7.5 3.357 7.5 7.5v21.273c0 4.142-3.358 7.5-7.5 7.5z" fill="#4980ac"/><path d="m502.327 408.407-2.197-2.197-97.479-8.16-35.241-124.56-2.197-2.197c-4.725-4.725-12.803-1.378-12.803 5.303v193.908c0 6.682 8.079 10.028 12.803 5.303l43.117-43.117 27.833 67.195c1.585 3.827 5.972 5.644 9.799 4.059l13.858-5.74c3.421-1.417 5.228-5.072 4.442-8.565l-36.62-74.933c4.958 3.756 8.445 6.415 8.5 6.504h60.881c6.683.001 10.029-8.078 5.304-12.803z" fill="#e9edf1"/><path d="m367.41 446.655c0 2.567 3.104 3.853 4.919 2.038l30.826-30.826c5.142-5.142 13.859-3.408 16.641 3.31l29.488 71.191c.679 1.639 2.557 2.417 4.196 1.738l10.782-4.466c-.093-.415-.215-.828-.383-1.234l-27.833-67.195h.096c-.192-.315-.362-.642-.503-.983l-1.695-4.093c-1.957-4.725 1.516-9.923 6.63-9.923h59.556l-132.72-132.72z" fill="#f7f9fa"/><path d="m129.143 209.753c-.004 0-.01.001-.014.001-4.537 0-27.536-8.144-38.311-12.462v21.161c15.026 5.205 34.656 11.142 38.324 11.142 5.827 0 51.08-14.723 55.748-18.113 2.606-1.894 12.019-14.716 20.483-26.549-9.39 4.775-70.57 24.792-76.23 24.82z" fill="#81a9c8"/><path d="m73.395 211.482c1.717 1.247 8.815 3.989 17.424 6.971v-21.161c-2.926-1.173-4.958-2.066-5.465-2.434-1.204-.875-7.973-9.13-14.535-17.721v31.752c1.13 1.279 2.022 2.19 2.576 2.593z" fill="#4980ac"/></g><g><path d="m443.113 512.016c-5.889 0-11.487-3.489-13.877-9.26l-23.538-56.825-35.18 35.181c-4.305 4.305-10.721 5.581-16.347 3.251-5.625-2.33-9.26-7.77-9.26-13.858v-193.908c0-6.089 3.635-11.528 9.26-13.858s12.042-1.053 16.346 3.251l63.242 63.243v-195.017c0-4.136-3.365-7.5-7.5-7.5h-206.06c-.033.001-.065.003-.098.004-.2.008-.4.005-.598-.004h-133.684c-4.135 0-7.5 3.364-7.5 7.5v80.569.179 162.852c0 4.136 3.365 7.5 7.5 7.5h236.592c4.142 0 7.5 3.357 7.5 7.5s-3.358 7.5-7.5 7.5h-236.592c-12.407 0-22.5-10.094-22.5-22.5v-139.864l-3.406 4.688c-2.435 3.35-7.125 4.095-10.476 1.659-3.351-2.435-4.094-7.125-1.66-10.476l15.542-21.392v-.584c-7.179-8.634-21.262-27.71-27.967-38.581l-25.533 8.296c-3.938 1.277-8.17-.876-9.45-4.815-1.28-3.939.876-8.17 4.815-9.45l25.587-8.313c-.923-12.451-.92-35.57.008-47.957l-25.563-8.306c-3.939-1.28-6.095-5.511-4.815-9.45s5.509-6.095 9.45-4.815l25.587 8.313c6.565-10.605 20.138-29.283 28.173-38.767l-15.824-21.682c-2.442-3.346-1.709-8.038 1.637-10.479 3.344-2.443 8.037-1.71 10.479 1.636l15.851 21.718c11.53-4.719 33.5-11.856 45.59-14.813v-26.866c0-4.143 3.358-7.5 7.5-7.5s7.5 3.357 7.5 7.5v26.865c12.09 2.956 34.061 10.094 45.591 14.813l15.851-21.718c2.442-3.346 7.134-4.079 10.479-1.636 3.346 2.441 4.079 7.134 1.637 10.479l-15.826 21.683c8.035 9.483 21.607 28.161 28.173 38.767l25.587-8.313c3.937-1.279 8.17.876 9.45 4.815s-.876 8.17-4.815 9.45l-25.509 8.288c.017.229.033.464.048.707h199.25c12.407 0 22.5 10.094 22.5 22.5v213.123c0 3.033-1.827 5.769-4.63 6.929-2.801 1.163-6.028.521-8.173-1.625l-76.041-76.042-.004 193.897 43.117-43.111c1.771-1.771 4.309-2.547 6.767-2.052 2.457.488 4.507 2.171 5.466 4.485l27.833 67.195 13.858-5.74-27.833-67.195c-.958-2.314-.698-4.954.693-7.037 1.392-2.082 3.731-3.333 6.236-3.333h60.969l-41.061-41.067c-2.929-2.93-2.929-7.678 0-10.607 2.929-2.928 7.678-2.928 10.606 0l41.068 41.068c4.305 4.306 5.582 10.722 3.252 16.347s-7.77 9.26-13.858 9.26h-49.752l23.538 56.824c3.165 7.643-.477 16.435-8.119 19.6l-13.858 5.739c-1.871.775-3.812 1.142-5.721 1.142zm53.959-98.251h.01zm-450.829-251.484c1.755 3.465 9.473 14.697 17.077 25.043v-53.107c0-12.406 10.093-22.5 22.5-22.5h126.156c-.164-2.203-.313-3.199-.377-3.565-2.739-6.016-26.747-39.055-31.606-43.493-5.695-3.241-44.604-15.883-51.15-16.617-6.513.725-45.421 13.368-51.148 16.621-4.796 4.372-28.423 36.872-31.525 43.328-.014.046-.028.092-.043.137-.025.077-.051.152-.078.228-1.264 6.837-1.275 45.695-.036 53.202.041.107.078.216.114.325.042.131.081.264.116.398zm209.797 168.653c-26.157 0-47.947-11.327-56.867-29.56-1.82-3.721-.279-8.213 3.441-10.033 3.718-1.82 8.212-.28 10.033 3.441 6.285 12.849 23.318 21.151 43.392 21.151s37.107-8.303 43.392-21.151c1.82-3.722 6.312-5.261 10.033-3.441s5.261 6.313 3.441 10.033c-8.918 18.233-30.708 29.56-56.865 29.56zm-127.195-60.828c-4.142 0-7.5-3.357-7.5-7.5v-26.821c-7.326-1.789-17.571-5.026-24.307-7.231-3.937-1.289-6.083-5.524-4.795-9.461 1.289-3.938 5.525-6.084 9.461-4.795 15.18 4.969 24.827 7.495 27.15 7.784 6.535-.733 45.417-13.369 51.142-16.621 4.839-4.411 28.847-37.455 31.604-43.495.137-.763.635-4.246.877-15.606.087-4.087 3.428-7.34 7.495-7.34.055 0 .109.001.164.002 4.141.088 7.427 3.517 7.338 7.658-.118 5.531-.299 9.479-.5 12.322l25.532 8.296c3.939 1.28 6.096 5.511 4.815 9.45-1.28 3.94-5.51 6.095-9.45 4.815l-25.562-8.306c-8.417 13.622-28.566 40.773-33.489 44.351-4.917 3.573-36.897 14.324-52.475 18.133v26.865c0 4.142-3.358 7.5-7.5 7.5zm82.701-10.245c-2.684 0-5.28-1.445-6.628-3.98-1.945-3.657-.557-8.198 3.1-10.144l7.549-4.015-7.549-4.015c-3.657-1.945-5.045-6.486-3.1-10.144 1.945-3.656 6.487-5.044 10.143-3.101l20 10.637c2.448 1.303 3.979 3.849 3.979 6.622s-1.53 5.319-3.979 6.622l-20 10.637c-1.121.598-2.327.881-3.515.881zm78.994-.002c-4.142 0-7.5-3.357-7.5-7.5v-21.273c0-4.143 3.358-7.5 7.5-7.5s7.5 3.357 7.5 7.5v21.273c0 4.142-3.358 7.5-7.5 7.5z"/></g></g></svg>