<svg id="Capa_1" enable-background="new 0 0 512 512" height="512" viewBox="0 0 512 512" width="512" xmlns="http://www.w3.org/2000/svg"><g><g><g fill="#de5791"><path d="m414.5 174.715c0-65.855-37.331-90.015-66.861-90.015-30.029 0-63.052 11-63.052 11s-17.852-48.4-73.511-48.4-73.663 48.4-73.663 48.4-33.024-11-63.052-11c-29.53 0-66.861 24.16-66.861 90.015 0 167.403 24.54 220.985 67.74 220.985 20.883 0 35.089-9.271 52.26-23.596z"/><path d="m414.5 174.715c0-65.855-37.331-90.015-66.861-90.015-30.029 0-63.052 11-63.052 11s-17.852-48.4-73.511-48.4-73.663 48.4-73.663 48.4-33.024-11-63.052-11c-29.53 0-66.861 24.16-66.861 90.015 0 167.403 24.54 220.985 67.74 220.985 20.883 0 35.089-9.271 52.26-23.596z"/><path d="m7.5 174.715c0 167.403 24.54 220.985 67.74 220.985 20.883 0 35.089-9.271 52.26-23.596l25.891-17.807 32.249-162.517-13.327-134.98c-25.668 14.094-34.9 38.901-34.9 38.901-5.305 13.3-72.859-10.127-72.859-10.127-27.368 4.846-57.054 30.415-57.054 89.141z"/></g><path d="m172.313 56.8c10.184-5.592 22.953-9.5 38.763-9.5 55.659 0 73.511 48.4 73.511 48.4s33.024-11 63.052-11c29.53 0 66.861 24.16 66.861 90.015l-261.109 179.583 9.551-160.118c-10.646-45.808-6.1-106.673 9.371-137.38zm-140.913 116.915c0 9.104 5.44 15.985 15.006 15.985h81.202c-10-41.6 4.499-80.7 9.805-94 0 0-33.024-11-63.052-11-3.197 0-6.485.284-9.807.873s-33.154 19.542-33.154 88.142z" fill="#e175a5"/><path d="m299.116 245.06c7.501-48 8.392-85.92-2.146-121.68-5.106-17.327-12.231-27.68-12.231-27.68 5.305 13.3 9.913 47.6 3.663 88.88z" fill="#de5791"/><path d="m197.362 155.922c-7.602 15.68-26.476 22.228-42.155 14.625s-22.228-26.476-14.625-42.155zm27.276 0c7.602 15.68 26.476 22.228 42.155 14.625s22.228-26.476 14.625-42.155z" fill="#f9c8dc"/><path d="m127.608 278.7 39.779-60s-19.676 0-39.779 0c-30.708 0-58.941 5.753-87.346 84.135 1.858 24.362 5.264 45.141 18.974 59.784 11.04 11.791 33.624 11.974 47.684-1.159 0-55.202.485-82.76 20.688-82.76z" fill="#e175a5"/><path d="m256 420.054-128.392 2.051v-173.405l128.392-39z" fill="#a2abb8"/><path d="m504.5 422.105-357 40.557s0-135.907 0-156.404c0-12.96 6.7-20.057 19.887-20.057h67.5l269.613-68.905z" fill="#c8d2dc"/><path d="m504.5 445.054-356.938-39.686-19.954 16.737v27.596c0 8.25 6.642 15 14.892 15h347c8.25 0 15-6.75 15-15 0-2.447 0-4.647 0-4.647z" fill="#c8d2dc"/><path d="m142.5 174.7c-8.25 0-14.892 6.75-14.892 15v59h19.892l21.5-34-21.5-40z" fill="#c8d2dc"/><path d="m489.5 174.7h-342v74h17.475l136.447 113.687c8.442 7.043 20.713 7.043 29.155 0l173.923-145.091s0-18.796 0-27.596c0-8.25-6.75-15-15-15z" fill="#e9edf1"/><path d="m390.734 327.198-66.156 55.189c-8.442 7.043-20.713 7.043-29.155 0l-60.194-50.153-87.666 73.134-.062 24.686c0 8.25 6.75 15 15 15h342c0-9.998 0-22.949 0-22.949z" fill="#e9edf1"/><path d="m127.608 218.7h22.392c0 4.142-3.358 7.5-7.5 7.5s-7.5 3.358-7.5 7.5 3.358 7.5 7.5 7.5 7.5 3.358 7.5 7.5-3.358 7.5-7.5 7.5-7.5 3.358-7.5 7.5 3.358 7.5 7.5 7.5 7.5 3.358 7.5 7.5h-22.392s-10.108-15.32-10.108-30 10.108-30 10.108-30z" fill="#e175a5"/></g><g><path d="m489.5 167.2h-206.379c9.528-11.432 12.092-27.841 5.187-42.079-1.807-3.727-6.294-5.283-10.021-3.476l-56.779 27.534c-3.727 1.807-5.283 6.293-3.476 10.021 1.423 2.934 3.171 5.605 5.173 8h-24.259c2.002-2.396 3.751-5.067 5.173-8 1.808-3.727.251-8.214-3.476-10.021l-56.779-27.534c-3.727-1.807-8.213-.252-10.021 3.476-6.953 14.339-4.306 30.879 5.389 42.321-10.803 1.594-19.125 10.967-19.125 22.258v21.633c-10.913.449-22.943 2.316-34.991 9.546-15.09 9.057-28.188 25.609-40.042 50.605-1.774 3.743-.179 8.216 3.563 9.99 3.744 1.774 8.216.181 9.991-3.563 22.717-47.904 43.791-51.712 68.979-51.712h39.779c4.142 0 7.5-3.357 7.5-7.5s-3.358-7.5-7.5-7.5h-32.279v-21.5c0-4.136 3.316-7.5 7.392-7.5h347c4.136 0 7.5 3.364 7.5 7.5v24.085l-171.227 142.844c-5.662 4.723-13.883 4.723-19.545 0l-106.62-88.944c-3.179-2.654-7.909-2.226-10.563.954-2.653 3.181-2.226 7.91.955 10.563l106.619 88.944c5.615 4.685 12.499 7.027 19.382 7.027s13.767-2.343 19.382-7.027l161.618-134.826v16.541c0 4.143 3.357 7.5 7.5 7.5s7.5-3.357 7.5-7.5v-60.16c0-12.406-10.094-22.5-22.5-22.5zm-212.494-28.263c1.347 10.017-3.764 20.221-13.342 24.865-9.577 4.644-20.755 2.339-27.786-4.921zm-131.86 0 41.127 19.944c-7.031 7.26-18.208 9.565-27.786 4.921-9.577-4.644-14.688-14.848-13.341-24.865zm366.854 140.923v169.84c0 12.406-10.094 22.5-22.5 22.5h-347c-6.035 0-11.645-2.378-15.797-6.694-4.501-4.68-6.84-11.231-6.595-18.462v-59.636c-14.106 10.121-27.34 15.792-44.868 15.792-26.529 0-45.232-17.28-57.179-52.827-12.153-36.16-18.061-93.618-18.061-175.658 0-31.475 8.409-57.326 24.316-74.759 13.198-14.462 31.438-22.756 50.045-22.756 23.212 0 47.693 6.166 59.021 9.429 2.713-5.154 7.392-12.731 14.545-20.286 11.467-12.109 31.731-26.543 63.149-26.543 31.424 0 51.648 14.439 63.081 26.553 7.123 7.546 11.777 15.116 14.477 20.271 11.335-3.264 35.804-9.424 59.006-9.424 26.497 0 61.098 17.538 71.409 66.968.846 4.055-1.755 8.027-5.811 8.873-4.046.847-8.026-1.755-8.873-5.811-8.474-40.618-35.854-55.03-56.726-55.03-28.483 0-60.364 10.51-60.683 10.615-3.838 1.279-8.006-.72-9.406-4.52-.66-1.755-16.934-43.496-66.475-43.496-49.557 0-65.968 41.76-66.642 43.537-1.426 3.762-5.575 5.754-9.391 4.479-.317-.104-32.271-10.615-60.682-10.615-22.047 0-59.36 17.379-59.36 82.515 0 64.095 3.593 112.617 10.942 147.188 1.951-6.26 3.928-12.208 6.023-18.143 1.379-3.906 5.661-5.953 9.569-4.575 3.906 1.379 5.954 5.663 4.575 9.569-4.396 12.45-8.265 24.991-12.518 40.583 12.718 34.737 29.768 38.863 41.649 38.863 17.052 0 29.174-6.914 44.868-19.719v-89.781c0-4.143 3.358-7.5 7.5-7.5h39.779c4.142 0 7.5 3.357 7.5 7.5s-3.358 7.5-7.5 7.5h-32.279v119.79l86.311-72.003c3.182-2.653 7.911-2.226 10.564.954 2.653 3.181 2.226 7.91-.955 10.563l-95.92 80.02v21.656c0 .098-.002.195-.006.292-.124 3.178.733 5.89 2.412 7.635 1.298 1.35 3.068 2.093 4.986 2.093h347c4.136 0 7.5-3.364 7.5-7.5v-24.086l-96.029-80.109c-3.181-2.653-3.607-7.383-.954-10.563s7.382-3.608 10.563-.954l86.42 72.092v-126.22c0-4.143 3.357-7.5 7.5-7.5s7.5 3.358 7.5 7.5zm-391.892-31.16c0-4.143 3.358-7.5 7.5-7.5h39.779c4.142 0 7.5 3.357 7.5 7.5s-3.358 7.5-7.5 7.5h-39.779c-4.142 0-7.5-3.357-7.5-7.5z"/></g></g></svg>