<svg id="Capa_1" enable-background="new 0 0 512 512" height="512" viewBox="0 0 512 512" width="512" xmlns="http://www.w3.org/2000/svg"><g><g><path d="m35.873 209.676c-17.566 18.269-28.373 43.084-28.373 70.429 0 56.137 45.508 101.645 101.645 101.645h312.955c35.091 0 65.039-21.945 76.92-52.852-14.794 14.146-468.527-106.831-463.147-119.222z" fill="#81a9c8"/><path d="m422.1 216.95c0-49.473-40.106-89.579-89.579-89.579-3.411 0-6.775.197-10.087.569-13.066-60.696-67.033-106.19-131.634-106.19-74.371 0-134.66 60.289-134.66 134.66 0 11.885 1.546 23.407 4.437 34.384-9.188 5.007-17.509 11.398-24.704 18.881-5.379 12.392-8.373 26.059-8.373 40.429 0 56.137 45.508 101.645 101.645 101.645h312.955c22.086 0 42.125-8.706 56.92-22.852 3.527-9.175 5.479-19.131 5.479-29.548.001-45.507-36.891-82.399-82.399-82.399z" fill="#bcd1e1"/><path d="m331.39 381.75c19.691-49.699 26.783-132.905 26.783-151.463 0-1.623-.637-3.222-1.839-3.942-37.559-22.534-111.492-41.824-119.482-44.147-.562-.163-1.142-.163-1.703 0-7.99 2.323-81.924 21.612-119.482 44.147-1.201.721-1.838 2.32-1.838 3.942 0 18.558 7.092 101.764 26.783 151.463z" fill="#81a9c8"/><path d="m147.553 199.882c-4.242 2.116-8.238 4.274-11.887 6.463-1.201.721-1.838 2.32-1.838 3.942 0 20.6 8.735 120.86 33.744 166.524 14.889 27.186 63.949 56.14 87.536 63.505.586.183 1.2.183 1.786 0 4.456-1.391 9.824-3.556 15.697-6.331-35.052-13.966-120.929-173.105-125.038-234.103z" fill="#ffd064"/><path d="m376.334 206.345c-37.559-22.534-111.492-41.824-119.482-44.147-.562-.163-1.142-.163-1.703 0-7.214 2.097-68.176 18.025-107.595 37.683 4.109 60.998 11.363 130.389 33.018 169.929 13.959 25.487 56.968 50.208 92.018 64.173 25.211-11.914 59.763-35.124 71.839-57.173 25.009-45.663 33.744-145.924 33.744-166.524 0-1.622-.638-3.221-1.839-3.941z" fill="#fff0af"/><path d="m186.673 280.762-12.73 16.096c4.817 25.267 11.418 49.98 19.941 65.542 8.452 15.432 40.995 37.011 62.116 46.21l18.417-25.082z" fill="#4980ac"/><path d="m347.516 224.988c-16.946-8.074-45.061-18.881-91.516-31.883l-76.933 25.461c-5.6 2.299-10.429 4.443-14.582 6.422 1.263 17.788 4.362 45.139 9.458 71.87h15.598c-.001-.008-.002-.015-.004-.022 4.644 23.919 10.235 43.035 16.617 54.688 6.784 12.388 32.913 29.712 49.848 37.087l-.002-.001v20l.003.001c21.103-9.189 53.66-30.775 62.113-46.212.568-1.037 1.126-2.12 1.677-3.236l18.265-62.305c5.096-26.731 8.195-54.082 9.458-71.87z" fill="#81a9c8"/><path d="m256 296.858h-66.459c-4.381-22.554-7.918-49.379-10.474-78.292 17.251-7.082 41.864-15.646 76.933-25.461zm0 0v91.752l.003.001c16.918-3.94 43.786-11.857 63.79-29.448 7.717-15.627 13.769-38.722 18.265-62.305z" fill="#bcd1e1"/><path d="m354.161 461.911c-4.842 2.488-8.161 7.521-8.161 13.339 0 8.284 6.716 15 15 15 5.818 0 10.851-3.319 13.339-8.161-2.052 1.055-21.233-18.126-20.178-20.178z" fill="#4980ac"/><path d="m361 460.25c-2.466 0-4.787.606-6.839 1.661-1.055 2.052-1.661 4.373-1.661 6.839 0 8.284 6.716 15 15 15 2.466 0 4.787-.606 6.839-1.661 1.055-2.052 1.661-4.373 1.661-6.839 0-8.284-6.716-15-15-15z" fill="#81a9c8"/><path d="m249.161 461.911c-4.842 2.488-8.161 7.521-8.161 13.339 0 8.284 6.716 15 15 15 5.818 0 10.851-3.319 13.339-8.161-2.052 1.055-21.233-18.126-20.178-20.178z" fill="#4980ac"/><path d="m256 460.25c-2.466 0-4.787.606-6.839 1.661-1.055 2.052-1.661 4.373-1.661 6.839 0 8.284 6.716 15 15 15 2.466 0 4.787-.606 6.839-1.661 1.055-2.052 1.661-4.373 1.661-6.839 0-8.284-6.716-15-15-15z" fill="#81a9c8"/><path d="m144.161 461.911c-4.842 2.488-8.161 7.521-8.161 13.339 0 8.284 6.716 15 15 15 5.818 0 10.851-3.319 13.339-8.161-2.052 1.055-21.233-18.126-20.178-20.178z" fill="#4980ac"/><path d="m151 460.25c-2.466 0-4.787.606-6.839 1.661-1.055 2.052-1.661 4.373-1.661 6.839 0 8.284 6.716 15 15 15 2.466 0 4.787-.606 6.839-1.661 1.055-2.052 1.661-4.373 1.661-6.839 0-8.284-6.716-15-15-15z" fill="#81a9c8"/></g><g><path d="m361 497.75c-12.406 0-22.5-10.094-22.5-22.5 0-3.47.789-6.758 2.198-9.695l-24.704-24.703c-1.406-1.407-2.196-3.314-2.196-5.304v-17.273c-17.679 12.696-37.115 22.812-50.298 27.699v8.062c8.73 3.096 15 11.437 15 21.215 0 12.406-10.094 22.5-22.5 22.5s-22.5-10.094-22.5-22.5c0-9.778 6.27-18.119 15-21.215v-8.062c-13.18-4.886-32.618-15.001-50.298-27.698v17.272c0 1.989-.79 3.896-2.196 5.304l-24.704 24.703c1.409 2.938 2.198 6.226 2.198 9.695 0 12.406-10.094 22.5-22.5 22.5s-22.5-10.094-22.5-22.5 10.094-22.5 22.5-22.5c3.47 0 6.758.789 9.695 2.198l22.507-22.507v-26.025c-6.264-5.497-11.892-11.273-16.396-17.166h-57.661c-60.182 0-109.145-48.962-109.145-109.145 0-38.056 19.772-73.172 51.973-92.99-2.213-10.05-3.333-20.353-3.333-30.705 0-28.602 8.459-56.181 24.464-79.755 2.326-3.428 6.989-4.319 10.418-1.992 3.427 2.326 4.319 6.99 1.992 10.418-14.311 21.078-21.874 45.744-21.874 71.329 0 10.992 1.409 21.918 4.189 32.474.879 3.338-.634 6.844-3.664 8.496-30.326 16.527-49.165 48.226-49.165 82.725 0 51.911 42.233 94.145 94.146 94.145h48.712c-23.225-48.992-31.53-143.131-31.53-163.963 0-4.37 2.1-8.346 5.48-10.374 23.315-13.988 62.943-28.775 117.782-43.949 1.604-.443 4.857-1.387 6.41-1.387s4.804.943 6.406 1.386c8.353 2.312 27.912 7.723 49.821 15.056 3.928 1.314 6.046 5.564 4.731 9.493-1.315 3.927-5.563 6.05-9.493 4.731-21.531-7.206-40.822-12.544-49.06-14.823-.948-.263-1.754-.485-2.406-.668-.652.183-1.46.406-2.409.669-64.139 17.747-96.333 32.085-112.249 41.285.396 21.461 9.107 118.229 32.808 161.502 13.638 24.902 59.838 52.126 81.851 59.513 22.021-7.393 68.214-34.613 81.851-59.513 23.7-43.273 32.411-140.042 32.808-161.502-9.069-5.248-20.968-10.771-35.412-16.437-3.856-1.513-5.756-5.865-4.244-9.721 1.513-3.857 5.862-5.757 9.721-4.244 16.204 6.356 29.483 12.617 39.47 18.608 3.381 2.028 5.48 6.004 5.48 10.374 0 21.744-9.048 123.351-34.666 170.126-4.892 8.932-12.836 17.777-22.209 26.003v26.025l22.507 22.507c2.938-1.409 6.226-2.198 9.695-2.198 12.406 0 22.5 10.094 22.5 22.5s-10.095 22.501-22.501 22.501zm0-30c-4.136 0-7.5 3.364-7.5 7.5s3.364 7.5 7.5 7.5 7.5-3.364 7.5-7.5-3.364-7.5-7.5-7.5zm-105 0c-4.136 0-7.5 3.364-7.5 7.5s3.364 7.5 7.5 7.5 7.5-3.364 7.5-7.5-3.364-7.5-7.5-7.5zm-105 0c-4.136 0-7.5 3.364-7.5 7.5s3.364 7.5 7.5 7.5 7.5-3.364 7.5-7.5-3.364-7.5-7.5-7.5zm105.003-51.639c-1.02 0-2.039-.208-2.994-.624-14.397-6.269-32.28-17.216-45.559-27.889-3.229-2.595-3.742-7.315-1.147-10.544 2.596-3.229 7.316-3.742 10.544-1.147 9.074 7.293 20.833 14.936 31.653 20.708v-92.257h-65.449c4.108 19.632 9.365 38.29 15.869 51.47 1.833 3.715.308 8.212-3.407 10.045-3.713 1.832-8.211.308-10.044-3.406-17.319-35.097-26.193-104.927-28.466-136.947-.218-3.078 1.471-5.976 4.256-7.302 21.552-10.269 52.747-21.147 92.72-32.335 1.322-.369 2.721-.369 4.043 0 39.976 11.188 71.172 22.067 92.72 32.335 2.785 1.327 4.474 4.224 4.256 7.302-2.402 33.839-11.826 106.749-30.303 140.482-9.795 17.888-44.448 40.232-65.697 49.485-.955.416-1.976.624-2.995.624zm7.497-111.753v92.271c19.639-10.449 42.074-26.942 48.038-37.833 15.284-27.905 24.929-90.528 28.102-129.192-18.729-8.447-44.277-17.363-76.14-26.569v86.323h44.553c4.143 0 7.5 3.357 7.5 7.5s-3.357 7.5-7.5 7.5zm-83.346-15h68.346v-86.323c-31.86 9.206-57.407 18.12-76.138 26.568 1.28 15.49 3.831 37.522 7.792 59.755zm241.946 99.892h-45.731c-4.143 0-7.5-3.357-7.5-7.5s3.357-7.5 7.5-7.5h45.731c41.3 0 74.9-33.601 74.9-74.9s-33.601-74.899-74.9-74.899c-4.143 0-7.5-3.357-7.5-7.5 0-45.259-36.82-82.079-82.079-82.079-3.049 0-6.161.176-9.251.521-3.829.437-7.356-2.11-8.167-5.875-12.508-58.099-64.785-100.268-124.303-100.268-31.578 0-61.857 11.654-85.258 32.814-3.07 2.779-7.813 2.542-10.593-.532-2.778-3.072-2.54-7.814.532-10.593 26.163-23.66 60.015-36.689 95.318-36.689 80.44 0 125.32 59.117 137.432 105.717 1.437-.063 2.868-.096 4.289-.096 51.105 0 93.114 39.69 96.814 89.867 46.2 3.697 82.665 42.477 82.665 89.611.001 49.572-40.328 89.901-89.899 89.901z"/></g></g></svg>