<svg id="Capa_1" enable-background="new 0 0 512 512" height="512" viewBox="0 0 512 512" width="512" xmlns="http://www.w3.org/2000/svg"><g><g><path d="m179.538 331.295s0-52.864 0-75.295c0-42.229 34.233-76.462 76.462-76.462s76.462 34.233 76.462 76.462v27.503c0 8.232-30 8.232-30 0 0-6.576 0-22.349 0-27.503 0-25.619-20.842-46.462-46.461-46.462s-46.462 20.843-46.462 46.462v70.911z" fill="#e9edf1"/><path d="m209.539 306.906c-11.217 1.194-21.233 2.735-30 4.391v19.997l30-4.384z" fill="#a2abb8"/><path d="m156 336.668c-5.001 1.361-9.111 2.635-12.262 3.688-4.628 1.547-7.738 5.886-7.738 10.765v126.757c0 4.88 3.111 9.218 7.738 10.765 15.644 5.232 54.525 15.857 112.262 15.857s96.618-10.625 112.262-15.856c4.628-1.547 7.738-5.886 7.738-10.765v-5.547c-19.826 5.394-220-135.664-220-135.664z" fill="#de5791"/><path d="m368.262 340.356c-15.644-5.231-54.525-15.856-112.262-15.856-46.108 0-80.174 6.774-100 12.168v121.211c0 4.88 3.111 9.218 7.738 10.765 15.644 5.231 54.525 15.856 112.262 15.856 46.108 0 80.174-6.774 100-12.168v-121.211c0-4.879-3.111-9.217-7.738-10.765z" fill="#e592b8"/></g><g><path d="m256 512c-57.485 0-96.5-10.177-114.641-16.244-7.691-2.57-12.859-9.755-12.859-17.877v-126.758c0-8.122 5.168-15.307 12.86-17.878 7.087-2.37 17.362-5.368 30.678-8.141v-69.102c0-46.297 37.665-83.962 83.961-83.962 12.453 0 24.443 2.665 35.639 7.92 3.75 1.76 5.362 6.227 3.602 9.976-1.76 3.75-6.228 5.362-9.976 3.603-9.186-4.312-19.032-6.498-29.265-6.498-38.025 0-68.961 30.937-68.961 68.962v66.325c4.721-.77 9.722-1.49 15-2.138v-64.188c0-29.755 24.207-53.962 53.961-53.962s53.961 24.207 53.961 53.962v25.238c3.552 1.277 11.448 1.277 15 0v-25.238c0-17.504-6.566-34.192-18.488-46.991-2.823-3.031-2.655-7.777.375-10.601s7.776-2.656 10.6.376c14.518 15.585 22.513 35.904 22.513 57.216v27.503c0 8.435-8.622 13.675-22.5 13.675s-22.5-5.24-22.5-13.675v-27.503c0-21.483-17.478-38.962-38.961-38.962s-38.96 17.479-38.96 38.962v62.629c11.85-1.016 24.849-1.629 38.961-1.629 57.485 0 96.5 10.177 114.641 16.244 7.691 2.57 12.859 9.755 12.859 17.877v73.43c0 4.143-3.358 7.5-7.5 7.5s-7.5-3.357-7.5-7.5v-73.43c0-1.661-1.051-3.129-2.616-3.651-13.909-4.652-52.457-15.47-109.884-15.47s-95.975 10.818-109.883 15.47c-1.566.522-2.617 1.99-2.617 3.651v126.758c0 1.661 1.051 3.129 2.616 3.651 13.909 4.652 52.457 15.47 109.884 15.47s95.975-10.818 109.883-15.47c1.566-.522 2.617-1.99 2.617-3.651v-23.328c0-4.143 3.358-7.5 7.5-7.5s7.5 3.357 7.5 7.5v23.328c0 8.122-5.168 15.307-12.86 17.878-18.14 6.066-57.155 16.243-114.64 16.243zm.5-42.18c-4.411 0-8-3.589-8-8s3.589-8 8-8 8 3.589 8 8-3.589 8-8 8zm-.5-37.769c-4.142 0-7.5-3.357-7.5-7.5v-60.051c0-4.143 3.358-7.5 7.5-7.5s7.5 3.357 7.5 7.5v60.051c0 4.142-3.358 7.5-7.5 7.5zm248.5-168.551c-4.142 0-7.5-3.357-7.5-7.5 0-68.142-29.048-133.408-79.697-179.063-3.077-2.772-3.323-7.516-.549-10.592s7.515-3.323 10.592-.549c26.377 23.776 47.175 52.159 61.815 84.359 15.155 33.332 22.839 68.944 22.839 105.845 0 4.143-3.358 7.5-7.5 7.5zm-57.346 0c-4.142 0-7.5-3.357-7.5-7.5 0-101.268-82.387-183.654-183.654-183.654-78.46 0-148.283 49.825-173.745 123.984-1.345 3.919-5.611 6.001-9.529 4.658-3.917-1.346-6.003-5.611-4.658-9.529 27.542-80.218 103.067-134.113 187.932-134.113 109.538 0 198.654 89.116 198.654 198.654 0 4.143-3.358 7.5-7.5 7.5zm-57.346 0c-4.142 0-7.5-3.357-7.5-7.5 0-69.646-56.661-126.308-126.308-126.308s-126.308 56.662-126.308 126.308c0 4.143-3.358 7.5-7.5 7.5s-7.5-3.357-7.5-7.5c0-77.917 63.39-141.308 141.308-141.308s141.308 63.391 141.308 141.308c0 4.143-3.358 7.5-7.5 7.5zm-324.962 0c-4.142 0-7.5-3.357-7.5-7.5 0-11.971 1.073-23.964 3.19-35.646.738-4.075 4.641-6.78 8.717-6.042s6.781 4.642 6.042 8.718c-1.958 10.801-2.95 21.894-2.95 32.97.001 4.143-3.357 7.5-7.499 7.5zm-57.346 0c-4.142 0-7.5-3.357-7.5-7.5 0-68.38 26.629-132.668 74.98-181.02 48.353-48.351 112.64-74.98 181.02-74.98 52.797 0 103.49 15.942 146.597 46.104 3.394 2.375 4.22 7.052 1.845 10.445-2.375 3.395-7.051 4.218-10.445 1.846-40.573-28.389-88.292-43.395-137.997-43.395-132.888 0-241 108.112-241 241 0 4.143-3.358 7.5-7.5 7.5z"/></g></g></svg>