<svg id="Capa_1" enable-background="new 0 0 512 512" height="512" viewBox="0 0 512 512" width="512" xmlns="http://www.w3.org/2000/svg"><g><g><path d="m363.5 474.5h-39.615l-45.385-91.22 150 31.22v30z" fill="#a2abb8"/><path d="m363.5 474.5h50c8.25 0 15-6.75 15-15v-15h-65z" fill="#c8d2dc"/><path d="m398.5 54.2h60c8.25 0 15 6.75 15 15v330.3c0 8.25-6.75 15-15 15h-255c-8.25 0-15-6.75-15-15v-107z" fill="#e9edf1"/><path d="m203.5 54.2h195v277.468c0 8.25-6.75 15-15 15h-40v67.832h-30l-125-345.3c0-8.25 6.75-15 15-15z" fill="#c8d2dc"/><path d="m53.5 99.2c-8.25 0-15 6.75-15 15v382.44c0 4.323 3.537 7.86 7.86 7.86h269.28c4.323 0 7.86-3.537 7.86-7.86v-12.14z" fill="#ffd064"/><path d="m108.5 99.2h-55v378.16c0 3.927 3.213 7.14 7.14 7.14h262.86v-157z" fill="#fff0af"/><path d="m308.5 99.2h-200v213.3c0 8.25 6.75 15 15 15h200v-213.3c0-8.25-6.75-15-15-15z" fill="#ffd064"/><path d="m368.5 307.5h-225c-8.25 0-15-6.75-15-15v-270c0-8.25 6.75-15 15-15h225c8.25 0 15 6.75 15 15v270c0 8.25-6.75 15-15 15z" fill="#dce7ef"/><path d="m288.472 190.044c-9.116 6.637-55.827 6.637-64.943 0-15.906 21.433-65.028 9.765-65.028 61.401v26.054h195s0-4.748 0-26.054c-.001-51.635-49.123-39.967-65.029-61.401z" fill="#81a9c8"/><path d="m288.472 190.044c-3.072-4.14-4.913-9.507-4.913-16.811h-55.118c0 7.305-1.841 12.672-4.913 16.811 9.116 6.637 20.333 10.562 32.472 10.562s23.356-3.925 32.472-10.562z" fill="#4980ac"/><path d="m311.241 94.441c0-30.508-24.732-55.241-55.241-55.241-30.508 0-55.241 24.732-55.241 55.241v30.925c0 30.508 24.732 55.241 55.241 55.241s55.241-24.732 55.241-55.241c0-6.732 0-24.194 0-30.925z" fill="#81a9c8"/></g><g><path d="m308.5 512h-255c-12.407 0-22.5-10.094-22.5-22.5v-375.3c0-12.406 10.093-22.5 22.5-22.5h43.11c4.142 0 7.5 3.357 7.5 7.5s-3.358 7.5-7.5 7.5h-43.11c-4.136 0-7.5 3.364-7.5 7.5v375.3c0 4.136 3.364 7.5 7.5 7.5h255c4.136 0 7.5-3.364 7.5-7.5v-174.5h-172.5c-12.407 0-22.5-10.094-22.5-22.5v-270c0-12.406 10.093-22.5 22.5-22.5h225c12.407 0 22.5 10.094 22.5 22.5v75c0 4.143-3.358 7.5-7.5 7.5s-7.5-3.357-7.5-7.5v-75c0-4.136-3.364-7.5-7.5-7.5h-225c-4.136 0-7.5 3.364-7.5 7.5v270c0 4.136 3.364 7.5 7.5 7.5h225c4.136 0 7.5-3.364 7.5-7.5v-165c0-4.143 3.358-7.5 7.5-7.5h45c4.142 0 7.5 3.357 7.5 7.5s-3.358 7.5-7.5 7.5h-37.5v30h37.5c4.142 0 7.5 3.357 7.5 7.5s-3.358 7.5-7.5 7.5h-37.5v30h37.5c4.142 0 7.5 3.357 7.5 7.5s-3.358 7.5-7.5 7.5h-37.5v30h37.5c4.142 0 7.5 3.357 7.5 7.5s-3.358 7.5-7.5 7.5h-37.5v22.5c0 2.628-.453 5.153-1.285 7.5h38.785c4.142 0 7.5 3.357 7.5 7.5s-3.358 7.5-7.5 7.5h-97.5v30h97.5c4.142 0 7.5 3.357 7.5 7.5s-3.358 7.5-7.5 7.5h-97.5v47h127.5c4.136 0 7.5-3.364 7.5-7.5v-330.3c0-4.136-3.364-7.5-7.5-7.5h-45c-4.142 0-7.5-3.357-7.5-7.5s3.358-7.5 7.5-7.5h45c12.407 0 22.5 10.094 22.5 22.5v330.3c0 12.406-10.093 22.5-22.5 22.5h-127.5v45h82.5c4.136 0 7.5-3.364 7.5-7.5v-15c0-4.143 3.358-7.5 7.5-7.5s7.5 3.357 7.5 7.5v15c0 12.406-10.093 22.5-22.5 22.5h-82.5v7.5c0 12.406-10.093 22.5-22.5 22.5zm45-227h-195c-4.142 0-7.5-3.357-7.5-7.5v-26.054c0-38.539 25.48-47.357 44.085-53.796 15.355-5.314 24.074-8.894 25.611-20.443-16.552-11.308-27.437-30.326-27.437-51.841v-30.926c0-34.595 28.146-62.74 62.741-62.74s62.741 28.146 62.741 62.74v30.926c0 21.515-10.884 40.533-27.437 51.841 1.537 11.55 10.256 15.129 25.611 20.443 18.605 6.439 44.085 15.257 44.085 53.796v26.054c0 4.143-3.358 7.5-7.5 7.5zm-187.5-15h180v-18.554c0-27.857-15.752-33.309-33.991-39.621-13.47-4.661-29.709-10.283-34.534-27.505-6.703 2.45-13.935 3.786-21.475 3.786s-14.772-1.336-21.475-3.786c-4.825 17.222-21.064 22.844-34.534 27.505-18.239 6.313-33.991 11.764-33.991 39.621zm90-223.3c-26.324 0-47.741 21.416-47.741 47.74v30.926c0 26.324 21.417 47.74 47.741 47.74s47.741-21.416 47.741-47.74v-30.926c0-26.324-21.417-47.74-47.741-47.74z"/></g></g></svg>