<svg id="Capa_1" enable-background="new 0 0 511 511" height="512" viewBox="0 0 511 511" width="512" xmlns="http://www.w3.org/2000/svg"><g><g><path d="m412.5 187h15c8.25 0 15 6.75 15 15v257c0 8.25-6.75 15-15 15h-195c-8.25 0-15-6.75-15-15v-15z" fill="#a2abb8"/><path d="m312.5 399h85c8.25 0 15-6.75 15-15v-257c0-8.25-6.75-15-15-15h-15z" fill="#c8d2dc"/><path d="m352.5 324h15c8.25 0 15-6.75 15-15v-257c0-8.25-6.75-15-15-15h-195c-8.25 0-15 6.75-15 15v16.7z" fill="#e9edf1"/><path d="m327.5 248.651c0-35.363 0-144.951 0-144.951 0-8.25-6.75-15-15-15h-210z" fill="#c8d2dc"/><path d="m330 198.7c-16.214-8.172-22.5-12.367-22.5-30.049 0-35.363 0-84.951 0-84.951 0-8.25-6.75-15-15-15h-210c-8.25 0-15 6.75-15 15v345.3c0 8.25 6.75 15 15 15h255c8.25 0 15-6.75 15-15 0 0 0-164.888 0-200.251 0-17.682-6.286-21.877-22.5-30.049z" fill="#fff0af"/><path d="m82.5 68.7c-8.25 0-15 6.75-15 15v345.3c0 8.25 6.75 15 15 15h255c8.25 0 15-6.75 15-15v-5z" fill="#ffd064"/><path d="m330 198.7c-16.214-8.172-22.5-12.367-22.5-30.049 0-35.363 0-84.951 0-84.951 0-8.25-6.75-15-15-15h-210v344.16c0 6.127 5.013 11.14 11.14 11.14h258.86c0-27.823 0-163.557 0-195.251 0-17.682-6.286-21.877-22.5-30.049z" fill="#fff0af"/><path d="m166 266.824c-4.868 1.136-8.608 2.261-11.131 3.104-2.314.774-3.869 2.943-3.869 5.383v63.379c0 2.44 1.555 4.609 3.869 5.383 7.822 2.614 27.262 7.927 56.131 7.927s48.309-5.313 56.131-7.928c2.314-.774 3.869-2.943 3.869-5.383v-10.351c-5.219 2.155-105-61.514-105-61.514z" fill="#ebb044"/><path d="m267.131 269.928c-7.822-2.615-27.262-7.928-56.131-7.928-19.556 0-34.778 2.438-45 4.824v63.828s19.276 6.349 53.287 6.349c28.384 0 46.494-6.507 51.713-8.662v-53.027c0-2.441-1.555-4.61-3.869-5.384z" fill="#ffd064"/></g><g><path d="m488.5 481.5h-15c-4.143 0-7.5-3.357-7.5-7.5s3.357-7.5 7.5-7.5h15c4.136 0 7.5-3.364 7.5-7.5v-405.3c0-4.136-3.364-7.5-7.5-7.5h-15c-4.143 0-7.5-3.357-7.5-7.5s3.357-7.5 7.5-7.5h15c12.406 0 22.5 10.094 22.5 22.5v405.3c0 12.406-10.094 22.5-22.5 22.5zm-61 0h-195c-12.407 0-22.5-10.094-22.5-22.5v-7.5h-127.5c-12.407 0-22.5-10.094-22.5-22.5v-345.3c0-12.406 10.093-22.5 22.5-22.5h67.5v-9.2c0-12.406 10.093-22.5 22.5-22.5h195c12.406 0 22.5 10.094 22.5 22.5v52.5h7.5c12.406 0 22.5 10.094 22.5 22.5v52.5h7.5c12.406 0 22.5 10.094 22.5 22.5v257c0 12.406-10.094 22.5-22.5 22.5zm-202.5-30v7.5c0 4.136 3.364 7.5 7.5 7.5h195c4.136 0 7.5-3.364 7.5-7.5v-257c0-4.136-3.364-7.5-7.5-7.5h-7.5v189.5c0 12.406-10.094 22.5-22.5 22.5h-15c-4.143 0-7.5-3.357-7.5-7.5s3.357-7.5 7.5-7.5h15c4.136 0 7.5-3.364 7.5-7.5v-257c0-4.136-3.364-7.5-7.5-7.5h-7.5v189.5c0 12.406-10.094 22.5-22.5 22.5h-7.5v97.5c0 12.406-10.094 22.5-22.5 22.5zm-142.5-375.3c-4.136 0-7.5 3.364-7.5 7.5v345.3c0 4.136 3.364 7.5 7.5 7.5h255c4.136 0 7.5-3.364 7.5-7.5v-200.251c0-13.134-2.542-15.371-18.376-23.352-16.507-8.319-26.624-14.545-26.624-36.746 0-4.143 3.357-7.5 7.5-7.5s7.5 3.357 7.5 7.5c0 13.133 2.542 15.371 18.376 23.352 16.507 8.319 26.624 14.546 26.624 36.746v87.751h7.5c4.136 0 7.5-3.364 7.5-7.5v-257c0-4.136-3.364-7.5-7.5-7.5h-195c-4.136 0-7.5 3.364-7.5 7.5v9.2h127.5c12.406 0 22.5 10.094 22.5 22.5v54.951c0 4.143-3.357 7.5-7.5 7.5s-7.5-3.357-7.5-7.5v-54.951c0-4.136-3.364-7.5-7.5-7.5zm-45 405.3h-15c-12.407 0-22.5-10.094-22.5-22.5v-405.3c0-12.406 10.093-22.5 22.5-22.5h15c4.142 0 7.5 3.357 7.5 7.5s-3.358 7.5-7.5 7.5h-15c-4.136 0-7.5 3.364-7.5 7.5v405.3c0 4.136 3.364 7.5 7.5 7.5h15c4.142 0 7.5 3.357 7.5 7.5s-3.358 7.5-7.5 7.5zm173.5-122c-29.271 0-49.222-5.21-58.509-8.314-5.378-1.801-8.991-6.822-8.991-12.496v-63.379c0-5.674 3.612-10.695 8.989-12.495 3.232-1.08 7.755-2.416 13.511-3.697v-34.619c0-24.813 20.187-45 45-45s45 20.187 45 45v34.617c5.756 1.282 10.278 2.617 13.509 3.697 5.379 1.801 8.991 6.822 8.991 12.496v63.379c0 5.674-3.612 10.695-8.988 12.495-9.289 3.106-29.241 8.316-58.512 8.316zm-52.5-22.133c7.663 2.433 25.917 7.133 52.5 7.133s44.834-4.699 52.5-7.133v-60.734c-7.663-2.433-25.916-7.133-52.5-7.133-26.582 0-44.834 4.699-52.5 7.133zm52.5-142.867c-16.542 0-30 13.458-30 30v31.955c8.519-1.157 18.546-1.955 30-1.955s21.481.798 30 1.955v-31.955c0-16.542-13.458-30-30-30z"/></g></g></svg>