<svg id="Capa_1" enable-background="new 0 0 510.3 510.3" height="512" viewBox="0 0 510.3 510.3" width="512" xmlns="http://www.w3.org/2000/svg"><g><g><path d="m129.52 269.26h72.88v173.54h-72.88z" fill="#ebb044"/><path d="m104.9 273.24 195-.44c8.25 0 15-6.75 15-15v-235.3c0-8.25-6.75-15-15-15h-195c-8.25 0-15 6.75-15 15v235.74c0 8.25 6.75 15 15 15z" fill="#c8d2dc"/><path d="m168.458 205.799c-13.35 0-19.558-10.667-19.558-28.349 0-35.363 0-115.42 0-115.42 0-8.25-6.75-14.259-15-13.54l-40 3.483-4 90.777v115.05c0 8.25 6.75 35 15 35h74l19.558-87c0-.001-17.741-.001-30-.001z" fill="#a2abb8"/><path d="m441.4 87.5h-195c-8.25 0-15 6.75-15 15v255.3z" fill="#a2abb8"/><path d="m423.9 352.8h37.5c8.25 0 15-6.75 15-15v-255.3c0-8.25-6.75-15-15-15h-195c-8.25 0-15 6.75-15 15v255.3c0 8.25 164.25 15 172.5 15z" fill="#f9c8dc"/><path d="m383.9 352.8h40v-120.3c0-8.25-6.75-15-15-15h-195z" fill="#e592b8"/><path d="m193.9 452.8h19.664c8.25 0 190.336-6.75 190.336-15v-225.3c0-8.25-6.75-15-15-15h-195c-8.25 0-15 6.75-15 15v225.3c0 8.25 6.75 15 15 15z" fill="#e9edf1"/><path d="m332.955 303.358c-7.358-12.744-25.753-12.744-33.111 0l-86.28 149.442h175.336c8.25 0 15-6.75 15-15v-11.562z" fill="#c8d2dc"/><path d="m48.9 62.969c0-.155.019-.312.023-.468l-.023.008c-8.25 3.003-15 12.209-15 20.459v344.832c0 8.25 6.75 17.457 15 20.459l85 30.938c8.25 3.003 15-1.29 15-9.54 0 0 0-3.805 0-10.46z" fill="#ffd064"/><path d="m134.458 196.799c-10.407-8.425-15.558-11.667-15.558-29.349 0-35.363 0-115.42 0-115.42 0-8.25-6.75-12.543-15-9.54l-54.977 20.01c-.005.156-.023.313-.023.468v344.832c0 8.25 6.75 17.457 15 20.459l85 30.938c0-42.443 0-201.078 0-231.648 0-17.682-4.035-22.324-14.442-30.75z" fill="#fff0af"/><path d="m473.095 474.125-110.14-190.767c-7.358-12.744-25.753-12.744-33.111 0l-110.139 190.767c-7.358 12.744 1.839 28.675 16.555 28.675h220.279c14.716 0 23.914-15.931 16.556-28.675z" fill="#e592b8"/></g><g><path d="m138.428 190.365c11.706 9.477 17.972 16.78 17.972 37.184v57.751h15v-72.8c0-12.406 10.094-22.5 22.5-22.5h50v-107.5c0-12.406 10.094-22.5 22.5-22.5h137.5c4.143 0 7.5 3.357 7.5 7.5s-3.357 7.5-7.5 7.5h-137.5c-4.136 0-7.5 3.364-7.5 7.5v107.5h130c12.406 0 22.5 10.094 22.5 22.5v132.8h50c4.136 0 7.5-3.364 7.5-7.5v-255.3c0-4.136-3.364-7.5-7.5-7.5h-27.5c-4.143 0-7.5-3.357-7.5-7.5s3.357-7.5 7.5-7.5h27.5c12.406 0 22.5 10.094 22.5 22.5v255.3c0 12.406-10.094 22.5-22.5 22.5h-45.362l36.391 63.03c2.071 3.587.842 8.174-2.745 10.245-3.586 2.07-8.175.843-10.245-2.745l-82.979-143.722c-2.1-3.638-5.861-5.809-10.061-5.809s-7.961 2.171-10.061 5.809l-110.137 190.767c-2.1 3.637-2.1 7.979 0 11.616 2.1 3.638 5.86 5.809 10.06 5.809h220.279c4.199 0 7.96-2.171 10.06-5.809 2.1-3.637 2.1-7.979 0-11.616l-12.312-21.325c-2.071-3.587-.842-8.174 2.745-10.245 3.586-2.069 8.175-.843 10.245 2.745l12.312 21.325c4.812 8.333 4.812 18.283.001 26.616-4.812 8.333-13.429 13.309-23.051 13.309h-220.28c-9.622 0-18.239-4.976-23.051-13.309-4.811-8.333-4.811-18.283.001-26.616l5.816-10.075h-25.126c-7.785 0-14.659-3.974-18.7-10h-18.8v19.356c0 6.24-2.651 11.676-7.275 14.914-4.866 3.407-11.35 4.018-17.789 1.675l-85.001-30.938c-11.178-4.069-19.935-16.151-19.935-27.507v-344.831c0-11.356 8.757-23.438 19.935-27.508l36.065-13.127v-19.834c0-12.406 10.094-22.5 22.5-22.5h195c12.406 0 22.5 10.094 22.5 22.5v13.3c0 4.143-3.357 7.5-7.5 7.5s-7.5-3.357-7.5-7.5v-13.3c0-4.136-3.364-7.5-7.5-7.5h-195c-4.136 0-7.5 3.364-7.5 7.5v14.375l3.935-1.433c6.44-2.343 12.924-1.732 17.79 1.675 4.624 3.238 7.275 8.674 7.275 14.914v85.42c0 4.143-3.357 7.5-7.5 7.5s-7.5-3.357-7.5-7.5v-85.42c0-.604-.086-2.071-.879-2.627-.61-.428-1.995-.615-4.057.134l-54.999 20.019c-5.267 1.917-10.065 8.309-10.065 13.412v344.831c0 5.103 4.798 11.495 10.065 13.412l85 30.938c2.061.75 3.444.562 4.056.134.793-.556.879-2.022.879-2.627v-242.108c0-14.821-3.344-18.186-12.395-25.513-10.774-8.675-17.605-15.123-17.605-34.585 0-4.143 3.357-7.5 7.5-7.5s7.5 3.357 7.5 7.5c0 13.23 3.139 15.758 12.028 22.914zm55.472 14.635c-4.136 0-7.5 3.364-7.5 7.5v225.3c0 4.136 3.364 7.5 7.5 7.5h33.787l95.662-165.691c4.812-8.334 13.429-13.309 23.051-13.309s18.239 4.975 23.051 13.309l26.949 46.678v-113.787c0-4.136-3.364-7.5-7.5-7.5zm-37.5 230.3h15v-135h-15zm190 29c-4.411 0-8-3.589-8-8s3.589-8 8-8 8 3.589 8 8-3.589 8-8 8zm0-29.72c-4.143 0-7.5-3.357-7.5-7.5v-76.36c0-4.143 3.357-7.5 7.5-7.5s7.5 3.357 7.5 7.5v76.36c0 4.143-3.358 7.5-7.5 7.5z"/></g></g></svg>