<svg id="Capa_1" enable-background="new 0 0 512 512" height="512" viewBox="0 0 512 512" width="512" xmlns="http://www.w3.org/2000/svg"><g><g><path d="m479.572 370.021c20.072 0 24.928-9.136 24.928-20.406s0-14.861 0-21.765-5.596-12.5-12.5-12.5-12.5 5.596-12.5 12.5h-198.5c0-6.904-5.596-12.5-12.5-12.5s-12.5 5.596-12.5 12.5v21.765c0 11.27 4.857 20.406 24.928 20.406z" fill="#de5791"/><path d="m231.072 370.021c20.072 0 24.928-9.136 24.928-20.406s0-14.861 0-21.765-5.596-12.5-12.5-12.5-12.5 5.596-12.5 12.5h-198.5c0-6.904-5.597-12.5-12.5-12.5-6.904 0-12.5 5.596-12.5 12.5v21.765c0 11.27 4.857 20.406 24.928 20.406z" fill="#ffd064"/><path d="m380.25 192.968c-54.814 0-99.25 44.436-99.25 99.25v76.661c0 54.884 44.436 100.153 99.25 100.153-42.127 0-42.127-276.064 0-276.064z" fill="#de5791"/><path d="m479.5 368.879c0-18.857 0-65.989 0-76.661 0-54.814-44.436-99.25-99.25-99.25-42.127 0-69.25 44.436-69.25 99.25v76.661c0 54.884 27.123 100.153 69.25 100.153 54.814 0 99.25-45.27 99.25-100.153z" fill="#e592b8"/><path d="m62.5 239.696s0-62.162 0-82.478c0-38.246 31.004-69.25 69.25-69.25s69.25 31.004 69.25 69.25v16.632s-30 8.232-30 0c0-6.576 0-12.278 0-16.632 0-21.642-17.607-39.25-39.25-39.25s-39.25 17.608-39.25 39.25v78.094z" fill="#e9edf1"/><path d="m92.5 215.307c-11.217 1.194-21.233 2.735-30 4.391v19.997l30-4.384z" fill="#a2abb8"/><path d="m62.5 238.786c-10.441 1.642-18.206 3.371-23.21 4.643-3.999 1.016-6.79 4.615-6.79 8.741v116.708c0 54.884 44.436 100.153 99.25 100.153-42.127.001-69.25-187.347-69.25-230.245z" fill="#ffd064"/><path d="m231 368.879v-116.709c0-4.126-2.792-7.725-6.79-8.741-12.9-3.278-44.06-9.603-92.46-9.603-29.624 0-52.777 2.37-69.25 4.96v130.092c0 54.884 27.123 100.153 69.25 100.153 54.814.001 99.25-45.269 99.25-100.152z" fill="#fff0af"/><path d="m311 370.021c0 25.324 18.107 69.011 69.25 69.011s69.25-43.687 69.25-69.011z" fill="#fff"/><path d="m455.526 150.951c27.126 18.084 27.247 35.391 24.677 53.711-.264 1.884 2.101 2.965 3.33 1.513 7.302-8.626 11.967-20.945 11.967-34.133 0-15.573-4.5-28.073-21.646-43.641z" fill="#de5791"/><path d="m263.89 132.968h44.22c4.358 0 7.89-3.532 7.89-7.89v-7.11h34.013c21.664 30.879 44.22 45 69.487 45 24.028 0 44.747-14.13 54.328-34.528-.555.82-122.908-30.332-122.908-30.332l-94.92 4.86v22.11c0 4.357 3.532 7.89 7.89 7.89z" fill="#de5791"/><path d="m426.88 144.908c35.333 0 46.393-15.648 46.948-16.468 3.632-7.733 5.672-16.363 5.672-25.472 0-33.137-26.863-60-60-60-25.268 0-47.821 14.129-69.487 45h-79.013c-8.284 0-15 6.716-15 15h107.268s22.857 41.94 63.612 41.94zm7.62-56.94c8.284 0 15 6.716 15 15s-6.716 15-15 15-15-6.716-15-15c0-8.285 6.716-15 15-15z" fill="#e592b8"/><path d="m159.285 413.781c0 9.75-14.011 17.655-27.535 17.655s-27.535-7.904-27.535-17.655 14.011-21.321 27.535-21.321 27.535 11.57 27.535 21.321z" fill="#d99f36"/></g><g><path d="m380.25 476.532c-56.114 0-102.254-43.886-106.44-99.411-8.251-.987-13.944-3.728-17.81-7.394-3.865 3.666-9.559 6.406-17.81 7.394-4.187 55.525-50.326 99.411-106.44 99.411s-102.254-43.886-106.44-99.411c-20.708-2.478-25.31-15.992-25.31-27.506v-21.765c0-11.028 8.972-20 20-20 1.726 0 3.401.22 5 .633v-56.313c0-7.565 5.117-14.148 12.444-16.01 4.327-1.1 10.18-2.422 17.556-3.736v-75.206c0-42.32 34.43-76.75 76.75-76.75s76.75 34.43 76.75 76.75v16.632c0 7.984-8.481 12.751-22.689 12.751-13.97 0-22.311-4.767-22.311-12.751v-16.632c0-17.507-14.243-31.75-31.75-31.75s-31.75 14.243-31.75 31.75v70.044c9.619-.585 20.203-.936 31.75-.936 13.71 0 27.113.507 39.838 1.508 4.129.324 7.214 3.935 6.889 8.064-.324 4.129-3.924 7.224-8.064 6.889-12.335-.97-25.343-1.461-38.662-1.461-48.498 0-79.524 6.555-90.612 9.372-.672.171-1.139.776-1.139 1.472v116.709c0 51.089 41.159 92.653 91.75 92.653s91.75-41.564 91.75-92.653v-116.709c0-.696-.473-1.303-1.15-1.476-4.538-1.152-12.129-2.869-22.514-4.501-4.093-.644-6.888-4.481-6.245-8.573.643-4.094 4.483-6.882 8.573-6.245 10.954 1.722 19.032 3.551 23.879 4.781 7.335 1.865 12.457 8.449 12.457 16.014v56.313c1.599-.413 3.274-.633 5-.633 4.726 0 9.073 1.647 12.5 4.398 3.427-2.751 7.774-4.398 12.5-4.398 1.726 0 3.401.22 5 .633v-16.265c0-12.601 2.176-24.937 6.466-36.666 1.424-3.89 5.733-5.889 9.62-4.468 3.891 1.424 5.891 5.73 4.468 9.62-3.686 10.074-5.554 20.677-5.554 31.514v76.661c0 51.089 41.159 92.653 91.75 92.653s91.75-41.564 91.75-92.653v-76.661c0-50.591-41.159-91.75-91.75-91.75-27.39 0-53.14 12.104-70.647 33.206-2.646 3.187-7.374 3.627-10.562.983-3.188-2.646-3.628-7.374-.983-10.562 20.368-24.549 50.326-38.628 82.192-38.628 58.862 0 106.75 47.888 106.75 106.75v16.265c1.599-.413 3.274-.633 5-.633 11.028 0 20 8.972 20 20v21.766c0 11.514-4.602 25.027-25.31 27.506-4.186 55.525-50.326 99.411-106.44 99.411zm-111.75-153.682c-2.757 0-5 2.243-5 5v21.766c0 4.525.001 10.441 10 12.313v-34.079c0-2.757-2.243-5-5-5zm-30 5v34.078c9.999-1.871 10-7.787 10-12.313v-21.765c0-2.757-2.243-5-5-5s-5 2.243-5 5zm248.5 0v34.078c9.999-1.871 10-7.787 10-12.313v-21.765c0-2.757-2.243-5-5-5s-5 2.243-5 5zm-467-5c-2.757 0-5 2.243-5 5v21.766c0 4.525.001 10.441 10 12.313v-34.079c0-2.757-2.243-5-5-5zm111.75-227.382c-34.049 0-61.75 27.701-61.75 61.75v72.891c4.619-.61 9.616-1.184 15-1.69v-71.2c0-25.778 20.972-46.75 46.75-46.75s46.75 20.972 46.75 46.75v13.663c3.755.985 11.218.953 15-.062v-13.602c0-34.049-27.701-61.75-61.75-61.75zm248.5 351.064c-31.484 0-49.86-15.18-59.731-27.914-10.656-13.748-17.019-31.915-17.019-48.597 0-4.143 3.357-7.5 7.5-7.5h93.737c4.143 0 7.5 3.357 7.5 7.5s-3.357 7.5-7.5 7.5h-85.723c3.119 23.449 20.747 54.011 61.235 54.011s58.116-30.562 61.235-54.011h-6.748c-4.143 0-7.5-3.357-7.5-7.5s3.357-7.5 7.5-7.5h14.764c4.143 0 7.5 3.357 7.5 7.5 0 16.682-6.362 34.849-17.019 48.597-9.871 12.735-28.247 27.914-59.731 27.914zm-248.5-7.596c-16.92 0-35.035-10.108-35.035-25.155 0-14.275 17.682-28.82 35.035-28.82s35.035 14.545 35.035 28.82c0 15.046-18.115 25.155-35.035 25.155zm0-38.976c-9.937 0-20.035 8.866-20.035 13.82 0 3.918 9.169 10.155 20.035 10.155s20.035-6.237 20.035-10.155c0-4.954-10.098-13.82-20.035-13.82zm272.987-68.452c-4.143 0-7.5-3.357-7.5-7.5v-21.272c0-4.143 3.357-7.5 7.5-7.5h33.23c4.143 0 7.5 3.357 7.5 7.5s-3.357 7.5-7.5 7.5h-25.73v13.772c0 4.142-3.357 7.5-7.5 7.5zm-82.205 0c-4.143 0-7.5-3.357-7.5-7.5v-21.272c0-4.143 3.357-7.5 7.5-7.5h33.23c4.143 0 7.5 3.357 7.5 7.5s-3.357 7.5-7.5 7.5h-25.73v13.772c0 4.142-3.357 7.5-7.5 7.5zm-133.064 0c-4.143 0-7.5-3.357-7.5-7.5v-17.976c-2.661-2.03-5.818-3.124-9.115-3.124-4.184 0-8.143 1.763-11.148 4.962-2.836 3.019-7.582 3.168-10.602.332s-3.168-7.583-.332-10.602c5.871-6.25 13.713-9.692 22.082-9.692s16.211 3.442 22.082 9.692c1.306 1.391 2.033 3.227 2.033 5.135v21.272c0 4.143-3.358 7.501-7.5 7.501zm-82.205 0c-4.143 0-7.5-3.357-7.5-7.5v-17.976c-2.661-2.03-5.818-3.124-9.115-3.124-4.184 0-8.143 1.763-11.148 4.962-2.836 3.019-7.582 3.168-10.602.332s-3.168-7.583-.332-10.602c5.871-6.25 13.713-9.692 22.082-9.692s16.211 3.442 22.082 9.692c1.306 1.391 2.033 3.227 2.033 5.135v21.272c0 4.143-3.358 7.501-7.5 7.501zm87.445-52.547c-9.913-10.553-26.3-9.311-34.898-5.899-3.847 1.525-8.209-.354-9.737-4.206-1.527-3.85.355-8.209 4.206-9.737 14.865-5.897 37.28-5.418 51.363 9.573 2.836 3.02 2.688 7.766-.332 10.602-3.016 2.83-7.771 2.681-10.602-.333zm-136.518.332c-3.02-2.836-3.168-7.582-.332-10.602 14.082-14.991 36.498-15.473 51.363-9.573 3.851 1.528 5.733 5.888 4.206 9.737-1.528 3.851-5.891 5.729-9.737 4.206-8.598-3.412-24.985-4.653-34.898 5.899-2.831 3.015-7.586 3.164-10.602.333zm336.042 1.033c-4.143 0-7.5-3.357-7.5-7.5s3.357-7.5 7.5-7.5c10.944 0 31.477-7.471 40.559-16.747 2.898-2.961 7.646-3.009 10.606-.112 2.96 2.898 3.01 7.646.112 10.606-12.262 12.525-36.865 21.253-51.277 21.253zm-27.964 0c-14.411 0-39.015-8.729-51.277-21.253-2.897-2.96-2.848-7.708.112-10.606 2.958-2.896 7.706-2.849 10.606.112 9.082 9.276 29.614 16.747 40.559 16.747 4.143 0 7.5 3.357 7.5 7.5s-3.358 7.5-7.5 7.5zm115.861-65.972c-1.298 0-2.614-.271-3.87-.833-3.866-1.73-6.07-5.708-5.483-9.9 2.193-15.634 2.245-28.924-17.297-43.531-10.758 6.807-23.087 10.378-35.979 10.378-27.198 0-51.22-14.729-73.342-45h-22.663c-.208 8.307-7.029 15-15.385 15h-44.22c-8.486 0-15.39-6.903-15.39-15.39v-22.11c0-12.406 10.094-22.5 22.5-22.5h75.159c22.129-30.271 46.151-45 73.341-45 11.866 0 23.539 3.124 33.757 9.035 3.585 2.074 4.811 6.662 2.736 10.248-2.075 3.585-6.662 4.809-10.248 2.736-7.938-4.593-17.013-7.02-26.245-7.02-23.199 0-43.329 13.285-63.349 41.809-1.404 2.001-3.694 3.191-6.139 3.191h-79.012c-4.136 0-7.5 3.364-7.5 7.5v22.11c0 .215.175.39.39.39h14.61v-7.5c0-4.143 3.357-7.5 7.5-7.5s7.5 3.357 7.5 7.5v7.5h14.61c.215 0 .39-.175.39-.39v-7.11c0-4.143 3.357-7.5 7.5-7.5h34.013c2.444 0 4.735 1.191 6.14 3.192 20.011 28.523 40.141 41.808 63.348 41.808 11.476 0 22.376-3.637 31.522-10.518 2.708-2.036 6.372-1.972 8.987-.023 17.206 11.555 24.663 23.211 27.399 34.685.39-2.484.591-5.02.591-7.57 0-12.664-3.161-23.419-18.831-37.765-2.687-2.135-3.613-5.864-2.123-9.039 3.287-7.004 4.954-14.497 4.954-22.27 0-10.398-3.032-20.447-8.769-29.059-2.296-3.448-1.363-8.104 2.084-10.4 3.448-2.297 8.104-1.362 10.4 2.084 7.383 11.085 11.285 24.009 11.285 37.376 0 8.132-1.421 16.029-4.23 23.547 14.307 14.164 20.23 27.665 20.23 45.526 0 14.456-5.009 28.664-13.742 38.979-1.836 2.17-4.444 3.334-7.129 3.334zm-47.629-88.886c-12.406 0-22.5-10.094-22.5-22.5s10.094-22.5 22.5-22.5 22.5 10.094 22.5 22.5-10.094 22.5-22.5 22.5zm0-30c-4.136 0-7.5 3.364-7.5 7.5s3.364 7.5 7.5 7.5 7.5-3.364 7.5-7.5-3.364-7.5-7.5-7.5z"/></g></g></svg>