<svg id="Capa_1" enable-background="new 0 0 512 512" height="512" viewBox="0 0 512 512" width="512" xmlns="http://www.w3.org/2000/svg"><g><g><path d="m35.873 193.926c-17.566 18.269-28.373 43.084-28.373 70.429 0 56.137 45.508 101.645 101.645 101.645h312.955c35.091 0 65.039-21.945 76.92-52.852-14.794 14.146-468.527-106.831-463.147-119.222z" fill="#81a9c8"/><path d="m422.1 201.2c0-49.473-40.106-89.579-89.579-89.579-3.411 0-6.775.197-10.087.569-13.066-60.696-67.033-106.19-131.634-106.19-74.371 0-134.66 60.289-134.66 134.66 0 11.885 1.546 23.407 4.437 34.384-9.188 5.007-17.509 11.398-24.704 18.881-5.379 12.392-8.373 26.059-8.373 40.429 0 56.138 45.508 101.646 101.645 101.646h312.955c22.086 0 42.125-8.706 56.92-22.852 3.527-9.175 5.479-19.131 5.479-29.548.001-45.508-36.891-82.4-82.399-82.4z" fill="#bcd1e1"/><path d="m278.5 397.5h36.081c6.16 0 9.855 7.432 5.64 11.925-9.892 10.543-55.433 59.078-58.581 62.433s-8.131 3.355-11.279 0-48.689-51.89-58.581-62.433c-4.215-4.492-.521-11.925 5.64-11.925h36.08v.168-31.668c9.118-15 0-30 0-30v-260.145c27.5 14.145 45 44.145 45 113.145v147c-7.46 13.431 0 30 0 30v31.668z" fill="#9cd169"/></g><g><path d="m370.071 512h-228.142c-2.866 0-5.48-1.633-6.739-4.208l-24.429-50c-1.818-3.722-.275-8.212 3.446-10.03 3.721-1.821 8.212-.275 10.031 3.446l22.374 45.792h218.775l22.374-45.792c1.818-3.723 6.309-5.268 10.031-3.446 3.722 1.818 5.265 6.309 3.446 10.03l-24.429 50c-1.258 2.575-3.872 4.208-6.738 4.208zm-114.071-30.126c-4.208 0-8.153-1.734-11.109-4.884l-58.581-62.434c-3.931-4.189-4.933-10.119-2.614-15.476 2.388-5.517 7.775-9.081 13.723-9.081h28.581v-274.144c0-4.143 3.358-7.5 7.5-7.5s7.5 3.357 7.5 7.5v281.645c0 4.143-3.358 7.5-7.5 7.5h-35.587l57.917 61.727c.098.104.169.143.189.149-.019-.007.052-.045.151-.149l57.917-61.727h-35.587c-4.142 0-7.5-3.357-7.5-7.5v-208.5c0-75.713-21.874-96.674-40.93-106.475-3.684-1.895-5.134-6.417-3.239-10.101s6.418-5.133 10.1-3.239c33.935 17.456 49.069 54.408 49.069 119.815v201h28.581c5.948 0 11.334 3.564 13.723 9.081 2.319 5.356 1.317 11.286-2.614 15.476l-58.58 62.434c-2.957 3.149-6.902 4.883-11.11 4.883zm58.529-76.874v.003c0-.001.001-.002.002-.003zm.056 0h.01zm53.915 0c-4.142 0-7.5-3.357-7.5-7.5v-22.5h-37.5c-4.142 0-7.5-3.357-7.5-7.5v-101.645c0-4.143 3.358-7.5 7.5-7.5s7.5 3.357 7.5 7.5v94.145h30v-64.145c0-4.143 3.358-7.5 7.5-7.5s7.5 3.357 7.5 7.5v64.145h46.1c41.3 0 74.9-33.601 74.9-74.9s-33.6-74.9-74.9-74.9c-4.142 0-7.5-3.357-7.5-7.5 0-45.259-36.821-82.079-82.08-82.079-3.049 0-6.162.176-9.251.521-3.831.438-7.357-2.11-8.167-5.875-12.507-58.098-64.784-100.267-124.302-100.267-31.579 0-61.857 11.654-85.258 32.814-3.072 2.778-7.815 2.541-10.593-.532-2.778-3.072-2.54-7.814.533-10.593 26.163-23.659 60.014-36.689 95.318-36.689 32.695 0 64.618 11.374 89.889 32.026 23.205 18.965 39.917 44.94 47.542 73.69 1.436-.063 2.869-.096 4.29-.096 51.105 0 93.114 39.69 96.814 89.867 46.201 3.699 82.665 42.478 82.665 89.613 0 49.571-40.329 89.9-89.9 89.9h-46.1v22.5c0 4.143-3.358 7.5-7.5 7.5zm-225 0c-4.142 0-7.5-3.357-7.5-7.5v-22.5h-26.855c-60.183 0-109.145-48.962-109.145-109.145 0-38.057 19.772-73.172 51.973-92.99-2.213-10.051-3.333-20.354-3.333-30.705 0-28.602 8.459-56.181 24.464-79.755 2.327-3.428 6.991-4.318 10.417-1.992 3.427 2.326 4.319 6.99 1.993 10.418-14.31 21.078-21.874 45.744-21.874 71.329 0 10.991 1.41 21.917 4.19 32.474.879 3.338-.633 6.844-3.664 8.496-30.327 16.527-49.166 48.225-49.166 82.725 0 51.912 42.233 94.145 94.145 94.145h26.855v-64.145c0-4.143 3.358-7.5 7.5-7.5s7.5 3.357 7.5 7.5v64.145h30v-124.145c0-4.143 3.358-7.5 7.5-7.5s7.5 3.357 7.5 7.5v131.645c0 4.143-3.358 7.5-7.5 7.5h-37.5v22.5c0 4.143-3.358 7.5-7.5 7.5zm180-161.645c-4.142 0-7.5-3.357-7.5-7.5v-30c0-4.143 3.358-7.5 7.5-7.5s7.5 3.357 7.5 7.5v30c0 4.143-3.358 7.5-7.5 7.5z"/></g></g></svg>