<svg id="Capa_1" enable-background="new 0 0 512 512" height="512" viewBox="0 0 512 512" width="512" xmlns="http://www.w3.org/2000/svg"><g><g><path d="m150.92 64.392c-67.6 37.151-113.42 109.025-113.42 191.608 0 120.674 97.826 218.5 218.5 218.5 82.583 0 154.456-45.82 191.608-113.419-38.568 54.122-350.811-258.121-296.688-296.689z" fill="#bcd1e1"/><path d="m61.5 237.76c0 117.493 95.247 212.74 212.74 212.74 71.523 0 134.8-35.297 173.368-89.419 17.136-31.181 26.892-66.99 26.892-105.081 0-120.674-97.826-218.5-218.5-218.5-38.091 0-73.9 9.756-105.08 26.892-54.123 38.568-89.42 101.845-89.42 173.368z" fill="#dce7ef"/><path d="m329.515 306.385c1.867-5.745 1.848-55.081 0-60.77-1.867-5.745-30.881-45.648-35.719-49.164-4.887-3.551-51.815-18.779-57.795-18.779-6.041 0-52.957 15.264-57.795 18.779-.009.006-.019.015-.028.022-4.964 3.673-33.847 43.464-35.692 49.142-1.867 5.745-1.848 55.082 0 60.77.005.015.013.034.018.05 2.006 5.912 30.876 45.607 35.701 49.113 4.887 3.551 51.814 18.779 57.795 18.779 6.041 0 52.957-15.263 57.795-18.779 4.888-3.55 33.872-43.475 35.72-49.163z" fill="#bcd1e1"/><path d="m186.4 278.614c1.389 4.276 65.148 50.567 69.6 50.567 4.496 0 68.224-46.334 69.599-50.567 1.389-4.276-22.983-79.203-26.585-81.819-3.637-2.643-82.429-2.616-86.03 0-3.636 2.643-27.959 77.586-26.584 81.819z" fill="#e592b8"/><path d="m212.965 269.983 16.438-50.59s-30.924-42.468-31.226-42.919c-2.15 1.591-8.789 9.96-15.774 19.397-9.139 12.348-8.872 26.526-9.917 29.744-1.867 5.745-11.848 55.081-10 60.77.005.015.013.034.018.05 1.998-.736 50.461-16.452 50.461-16.452z" fill="#de5791"/><path d="m182.403 195.871c-9.14 12.349-18.872 26.526-19.918 29.744-1.867 5.745-1.848 55.081 0 60.769.005.014.015.035.02.05.844-.311 9.412-3.461 19.261-6.929-1.742-7.757-1.291-77.696.637-83.634z" fill="#da0b62"/><path d="m313.795 176.452-31.198 42.941 16.438 50.59 50.48 16.402c1.867-5.745 1.848-55.081 0-60.77-1.867-5.745-30.881-45.648-35.72-49.163z" fill="#de5791"/><path d="m349.458 286.426s-47.947-17.705-50.423-16.443c-2.452 1.25-40.255 31.267-43.035 31.267l-5.873 8.972 5.873 44.105c6.041 0 42.957-15.263 47.795-18.779 2.704-1.965 22.77-15.055 31.535-27.32 7.075-9.899 13.303-19.261 14.128-21.802z" fill="#f9c8dc"/><path d="m256 333.756v20.571c6.041 0 52.957-15.263 57.795-18.779 2.702-1.963 12.768-15.045 21.544-27.313-9.736 4.951-73.471 25.493-79.339 25.521z" fill="#e592b8"/><path d="m313.795 176.452c-4.887-3.551-51.814-18.779-57.795-18.779-6.041 0-52.957 15.263-57.795 18.779-.009.006-.019.015-.028.022.303.451 28.495 42.487 31.226 42.919 2.718.43 51.035.435 53.781 0 2.719-.431 30.611-42.941 30.611-42.941z" fill="#f9c8dc"/><path d="m212.965 269.983c-2.399-1.222-48.463 15.716-50.462 16.452 2.006 5.912 40.876 35.607 45.701 39.113 4.887 3.551 41.814 28.779 47.795 28.779v-53.078c-2.751 0-40.557-30.004-43.034-31.266z" fill="#da0b62"/><path d="m255.986 333.757c-5.981 0-42.922-13.656-45.384-15.444-2.437-1.771-26.878-32.716-28.745-38.461-.031-.096-.061-.214-.091-.346-9.849 3.467-18.417 6.618-19.261 6.929 1.995 5.898 30.873 45.607 35.7 49.114 4.887 3.551 51.814 18.779 57.795 18.779v-20.571c-.004-.001-.01 0-.014 0z" fill="#b3094e"/></g><g><path d="m256 512c-4.142 0-7.5-3.357-7.5-7.5v-22.621c-57.557-1.863-111.393-25.159-152.307-66.073s-64.209-94.748-66.073-152.305h-22.62c-4.142 0-7.5-3.357-7.5-7.5s3.358-7.5 7.5-7.5h22.621c1.863-57.557 25.159-111.393 66.073-152.307s94.749-64.21 152.306-66.073v-22.621c0-4.142 3.358-7.5 7.5-7.5s7.5 3.357 7.5 7.5v22.621c45.401 1.47 88.606 16.279 125.383 43.054 3.349 2.438 4.087 7.129 1.649 10.478-2.439 3.35-7.129 4.087-10.478 1.649-34.194-24.895-74.348-38.708-116.554-40.172v15.409c22.835.889 45.571 5.836 67.314 14.843 3.827 1.585 5.644 5.972 4.059 9.799-1.585 3.826-5.973 5.646-9.799 4.059-19.893-8.24-40.684-12.801-61.574-13.68v16.94c0 4.142-3.358 7.5-7.5 7.5s-7.5-3.357-7.5-7.5v-16.94c-20.89.88-41.682 5.44-61.574 13.68-3.826 1.584-8.213-.231-9.799-4.059-1.585-3.827.232-8.214 4.059-9.799 21.743-9.007 44.479-13.954 67.314-14.843v-15.407c-110.396 3.881-199.498 92.971-203.369 203.369h15.409c.889-22.835 5.835-45.572 14.842-67.315 1.585-3.826 5.971-5.647 9.799-4.059 3.827 1.585 5.644 5.972 4.059 9.799-8.24 19.893-12.8 40.685-13.68 61.575h16.94c4.142 0 7.5 3.357 7.5 7.5s-3.358 7.5-7.5 7.5h-16.94c.88 20.891 5.44 41.681 13.68 61.573 1.585 3.827-.232 8.214-4.059 9.799-3.826 1.585-8.214-.23-9.799-4.059-9.006-21.743-13.953-44.479-14.842-67.313h-15.409c3.881 110.396 92.971 199.497 203.369 203.367v-15.407c-22.835-.889-45.572-5.836-67.315-14.843-3.827-1.585-5.644-5.972-4.059-9.799s5.973-5.647 9.799-4.059c19.893 8.239 40.685 12.8 61.575 13.68v-16.94c0-4.143 3.358-7.5 7.5-7.5s7.5 3.357 7.5 7.5v16.94c20.89-.88 41.681-5.44 61.574-13.68 3.825-1.585 8.213.231 9.799 4.059 1.585 3.827-.232 8.214-4.059 9.799-21.743 9.007-44.479 13.954-67.314 14.843v15.407c110.396-3.881 199.498-92.97 203.368-203.369l-15.408.001c-.889 22.835-5.835 45.571-14.842 67.314-1.585 3.826-5.971 5.646-9.799 4.059-3.827-1.585-5.644-5.972-4.059-9.799 8.24-19.893 12.8-40.685 13.68-61.574h-16.94c-4.142 0-7.5-3.357-7.5-7.5 0-4.142 3.358-7.5 7.5-7.5h16.94c-.88-20.891-5.44-41.682-13.68-61.574-1.585-3.827.232-8.214 4.059-9.799 3.826-1.584 8.215.231 9.799 4.059 9.006 21.743 13.953 44.479 14.842 67.314l15.411-.001c-1.91-55.533-25.01-106.947-65.533-145.463-3.002-2.854-3.123-7.601-.27-10.604 2.855-3.002 7.603-3.121 10.604-.27 21.983 20.895 39.279 45.514 51.406 73.174 11.558 26.361 17.871 54.302 18.802 83.162h22.62c4.142 0 7.5 3.357 7.5 7.5 0 4.142-3.358 7.5-7.5 7.5h-22.621c-1.863 57.557-25.159 111.393-66.073 152.307s-94.749 64.21-152.306 66.073v22.622c0 4.143-3.357 7.5-7.5 7.5zm0-115.837c-4.142 0-7.5-3.357-7.5-7.5v-28.173c-12.57-3.045-35.857-10.611-47.829-15.539l-16.622 22.773c-2.443 3.346-7.135 4.077-10.48 1.636-3.346-2.441-4.078-7.134-1.636-10.479l16.597-22.738c-8.37-9.837-22.756-29.635-29.557-40.671l-26.832 8.718c-3.938 1.278-8.17-.876-9.45-4.815s.876-8.17 4.815-9.45l26.805-8.71c-.992-12.868-.995-37.375-.009-50.313l-26.832-8.718c-3.939-1.28-6.096-5.511-4.815-9.45 1.28-3.94 5.51-6.095 9.45-4.815l26.806 8.71c6.765-11.001 21.18-30.846 29.58-40.727l-16.564-22.799c-2.435-3.351-1.691-8.041 1.659-10.476 3.354-2.436 8.042-1.692 10.476 1.659l16.555 22.785c11.957-4.928 35.295-12.512 47.883-15.561v-28.174c0-4.143 3.358-7.5 7.5-7.5s7.5 3.357 7.5 7.5v28.174c12.589 3.05 35.928 10.633 47.883 15.561l16.558-22.791c2.434-3.351 7.125-4.097 10.476-1.659 3.351 2.435 4.094 7.125 1.66 10.476l-16.568 22.805c8.401 9.883 22.815 29.727 29.58 40.727l26.806-8.71c3.94-1.279 8.17.875 9.451 4.815 1.28 3.939-.875 8.17-4.815 9.45l-26.832 8.719c.986 12.938.983 37.443-.009 50.312l26.805 8.71c3.939 1.28 6.096 5.511 4.815 9.45s-5.51 6.094-9.45 4.815l-26.832-8.718c-6.8 11.035-21.186 30.833-29.556 40.671l16.596 22.738c2.442 3.346 1.709 8.038-1.637 10.479-3.345 2.441-8.037 1.71-10.479-1.636l-16.622-22.773c-11.972 4.928-35.259 12.493-47.83 15.538v28.174c0 4.143-3.358 7.5-7.5 7.5zm0-73.195c4.142 0 7.5 3.357 7.5 7.5v14.619c14.044-3.849 41.147-12.892 45.88-15.615.001-.002.003-.003.004-.004 4.982-4.487 29.67-38.445 32.889-45.194.017-.056.034-.11.052-.165.028-.087.057-.172.088-.257 1.339-7.118 1.352-47.664.038-55.481-.045-.118-.087-.237-.126-.359-.049-.149-.092-.3-.131-.45-2.772-5.607-18.598-27.735-27.541-38.945-2.624 3.85-5.941 8.682-9.309 13.498-4.378 6.261-7.995 11.282-10.747 14.926-1.327 1.757-2.453 3.209-3.446 4.409l6.089 18.742c1.28 3.939-.876 8.17-4.815 9.45-3.94 1.278-8.17-.875-9.45-4.815l-5.769-17.754c-10.765.215-31.647.215-42.412 0l-5.769 17.754c-1.28 3.94-5.509 6.094-9.451 4.815-3.939-1.28-6.095-5.511-4.815-9.45l6.088-18.736c-.725-.877-1.507-1.873-2.375-2.999-2.341-3.037-5.435-7.275-9.195-12.597-2.391-3.383-1.587-8.063 1.796-10.454 3.382-2.389 8.063-1.586 10.453 1.796 6.384 9.033 9.527 13.068 11.013 14.846 8.833.239 38.131.239 46.935 0 3.87-4.608 13.617-18.387 23.151-32.402-13.512-5.127-41.161-13.879-46.628-14.459-6.729.705-47.482 13.948-53.38 17.346-5.033 4.53-30.217 39.197-32.989 45.408-1.122 5.271-1.35 33.526-.684 48.175 4.376-1.577 9.861-3.532 15.375-5.444 7.244-2.514 13.138-4.468 17.519-5.81 8.512-2.607 11.451-3.128 14.532-1.56 1.302.664 2.992 1.907 13.906 10.238 7.334 5.598 19.949 15.226 25.729 19.139 5.803-3.923 18.485-13.607 25.856-19.236 10.805-8.251 12.478-9.483 13.767-10.14 3.144-1.599 6.26-.923 13.149 1.132 3.818 1.138 8.992 2.824 15.376 5.013 3.918 1.343 6.006 5.607 4.663 9.526-1.343 3.918-5.609 6.006-9.526 4.663-10.861-3.722-15.992-5.225-18.359-5.83-2.349 1.741-6.333 4.783-9.966 7.558-30.626 23.387-31.545 23.387-34.965 23.387-3.401 0-4.315 0-34.825-23.287-3.693-2.819-7.743-5.91-10.115-7.666-5.936 1.509-21.779 6.909-37.623 12.633 7.936 12.106 25.108 35.367 29.184 39.045 4.697 2.713 31.816 11.759 45.878 15.611v-14.617c.001-4.146 3.359-7.503 7.501-7.503zm43.085-45.566s0 0 0 0z"/></g></g></svg>