<svg id="Capa_1" enable-background="new 0 0 512 512" height="512" viewBox="0 0 512 512" width="512" xmlns="http://www.w3.org/2000/svg"><g><g><path d="m27.5 61.73c-11.621 4.143-20 15.273-20 28.27v27l12.06 23.124-12.06 31.876v190c0 16.5 13.5 30 30 30h167l189.46-10 80.54 10c13.477 0 24.948-9.008 28.701-21.299 0 0-10.841-158.701-21.881-170.041-18.896-19.41-453.82-138.93-453.82-138.93z" fill="#bce097"/><path d="m504.5 90c0-16.5-13.5-30-30-30h-437c-3.503 0-6.868.614-10 1.73v294.81c0 8.503 6.957 15.46 15.46 15.46h161.54v-129c0-8.25 6.75-15 15-15h210c8.25 0 15 6.75 15 15v129h50c3.023 0 5.944-.457 8.701-1.299.842-2.757 1.299-5.678 1.299-8.701v-190l-6.14-27.5 6.14-27.5z" fill="#dcefc9"/><path d="m27.5 117h-20v55h20l8.99-22.7z" fill="#7e8b96"/><path d="m27.5 117h477v55h-477z" fill="#4e5a61"/><path d="m474.5 227c0-8.25-6.75-15-15-15h-210c-8.25 0-15 6.75-15 15v210c0 8.25 6.75 15 15 15h210c8.25 0 15-6.75 15-15z" fill="#fff0af"/><path d="m307 321.824c-4.868 1.136-8.608 2.261-11.131 3.104-2.314.774-3.869 2.943-3.869 5.383v63.379c0 2.44 1.555 4.609 3.869 5.383 7.822 2.614 27.262 7.927 56.131 7.927s48.309-5.313 56.131-7.928c2.314-.774 3.869-2.943 3.869-5.383v-10.351c-5.219 2.155-105-61.514-105-61.514z" fill="#ebb044"/><path d="m408.131 324.928c-7.822-2.615-27.262-7.928-56.131-7.928-19.556 0-34.778 2.438-45 4.824v63.828s19.276 6.349 53.287 6.349c28.384 0 46.494-6.507 51.713-8.662v-53.027c0-2.441-1.555-4.61-3.869-5.384z" fill="#ffd064"/></g><g><path d="m459.5 459.5h-210c-12.407 0-22.5-10.094-22.5-22.5v-15c0-4.143 3.358-7.5 7.5-7.5s7.5 3.357 7.5 7.5v15c0 4.136 3.364 7.5 7.5 7.5h210c4.136 0 7.5-3.364 7.5-7.5v-210c0-4.136-3.364-7.5-7.5-7.5h-210c-4.136 0-7.5 3.364-7.5 7.5v165c0 4.143-3.358 7.5-7.5 7.5h-197c-20.678 0-37.5-16.822-37.5-37.5v-272c0-20.678 16.822-37.5 37.5-37.5h111.734c4.142 0 7.5 3.357 7.5 7.5s-3.358 7.5-7.5 7.5h-111.734c-12.407 0-22.5 10.094-22.5 22.5v19.5h482v-19.5c0-12.406-10.094-22.5-22.5-22.5h-290.266c-4.142 0-7.5-3.357-7.5-7.5s3.358-7.5 7.5-7.5h290.266c20.678 0 37.5 16.822 37.5 37.5v272c0 18.109-12.904 33.262-30 36.747v38.253c0 12.406-10.094 22.5-22.5 22.5zm-444.5-280v182.5c0 12.406 10.093 22.5 22.5 22.5h189.5v-85h-129.5c-4.142 0-7.5-3.357-7.5-7.5s3.358-7.5 7.5-7.5h129.5v-30h-129.5c-4.142 0-7.5-3.357-7.5-7.5s3.358-7.5 7.5-7.5h129.5v-12.5c0-12.406 10.093-22.5 22.5-22.5h210c12.406 0 22.5 10.094 22.5 22.5v156.215c8.73-3.096 15-11.437 15-21.215v-182.5h-148.5c-4.143 0-7.5-3.357-7.5-7.5s3.357-7.5 7.5-7.5h148.5v-40h-482v40h299.5c4.143 0 7.5 3.357 7.5 7.5s-3.357 7.5-7.5 7.5zm337 235c-29.271 0-49.223-5.21-58.509-8.314-5.379-1.801-8.991-6.822-8.991-12.496v-63.379c0-5.674 3.612-10.695 8.988-12.495 3.232-1.081 7.754-2.416 13.512-3.698v-34.618c0-24.813 20.187-45 45-45s45 20.187 45 45v34.617c5.756 1.282 10.278 2.617 13.509 3.697 5.379 1.801 8.991 6.822 8.991 12.496v63.379c0 5.674-3.612 10.695-8.988 12.495-9.289 3.106-29.241 8.316-58.512 8.316zm-52.5-22.133c7.662 2.433 25.915 7.133 52.5 7.133 26.583 0 44.835-4.699 52.5-7.133v-60.734c-7.662-2.433-25.915-7.133-52.5-7.133-26.583 0-44.835 4.699-52.5 7.133zm52.5-142.867c-16.542 0-30 13.458-30 30v31.955c8.52-1.157 18.546-1.955 30-1.955s21.48.798 30 1.955v-31.955c0-16.542-13.458-30-30-30zm-186.734 95h-67.766c-4.142 0-7.5-3.357-7.5-7.5s3.358-7.5 7.5-7.5h67.766c4.142 0 7.5 3.357 7.5 7.5s-3.358 7.5-7.5 7.5z"/></g></g></svg>