<svg id="Capa_1" enable-background="new 0 0 512 512" height="512" viewBox="0 0 512 512" width="512" xmlns="http://www.w3.org/2000/svg"><g><g><path d="m7.5 116h248.5v270h-248.5z" fill="#a2abb8"/><path d="m504.5 386-477-17.038v-236.277l477-16.685z" fill="#c8d2dc"/><path d="m504.5 411-477-42.038-20 16.685v30c0 8.25 6.75 15 15 15h467c8.25 0 15-6.75 15-15 0-2.447 0-4.647 0-4.647z" fill="#c8d2dc"/><path d="m504.5 96c0-8.25-6.75-15-15-15h-467c-8.25 0-15 6.75-15 15v20l229.282 191.274c11.13 9.285 27.306 9.285 38.435 0l229.283-191.274s0-11.2 0-20z" fill="#e9edf1"/><path d="m236.782 194.372-209.282 174.59v27.038c0 8.25 6.75 15 15 15h462c0-9.998 0-25.354 0-25.354l-229.282-191.274c-11.13-9.284-27.306-9.284-38.436 0z" fill="#e9edf1"/><path d="m22.5 81c-8.25 0-15 6.75-15 15v20l20 16.685 21.5-11.685-21.5-40z" fill="#c8d2dc"/><path d="m275.218 307.274 229.282-191.274s0-11.2 0-20c0-8.25-6.75-15-15-15h-462v51.685l209.282 174.589c11.13 9.285 27.306 9.285 38.436 0z" fill="#e9edf1"/><circle cx="246" cy="270.823" fill="#a2abb8" r="115"/><circle cx="256" cy="251" fill="#de5791" r="115"/><path d="m306.104 309.891c-1.308-1.308-18.892-18.892-38.891-38.891 19.999-19.999 37.583-37.583 38.891-38.891 5.858-5.858 5.858-15.355 0-21.213s-15.355-5.858-21.213 0c-1.308 1.308-18.892 18.892-38.891 38.891-19.999-19.999-37.583-37.583-38.891-38.891-5.858-5.858-15.355-5.858-21.213 0s-5.858 15.355 0 21.213l38.891 38.891c-19.999 19.999-37.583 37.583-38.891 38.891-5.858 5.858-5.858 15.355 0 21.213s15.355 5.858 21.213 0c1.308-1.308 18.892-18.892 38.891-38.891 19.999 19.999 37.583 37.583 38.891 38.891 5.858 5.858 15.355 5.858 21.213 0s5.858-15.355 0-21.213z" fill="#da0b62"/><path d="m316.104 289.891c-1.308-1.308-18.892-18.892-38.891-38.891 19.999-19.999 37.583-37.583 38.891-38.891 5.858-5.858 5.858-15.355 0-21.213s-15.355-5.858-21.213 0c-1.308 1.308-18.892 18.892-38.891 38.891-19.999-19.999-37.583-37.583-38.891-38.891-5.858-5.858-15.355-5.858-21.213 0s-5.858 15.355 0 21.213l38.891 38.891c-19.999 19.999-37.583 37.583-38.891 38.891-5.858 5.858-5.858 15.355 0 21.213s15.355 5.858 21.213 0l38.891-38.891 38.891 38.891c5.858 5.858 15.355 5.858 21.213 0s5.858-15.355 0-21.213z" fill="#f9c8dc"/></g><g><path d="m289.585 185.417c-1.19 1.191-15.872 15.874-33.585 33.587l-33.588-33.589c-8.771-8.771-23.047-8.771-31.82.001-8.771 8.772-8.771 23.047 0 31.82l33.589 33.587c-17.713 17.713-32.396 32.396-33.589 33.588-8.771 8.772-8.771 23.047.001 31.82 8.771 8.771 23.046 8.772 31.822-.002 1.19-1.191 15.872-15.874 33.585-33.587l33.588 33.589c4.386 4.386 10.147 6.578 15.909 6.578s11.524-2.193 15.911-6.579c8.771-8.772 8.771-23.047 0-31.819 0 0 0 0 0-.001l-33.589-33.587c17.713-17.713 32.396-32.396 33.589-33.588 8.771-8.772 8.771-23.047-.001-31.82-8.77-8.77-23.046-8.772-31.822.002zm21.218 21.21c-1.309 1.308-18.894 18.893-38.894 38.893-2.929 2.93-2.929 7.678 0 10.607l38.892 38.89c2.924 2.925 2.924 7.684.001 10.607-2.925 2.923-7.683 2.925-10.607 0l-38.891-38.892c-2.93-2.928-7.678-2.928-10.607 0-20 20-37.585 37.585-38.89 38.892-2.925 2.923-7.683 2.924-10.607.001-2.924-2.925-2.924-7.684-.002-10.605 1.309-1.308 18.894-18.893 38.894-38.893 2.929-2.93 2.929-7.678 0-10.607l-38.892-38.89c-2.924-2.925-2.924-7.684-.001-10.607 1.463-1.462 3.384-2.193 5.305-2.193 1.92 0 3.841.731 5.303 2.193l38.891 38.892c2.93 2.928 7.678 2.928 10.607 0 20-20 37.585-37.585 38.89-38.892 2.925-2.923 7.683-2.924 10.607-.001 2.923 2.924 2.923 7.683.001 10.605z"/><path d="m504.5 163.5c4.143 0 7.5-3.357 7.5-7.5v-60c0-12.406-10.094-22.5-22.5-22.5h-467c-12.406 0-22.5 10.094-22.5 22.5v320c0 12.406 10.094 22.5 22.5 22.5h467c12.406 0 22.5-10.094 22.5-22.5v-230c0-4.143-3.357-7.5-7.5-7.5s-7.5 3.357-7.5 7.5v183.977l-97.319-81.187c-3.182-2.655-7.91-2.226-10.563.954-2.653 3.181-2.227 7.91.954 10.563l106.928 89.204v26.489c0 4.136-3.364 7.5-7.5 7.5h-467c-4.136 0-7.5-3.364-7.5-7.5v-26.489l106.929-89.203c3.181-2.653 3.607-7.383.954-10.563-2.654-3.183-7.384-3.607-10.563-.954l-97.32 81.186v-237.954l119.933 100.053c-.943 6.113-1.433 12.374-1.433 18.747 0 67.547 54.953 122.5 122.5 122.5s122.5-54.953 122.5-122.5c0-6.347-.488-12.61-1.424-18.755l119.924-100.045v23.977c0 4.143 3.357 7.5 7.5 7.5zm-131.103 52.103c-7.246-24.336-21.989-45.958-42.807-61.961-3.284-2.526-7.993-1.908-10.517 1.376s-1.908 7.992 1.376 10.517c26.724 20.541 42.051 51.628 42.051 85.288 0 59.275-48.225 107.5-107.5 107.5s-107.5-48.225-107.5-107.5 48.225-107.5 107.5-107.5c14.188 0 27.97 2.718 40.963 8.078 3.832 1.578 8.213-.245 9.794-4.073 1.579-3.829-.244-8.214-4.073-9.794-14.817-6.112-30.523-9.211-46.684-9.211-55.324 0-102.191 36.868-117.344 87.323l-123.656-103.157v-16.489c0-4.136 3.364-7.5 7.5-7.5h467c4.136 0 7.5 3.364 7.5 7.5v16.489z"/></g></g></svg>