<svg id="Capa_1" enable-background="new 0 0 512 512" height="512" viewBox="0 0 512 512" width="512" xmlns="http://www.w3.org/2000/svg"><g><g><path d="m309.698 384.25s-22.858-23.644-57.698-23.644-49.698 23.644-49.698 23.644-3.26 14.55-5.993 26.75c0 0 20.932 10 59.692 10s59.692-10 59.692-10c-2.735-12.2-5.995-26.75-5.995-26.75z" fill="#7e8b96"/><path d="m317.081 417.201c-.432-1.928-.903-4.028-1.389-6.201h-119.384c-.487 2.173-.957 4.273-1.389 6.201-2.858 12.754-11.312 20.549-31.439 20.549 0 0 13.2 15 88.52 15s96.52-15 96.52-15c-20.127 0-28.581-7.794-31.439-20.549z" fill="#a2abb8"/><path d="m386.363 460.25c0 4.142-3.358 7.5-7.5 7.5h-245.726c-4.142 0-7.5-3.358-7.5-7.5v-7.5c0-8.284 6.716-15 15-15h230.727c8.284 0 15 6.716 15 15v7.5z" fill="#c8d2dc"/><path d="m256 330.294-248.5 22.956v16c0 8.25 6.75 15 15 15h467c8.25 0 15-6.75 15-15v-3.122z" fill="#a2abb8"/><path d="m27.834 354.25c1.447 6.764 7.486 11.878 14.666 11.878h462v-11.878l-248.5-21.077z" fill="#c8d2dc"/><path d="m27.5 44.25h-5c-8.25 0-15 6.75-15 15v16l248.5 22.956z" fill="#a2abb8"/><path d="m27.5 77.098 228.5 21.108 248.5-22.956v-16c0-8.25-6.75-15-15-15h-462z" fill="#c8d2dc"/><path d="m87.607 354.354-80.107-.104v-279h20l70 208.191z" fill="#da0b62"/><path d="m424.344 75.25h-396.844v196.894c12.481 3.917 26.461 8.859 28.823 10.575 4.087 2.97 28.597 36.678 30.174 41.531.878 2.703 1.268 17.078 1.159 30h416.844v-191.605c-5.052 0-80.265-74.473-80.156-87.395z" fill="#de5791"/><path d="m424.344 75.25c-.108 12.922.281 27.297 1.159 30 1.577 4.853 26.087 38.562 30.174 41.531 4.128 3 43.771 15.864 48.823 15.864v-87.395z" fill="#e592b8"/><circle cx="82.5" cy="150.25" fill="#e592b8" r="15"/><circle cx="429.5" cy="279.25" fill="#da0b62" r="15"/><path d="m197.213 234.391c1.173 3.612 55.014 42.717 58.773 42.717 3.797 0 57.611-39.141 58.773-42.717 1.173-3.612-19.408-66.907-22.449-69.117-3.072-2.232-69.606-2.21-72.647 0-3.073 2.232-23.612 65.541-22.45 69.117z" fill="#e175a5"/><path d="m219.645 227.099 13.881-42.736s-26.113-35.875-26.369-36.256c-1.816 1.344-7.422 8.414-13.32 16.386-7.718 10.431-5.936 22.408-6.819 25.127-1.576 4.853-11.561 46.53-10 51.335.004.013.011.029.015.043 1.688-.622 42.612-13.899 42.612-13.899z" fill="#f9c8dc"/><path d="m193.837 164.493c-7.718 10.432-15.936 22.408-16.819 25.126-1.576 4.853-1.561 46.53 0 51.335.004.012.013.03.017.042.711-.262 7.948-2.924 16.265-5.853-1.472-6.551-1.091-65.633.537-70.65z" fill="#e592b8"/><path d="m304.79 148.088-26.345 36.275 13.881 42.736 42.627 13.856c1.576-4.853 1.561-46.53 0-51.335-1.577-4.854-26.077-38.562-30.163-41.532z" fill="#e592b8"/><path d="m334.905 240.99s-40.488-14.957-42.58-13.89c-2.071 1.056-33.993 26.413-36.34 26.413l-4.96 7.58 4.96 37.258c5.101 0 34.719-12.894 38.805-15.864 2.284-1.66 20.783-12.717 28.185-23.078 5.974-8.364 11.233-16.273 11.93-18.419z" fill="#f9c8dc"/><path d="m255.985 280.973v17.377h-.001.001c5.101 0 44.719-12.894 48.805-15.864 2.282-1.658 10.782-12.709 18.193-23.073-8.222 4.183-62.042 21.535-66.998 21.56z" fill="#e592b8"/><path d="m304.79 148.088c-4.127-3-43.754-15.864-48.805-15.864-5.101 0-44.719 12.894-48.805 15.864-.007.005-.016.013-.024.018.256.381 24.063 35.891 26.369 36.256 2.296.364 43.096.367 45.415 0 2.296-.363 25.85-36.274 25.85-36.274z" fill="#e9edf1"/><path d="m219.645 227.099c-2.026-1.033-40.924 13.276-42.612 13.898 1.694 4.994 26.073 28.527 30.147 31.489 4.127 3 43.754 25.863 48.805 25.864v-44.838c-2.324 0-34.248-25.346-36.34-26.413z" fill="#e592b8"/><path d="m255.985 280.973c-.003 0-.008 0-.012 0-5.05 0-36.245-11.536-38.324-13.046-2.058-1.496-22.697-27.637-24.273-32.49-.026-.081-.052-.18-.077-.292-8.317 2.929-15.553 5.591-16.265 5.853 1.684 4.982 26.07 38.527 30.146 41.489 4.127 3 43.75 15.862 48.804 15.864h.001z" fill="#da0b62"/></g><g><path d="m378.863 475.25h-245.726c-8.271 0-15-6.729-15-15v-7.5c0-12.406 10.093-22.5 22.5-22.5h22.843c19.22 0 22.528-7.582 24.12-14.688l5.335-23.812h-170.435c-12.407 0-22.5-10.094-22.5-22.5v-15c0-4.143 3.358-7.5 7.5-7.5h72.617c-.066-10.632-.469-18.075-.824-20.121-2.624-5.518-22.979-33.531-27.42-37.734-4.148-2.264-24.941-9.224-36.873-12.594v47.949c0 4.143-3.358 7.5-7.5 7.5s-7.5-3.357-7.5-7.5v-265c0-12.406 10.093-22.5 22.5-22.5h337.78c4.142 0 7.5 3.357 7.5 7.5s-3.358 7.5-7.5 7.5h-337.78c-4.136 0-7.5 3.364-7.5 7.5v8.5h482v-8.5c0-4.136-3.364-7.5-7.5-7.5h-99.22c-4.142 0-7.5-3.357-7.5-7.5s3.358-7.5 7.5-7.5h99.22c12.407 0 22.5 10.094 22.5 22.5v310c0 12.406-10.093 22.5-22.5 22.5h-170.435l5.335 23.812c1.592 7.106 4.9 14.688 24.12 14.688 4.142 0 7.5 3.357 7.5 7.5s-3.358 7.5-7.5 7.5h-207.883c-4.136 0-7.5 3.364-7.5 7.5v7.5h245.727v-7.5c0-2.852-1.584-5.421-4.134-6.706-3.699-1.864-5.186-6.374-3.322-10.072 1.864-3.699 6.374-5.188 10.073-3.322 7.638 3.85 12.383 11.552 12.383 20.101v7.5c-.001 8.27-6.73 14.999-15.001 14.999zm-181.203-45h116.68c-2.079-3.272-3.607-7.077-4.578-11.409l-6.069-27.091h-95.387l-6.07 27.091c-.969 4.332-2.497 8.137-4.576 11.409zm291.84-53.5c4.136 0 7.5-3.364 7.5-7.5v-7.5h-482v7.5c0 4.136 3.364 7.5 7.5 7.5zm-394.383-30h401.883v-178.018c-10.589-2.664-28.644-8.53-38.785-12.601l-13.511 18.512c-2.442 3.345-7.134 4.078-10.48 1.636-3.345-2.441-4.078-7.134-1.636-10.479l13.487-18.478c-6.993-8.368-18.145-23.716-23.965-32.978l-21.809 7.086c-3.937 1.277-8.17-.876-9.45-4.815s.876-8.17 4.815-9.45l21.735-7.063c-.363-5.248-.483-11.965-.513-17.353h-401.888v178.121c10.589 2.663 28.648 8.53 38.791 12.602l13.511-18.512c2.442-3.347 7.134-4.078 10.48-1.636 3.346 2.441 4.078 7.134 1.636 10.479l-13.487 18.479c6.993 8.368 18.146 23.715 23.965 32.977l21.809-7.086c3.938-1.28 8.17.875 9.451 4.815 1.28 3.939-.876 8.17-4.815 9.45l-21.734 7.062c.359 5.215.479 11.88.51 17.25zm365.016-206.04c4.147 2.264 24.934 9.222 36.867 12.593v-70.553h-65.112c.064 10.688.468 18.173.824 20.226 2.626 5.52 22.981 33.532 27.421 37.734zm-27.373-37.493h.01zm-176.76 231.516c-4.142 0-7.5-3.357-7.5-7.5v-22.897c-10.589-2.664-28.644-8.53-38.785-12.601l-13.511 18.512c-2.443 3.346-7.134 4.076-10.48 1.636-3.345-2.441-4.078-7.134-1.636-10.479l13.487-18.479c-6.994-8.368-18.146-23.715-23.965-32.977l-21.809 7.086c-3.937 1.279-8.17-.875-9.45-4.815-1.28-3.939.876-8.17 4.815-9.45l21.787-7.079c-.741-10.876-.743-29.874-.007-40.797l-21.809-7.087c-3.939-1.28-6.095-5.511-4.815-9.45 1.28-3.94 5.509-6.095 9.451-4.815l21.786 7.079c5.796-9.239 16.97-24.622 23.987-33.024l-13.463-18.53c-2.435-3.351-1.692-8.041 1.659-10.476 3.351-2.436 8.042-1.692 10.476 1.659l16.649 22.914c.144.165.281.338.413.519.189.261.358.528.51.803 8.647 12.882 18.948 27.596 22.951 32.495 7.757.174 30.756.174 38.516 0 3.303-4.048 10.893-14.771 18.3-25.622-11.549-4.276-32.778-10.974-37.547-11.6-1.765.255-7.994 1.819-19.124 5.352-3.948 1.251-8.165-.933-9.417-4.88-1.253-3.948.932-8.164 4.88-9.417 7.569-2.402 12.677-3.855 16.154-4.733v-22.83c0-4.143 3.358-7.5 7.5-7.5s7.5 3.357 7.5 7.5v22.897c10.604 2.668 28.696 8.547 38.829 12.619l13.458-18.523c2.435-3.351 7.125-4.096 10.476-1.659 3.351 2.435 4.094 7.125 1.66 10.476l-13.466 18.535c7.016 8.401 18.19 23.785 23.987 33.024l21.786-7.079c3.938-1.28 8.17.875 9.451 4.815 1.28 3.939-.875 8.17-4.815 9.45l-21.809 7.087c.736 10.924.734 29.922-.007 40.797l21.787 7.079c3.939 1.28 6.095 5.511 4.815 9.45-1.28 3.94-5.51 6.095-9.451 4.815l-21.809-7.086c-5.82 9.262-16.972 24.608-23.965 32.978l13.487 18.478c2.442 3.346 1.709 8.038-1.637 10.479-3.345 2.442-8.038 1.709-10.479-1.636l-13.511-18.512c-10.142 4.07-28.196 9.937-38.785 12.601v22.897c-.005 4.144-3.363 7.501-7.505 7.501zm0-58.793c4.142 0 7.5 3.357 7.5 7.5v5.467c11.922-3.368 32.704-10.327 36.872-12.597 3.461-3.271 16.677-21.138 23.527-31.409-12.261-4.414-24.587-8.615-29.71-9.988-2.004 1.494-5.117 3.871-7.971 6.051-26.16 19.976-26.939 19.976-30.218 19.976-3.342 0-4.037 0-30.104-19.896-2.889-2.205-6.04-4.609-8.065-6.119-1.693.455-4.732 1.355-10.091 3.138-3.932 1.311-8.176-.818-9.484-4.749-1.307-3.931.819-8.177 4.75-9.483 14.762-4.91 16.983-5.04 20.07-3.468 1.182.603 2.63 1.666 11.921 8.758 5.912 4.513 15.938 12.165 21.008 15.667 5.088-3.512 15.169-11.209 21.11-15.746 9.301-7.103 10.625-8.075 11.81-8.679 2.99-1.526 4.736-2.417 39.465 10.192.456-12.191.272-33.181-.549-38.354-.027-.075-.053-.15-.078-.228-.034-.103-.064-.205-.093-.309-2.342-4.622-14.519-21.694-22.072-31.316-9.53 14.042-15.087 21.695-18.632 25.921l3.674 11.309c1.28 3.939-.875 8.17-4.815 9.45-3.94 1.277-8.171-.876-9.451-4.815l-3.321-10.219c-9.059.159-25.05.159-34.109 0l-3.32 10.219c-1.28 3.94-5.508 6.095-9.451 4.815-3.939-1.28-6.095-5.511-4.815-9.45l3.671-11.299c-3.546-4.223-9.103-11.877-18.634-25.927-7.687 9.795-20.173 27.321-22.19 31.565-1.122 5.983-1.121 40.64.002 46.652 2.609 5.5 22.981 33.538 27.423 37.742 4.151 2.264 24.936 9.222 36.868 12.592v-5.465c.002-4.14 3.36-7.498 7.502-7.498zm173.5 25.81c-12.407 0-22.5-10.094-22.5-22.5s10.093-22.5 22.5-22.5 22.5 10.094 22.5 22.5-10.093 22.5-22.5 22.5zm0-30c-4.136 0-7.5 3.364-7.5 7.5s3.364 7.5 7.5 7.5 7.5-3.364 7.5-7.5-3.364-7.5-7.5-7.5zm-347-99c-12.407 0-22.5-10.094-22.5-22.5s10.093-22.5 22.5-22.5 22.5 10.094 22.5 22.5-10.093 22.5-22.5 22.5zm0-30c-4.136 0-7.5 3.364-7.5 7.5s3.364 7.5 7.5 7.5 7.5-3.364 7.5-7.5-3.364-7.5-7.5-7.5z"/></g></g></svg>