<svg id="Capa_1" enable-background="new 0 0 512 512" height="512" viewBox="0 0 512 512" width="512" xmlns="http://www.w3.org/2000/svg"><g><g><path d="m504.5 411.158s-14.42-257.525 0-283.342v-11.658h-497v299.646c0 8.25 6.75 15 15 15h467c8.25 0 15-6.75 15-15 0-2.446 0-4.646 0-4.646z" fill="#81a9c8"/><path d="m22.5 81.158c-8.25 0-15 6.75-15 15v20l20 16.685 21.5-11.685-21.5-40z" fill="#c8d2dc"/><path d="m275.218 307.432 229.282-191.274s0-11.2 0-20c0-8.25-6.75-15-15-15h-462v51.685l209.282 174.589c11.13 9.284 27.306 9.284 38.436 0z" fill="#e9edf1"/><path d="m265.218 327.432c-11.13 9.285-27.306 9.285-38.435 0l-199.283-166.247v234.973c0 8.25 6.75 15 15 15h462c0-8.782 0-229.71 0-283.342z" fill="#bcd1e1"/></g><g><path d="m22.5 438.342c-12.407 0-22.5-10.094-22.5-22.5v-42.685c0-4.143 3.358-7.5 7.5-7.5s7.5 3.357 7.5 7.5v42.685c0 4.136 3.364 7.5 7.5 7.5h22.5v-50.185c0-4.143 3.358-7.5 7.5-7.5s7.5 3.357 7.5 7.5v50.185h33.846c-2.449-4.342-3.846-9.353-3.846-14.684v-13c0-16.542 13.458-30 30-30s30 13.458 30 30v13c0 5.331-1.397 10.342-3.846 14.685h33.846v-50.185c0-4.143 3.358-7.5 7.5-7.5s7.5 3.357 7.5 7.5v50.185h32v-50.185c0-4.143 3.358-7.5 7.5-7.5s7.5 3.357 7.5 7.5v50.185h33.846c-2.449-4.343-3.846-9.354-3.846-14.685v-13c0-16.542 13.458-30 30-30s30 13.458 30 30v13c0 5.331-1.397 10.342-3.846 14.685h33.846v-50.185c0-4.143 3.358-7.5 7.5-7.5s7.5 3.357 7.5 7.5v50.185h33.846c-2.449-4.343-3.846-9.354-3.846-14.685v-13c0-16.542 13.458-30 30-30s30 13.458 30 30v13c0 5.331-1.397 10.342-3.846 14.685h26.346c4.136 0 7.5-3.364 7.5-7.5v-42.685c0-4.143 3.358-7.5 7.5-7.5s7.5 3.357 7.5 7.5v42.685c0 12.406-10.093 22.5-22.5 22.5h-467zm411.432-15h6.137c6.805-1.42 11.932-7.465 11.932-14.685v-13c0-8.271-6.729-15-15-15s-15 6.729-15 15v13c-.001 7.22 5.126 13.265 11.931 14.685zm-135 0h6.137c6.805-1.42 11.932-7.465 11.932-14.685v-13c0-8.271-6.729-15-15-15s-15 6.729-15 15v13c-.001 7.22 5.126 13.265 11.931 14.685zm-182 0h6.137c6.805-1.42 11.932-7.465 11.932-14.685v-13c0-8.271-6.729-15-15-15s-15 6.729-15 15v13c-.001 7.22 5.126 13.265 11.931 14.685zm387.568-81.684c-4.142 0-7.5-3.357-7.5-7.5v-58c0-4.143 3.358-7.5 7.5-7.5s7.5 3.357 7.5 7.5v58c0 4.142-3.358 7.5-7.5 7.5zm-45 0c-4.142 0-7.5-3.357-7.5-7.5v-58c0-4.143 3.358-7.5 7.5-7.5s7.5 3.357 7.5 7.5v58c0 4.142-3.358 7.5-7.5 7.5zm-67.5 0c-16.542 0-30-13.458-30-30v-13c0-16.542 13.458-30 30-30s30 13.458 30 30v13c0 16.542-13.458 30-30 30zm0-58c-8.271 0-15 6.729-15 15v13c0 8.271 6.729 15 15 15s15-6.729 15-15v-13c0-8.272-6.729-15-15-15zm-67.5 58c-4.142 0-7.5-3.357-7.5-7.5v-51.814l-30 25.026v26.788c0 4.143-3.358 7.5-7.5 7.5s-7.5-3.357-7.5-7.5v-15.84c-10.34 4.882-22.412 4.772-32.673-.326-2.916 13.51-14.958 23.666-29.327 23.666-16.542 0-30-13.458-30-30v-13c0-8.207 3.318-15.845 8.934-21.375l-48.624-40.563c-5.476 5.019-12.727 7.938-20.31 7.938-16.542 0-30-13.458-30-30v-13c0-2.155.225-4.276.672-6.348l-75.672-63.129v6.977c0 4.143-3.358 7.5-7.5 7.5s-7.5-3.358-7.5-7.5v-43c0-12.406 10.093-22.5 22.5-22.5h467c12.407 0 22.5 10.094 22.5 22.5v43c0 4.143-3.358 7.5-7.5 7.5s-7.5-3.357-7.5-7.5v-6.977l-75 62.567v42.409c0 4.143-3.358 7.5-7.5 7.5s-7.5-3.357-7.5-7.5v-29.896l-76.776 64.049c1.107 1.308 1.776 2.999 1.776 4.847v58c0 4.143-3.358 7.501-7.5 7.501zm-123.934-54.671c-3.47 2.802-5.566 7.057-5.566 11.671v13c0 8.271 6.729 15 15 15s15-6.729 15-15v-4.287zm41.02 14.686c8.352 6.966 20.476 6.968 28.827-.001l226.587-189.025v-16.489c0-4.136-3.364-7.5-7.5-7.5h-467c-4.136 0-7.5 3.364-7.5 7.5v16.489zm-136.586-94.411v7.396c0 8.271 6.729 15 15 15 3.16 0 6.139-.961 8.612-2.697zm37.5 134.396c-4.142 0-7.5-3.357-7.5-7.5v-58c0-4.143 3.358-7.5 7.5-7.5s7.5 3.357 7.5 7.5v58c0 4.142-3.358 7.5-7.5 7.5zm-67.5 0c-16.542 0-30-13.458-30-30v-13c0-16.542 13.458-30 30-30s30 13.458 30 30v13c0 16.542-13.458 30-30 30zm0-58c-8.271 0-15 6.729-15 15v13c0 8.271 6.729 15 15 15s15-6.729 15-15v-13c0-8.272-6.729-15-15-15zm-67.5 58c-4.142 0-7.5-3.357-7.5-7.5v-58c0-4.143 3.358-7.5 7.5-7.5s7.5 3.357 7.5 7.5v58c0 4.142-3.358 7.5-7.5 7.5zm474.5-97c-16.542 0-30-13.458-30-30v-13c0-16.542 13.458-30 30-30s30 13.458 30 30v13c0 16.542-13.458 30-30 30zm0-58c-8.271 0-15 6.729-15 15v13c0 8.271 6.729 15 15 15s15-6.729 15-15v-13c0-8.272-6.729-15-15-15zm-452 58c-16.542 0-30-13.458-30-30v-13c0-16.542 13.458-30 30-30s30 13.458 30 30v13c0 16.542-13.458 30-30 30zm0-58c-8.271 0-15 6.729-15 15v13c0 8.271 6.729 15 15 15s15-6.729 15-15v-13c0-8.272-6.729-15-15-15z"/></g></g></svg>