<svg id="Capa_1" enable-background="new 0 0 512 512" height="512" viewBox="0 0 512 512" width="512" xmlns="http://www.w3.org/2000/svg"><g><g><path d="m309.698 384.25s-22.858-23.644-57.698-23.644-49.698 23.644-49.698 23.644-3.26 14.55-5.993 26.75c0 0 20.932 10 59.692 10s59.692-10 59.692-10c-2.735-12.2-5.995-26.75-5.995-26.75z" fill="#7e8b96"/><path d="m317.081 417.201c-.432-1.928-.903-4.028-1.389-6.201h-119.384c-.487 2.173-.957 4.273-1.389 6.201-2.858 12.754-11.312 20.549-31.439 20.549 0 0 13.2 15 88.52 15s96.52-15 96.52-15c-20.127 0-28.581-7.794-31.439-20.549z" fill="#a2abb8"/><path d="m386.363 460.25c0 4.142-3.358 7.5-7.5 7.5h-245.726c-4.142 0-7.5-3.358-7.5-7.5v-7.5c0-8.284 6.716-15 15-15h230.727c8.284 0 15 6.716 15 15v7.5z" fill="#c8d2dc"/><path d="m27.5 44.25h-5c-8.25 0-15 6.75-15 15v16l248.5 22.956z" fill="#a2abb8"/><path d="m27.5 77.098 228.5 21.108 248.5-22.956v-16c0-8.25-6.75-15-15-15h-462z" fill="#c8d2dc"/><path d="m256 330.294-248.5 22.956v16c0 8.25 6.75 15 15 15h467c8.25 0 15-6.75 15-15v-3.122z" fill="#a2abb8"/><path d="m27.834 354.25c1.447 6.764 7.486 11.878 14.666 11.878h462v-11.878l-248.5-21.077z" fill="#c8d2dc"/><path d="m28.38 354.25h-20.88v-279h20z" fill="#e9edf1"/><path d="m27.5 349.25c0 1.754.321 3.432.88 5h476.12v-279h-477z" fill="#f7f9fa"/><path d="m187.367 180.968-21.104 23.282c4.199 25.411 10.701 52.645 20.169 69.933 11.713 21.387 50.309 44.165 68.865 49.959.23.072.466.108.702.108l20.854-27.886z" fill="#4980ac"/><path d="m352.114 143.178c0-1.277-.501-2.535-1.446-3.102-29.548-17.728-87.712-32.903-93.997-34.73-.221-.064-.446-.096-.67-.096l-73.585 24.342c-7.767 3.326-15.026 6.852-21.082 10.485-.945.567-1.446 1.825-1.446 3.102 0 8.407 1.85 33.68 6.377 61.072h24.731l-.004-.033c3.764 20.932 8.825 40.459 15.447 52.966 8.366 15.8 31.473 32.388 49.565 41.762-.001 0-.002-.001-.002-.001v25.306c.236 0 .472-.036.703-.108 18.556-5.794 57.151-28.572 68.865-49.959l20.169-69.933c4.524-27.393 6.375-52.666 6.375-61.073z" fill="#81a9c8"/><path d="m256 204.25h-65.006c-4.751-26.402-7.436-55.038-8.58-74.658 30.129-12.902 67.918-22.792 72.915-24.245.221-.064.446-.096.67-.096v98.999zm0 0v94.694c.001 0 .001.001.002.001 24.358 0 56.913-13.246 69.565-24.762 9.468-17.288 15.97-44.522 20.169-69.932h-89.736z" fill="#bcd1e1"/></g><g><path d="m378.863 475.25h-245.726c-8.271 0-15-6.729-15-15v-7.5c0-12.406 10.094-22.5 22.5-22.5h22.844c19.22 0 22.528-7.582 24.12-14.688l5.335-23.812h-170.436c-12.406 0-22.5-10.094-22.5-22.5v-15c0-4.143 3.357-7.5 7.5-7.5h489.5v-264h-482v241.5c0 4.143-3.357 7.5-7.5 7.5s-7.5-3.357-7.5-7.5v-265c0-12.406 10.094-22.5 22.5-22.5h337.78c4.143 0 7.5 3.357 7.5 7.5s-3.357 7.5-7.5 7.5h-337.78c-4.136 0-7.5 3.364-7.5 7.5v8.5h482v-8.5c0-4.136-3.364-7.5-7.5-7.5h-99.22c-4.143 0-7.5-3.357-7.5-7.5s3.357-7.5 7.5-7.5h99.22c12.406 0 22.5 10.094 22.5 22.5v310c0 12.406-10.094 22.5-22.5 22.5h-170.436l5.335 23.812c1.592 7.106 4.9 14.688 24.12 14.688 4.143 0 7.5 3.357 7.5 7.5s-3.357 7.5-7.5 7.5h-207.882c-4.136 0-7.5 3.364-7.5 7.5v7.5h245.727v-7.5c0-2.852-1.584-5.421-4.134-6.706-3.699-1.864-5.187-6.374-3.322-10.072s6.377-5.187 10.072-3.322c7.639 3.85 12.384 11.552 12.384 20.101v7.5c-.001 8.27-6.729 14.999-15.001 14.999zm-181.203-45h116.68c-2.079-3.272-3.607-7.077-4.577-11.409l-6.07-27.091h-95.385l-6.07 27.091c-.971 4.332-2.499 8.137-4.578 11.409zm291.84-53.5c4.136 0 7.5-3.364 7.5-7.5v-7.5h-482v7.5c0 4.136 3.364 7.5 7.5 7.5zm-236.446-45.452c-13.206-4.123-36.713-16.627-54.25-31.671-3.144-2.697-3.506-7.432-.809-10.576 2.695-3.142 7.43-3.508 10.576-.809 12.064 10.35 27.888 19.803 39.929 25.218v-101.71h-73.267c3.829 20.648 9.136 41.351 16.09 55.565 1.82 3.721.279 8.213-3.441 10.033-3.722 1.82-8.212.279-10.033-3.441-19.095-39.035-25.462-114.07-25.462-130.729 0-4.06 1.903-7.624 5.092-9.534 18.465-11.079 49.774-22.77 93.058-34.744 1.25-.347 3.639-1.15 5.464-1.15 1.828 0 4.212.803 5.461 1.149 43.283 11.975 74.596 23.665 93.064 34.748 3.185 1.907 5.088 5.472 5.088 9.531 0 8.77-1.865 33.976-6.389 61.487-.03.561-.122 1.106-.27 1.628-4.353 25.956-11.07 53.71-20.81 71.492-13.297 24.279-54.728 47.745-73.208 53.516-.958.301-4.918.3-5.883-.003zm10.446-119.548v101.707c18.478-8.308 46.397-26.275 55.489-42.877 7.957-14.528 13.75-36.813 17.793-58.83zm0-15h75.792c3.445-22.675 5.045-43.003 5.288-51.54-12.183-6.904-35.816-17.322-81.08-30.163zm-90.807 0h75.807v-81.703c-45.281 12.846-68.911 23.266-81.088 30.168.222 9.735 1.912 29.67 5.281 51.535z"/></g></g></svg>