<svg id="Capa_1" enable-background="new 0 0 512 512" height="512" viewBox="0 0 512 512" width="512" xmlns="http://www.w3.org/2000/svg"><g><g><path d="m169.554 149.554c-30.923 25.144-50.684 63.485-50.684 106.446 0 75.735 61.395 137.13 137.13 137.13 42.961 0 81.302-19.761 106.446-50.684-23.59 19.181-212.073-169.302-192.892-192.892z" fill="#7dc03a"/><path d="m256 118.87c-32.773 0-62.856 11.503-86.446 30.684-19.181 23.59-30.684 53.672-30.684 86.446 0 75.735 61.395 137.13 137.13 137.13 32.773 0 62.856-11.503 86.446-30.684 19.181-23.59 30.684-53.672 30.684-86.446 0-75.735-61.395-137.13-137.13-137.13z" fill="#bce097"/><path d="m410.248 395.249c-15.558 10.84-25.748 28.851-25.748 49.251 0 33.137 26.863 60 60 60 20.4 0 38.411-10.19 49.252-25.749-9.714 6.769-90.272-73.789-83.504-83.502z" fill="#81a9c8"/><path d="m444.5 384.5c-12.737 0-24.538 3.98-34.252 10.749-6.768 9.714-10.748 21.515-10.748 34.251 0 33.137 26.863 60 60 60 12.737 0 24.538-3.98 34.252-10.749 6.768-9.714 10.748-21.515 10.748-34.251 0-33.137-26.863-60-60-60z" fill="#bcd1e1"/><path d="m33.248 18.249c-15.558 10.84-25.748 28.851-25.748 49.251 0 33.137 26.863 60 60 60 20.4 0 38.411-10.19 49.252-25.749-9.714 6.769-90.272-73.789-83.504-83.502z" fill="#81a9c8"/><path d="m67.5 7.5c-12.737 0-24.538 3.98-34.252 10.749-6.768 9.713-10.748 21.514-10.748 34.251 0 33.137 26.863 60 60 60 12.737 0 24.538-3.98 34.252-10.749 6.768-9.713 10.748-21.514 10.748-34.251 0-33.137-26.863-60-60-60z" fill="#bcd1e1"/><g fill="#81a9c8"><circle cx="402.074" cy="402.074" r="15"/><circle cx="109.926" cy="109.926" r="15"/><circle cx="159.049" cy="159.02" r="15"/><circle cx="352.951" cy="352.98" r="15"/></g><path d="m298.5 333.689c0 2.44-1.555 4.609-3.869 5.383-7.822 2.615-27.262 7.928-56.131 7.928s-48.309-5.313-56.131-7.928c-2.314-.774-3.869-2.943-3.869-5.383v-63.379c0-2.44 1.555-4.609 3.869-5.383 7.822-2.615 27.262-7.928 56.131-7.928s48.309 5.313 56.131 7.928c2.314.774 3.869 2.943 3.869 5.383z" fill="#7dc03a"/><path d="m281 262.762c-4.142 0-7.5-3.357-7.5-7.5v-40.762c0-16.542-13.458-30-30-30s-30 13.458-30 30v40.762c0 4.143-3.358 7.5-7.5 7.5s-7.5-3.357-7.5-7.5v-40.762c0-24.813 20.187-45 45-45s45 20.187 45 45v40.762c0 4.142-3.358 7.5-7.5 7.5z" fill="#7dc03a"/><path d="m313.5 317.689c0 2.44-1.555 4.609-3.869 5.383-7.822 2.615-27.262 7.928-56.131 7.928s-48.309-5.313-56.131-7.928c-2.314-.774-3.869-2.943-3.869-5.383v-63.379c0-2.44 1.555-4.609 3.869-5.383 7.822-2.615 27.262-7.928 56.131-7.928s48.309 5.313 56.131 7.928c2.314.774 3.869 2.943 3.869 5.383z" fill="#ffd064"/></g><g><path d="m358.254 347.677c-2.924-2.924-7.682-2.924-10.607 0s-2.924 7.682 0 10.607 7.682 2.924 10.607 0 2.925-7.683 0-10.607zm38.469 49.142c-2.876 2.929-2.86 7.65.048 10.558 2.924 2.924 7.682 2.924 10.607 0s2.924-7.683 0-10.607c-2.913-2.913-7.646-2.924-10.573-.034-.016.016-.032.033-.048.049-.012.011-.023.023-.034.034zm-281.494-292.196c-2.924-2.924-7.682-2.924-10.607 0-2.924 2.924-2.924 7.683 0 10.607 2.913 2.913 7.646 2.924 10.573.034.016-.016.032-.033.048-.049l.034-.034c2.877-2.929 2.86-7.65-.048-10.558zm49.123 49.094c-2.924-2.924-7.682-2.924-10.607 0-2.924 2.924-2.924 7.682 0 10.607s7.682 2.924 10.607 0c2.925-2.925 2.925-7.683 0-10.607zm84.148-79.847c0-4.143 3.358-7.5 7.5-7.5 104.563 0 189.63 85.067 189.63 189.63 0 4.143-3.358 7.5-7.5 7.5s-7.5-3.357-7.5-7.5c0-96.291-78.339-174.63-174.63-174.63-4.142 0-7.5-3.357-7.5-7.5zm15 364.26c0 4.143-3.358 7.5-7.5 7.5-104.563 0-189.63-85.067-189.63-189.63 0-4.143 3.358-7.5 7.5-7.5s7.5 3.357 7.5 7.5c0 96.291 78.339 174.63 174.63 174.63 4.142 0 7.5 3.357 7.5 7.5zm50-142.941c4.142 0 7.5-3.357 7.5-7.5v-33.379c0-5.674-3.612-10.695-8.991-12.496-3.231-1.08-7.753-2.415-13.509-3.697v-34.617c0-24.813-20.187-45-45-45s-45 20.187-45 45v34.618c-5.756 1.281-10.279 2.617-13.511 3.697-5.376 1.8-8.989 6.821-8.989 12.495v63.379c0 5.674 3.612 10.695 8.991 12.496 9.288 3.104 29.239 8.314 58.509 8.314s49.222-5.21 58.511-8.315c5.376-1.8 8.989-6.821 8.989-12.495 0-4.143-3.358-7.5-7.5-7.5-3.677 0-6.736 2.646-7.377 6.139-7.591 2.422-25.897 7.172-52.623 7.172-26.583 0-44.837-4.7-52.5-7.133v-60.734c7.666-2.434 25.918-7.133 52.5-7.133 26.583 0 44.837 4.7 52.5 7.133v32.057c0 4.142 3.358 7.499 7.5 7.499zm-30-59.734c-8.519-1.157-18.546-1.955-30-1.955s-21.481.798-30 1.955v-31.955c0-16.542 13.458-30 30-30s30 13.458 30 30zm228.5 209.045c0 37.22-30.28 67.5-67.5 67.5s-67.5-30.28-67.5-67.5c0-10.222 2.321-20.274 6.735-29.397-4.766-6.7-5.428-15.444-1.975-22.708l-19.111-19.111c-6.723 3.204-14.716 2.877-21.185-.964-56.553 41.56-136.732 36.781-187.851-14.338-51.171-51.171-55.905-131.46-14.208-188.022-3.544-6.37-3.775-14.103-.66-20.638l-19.101-19.101c-8.366 3.996-18.708 2.534-25.627-4.385-8.773-8.773-8.773-23.047 0-31.82 5.873-5.873 14.208-7.793 21.711-5.802 2.79-6.507 4.272-13.578 4.272-20.714 0-28.948-23.551-52.5-52.5-52.5s-52.5 23.552-52.5 52.5 23.551 52.5 52.5 52.5c4.142 0 7.5 3.357 7.5 7.5s-3.358 7.5-7.5 7.5c-37.22 0-67.5-30.28-67.5-67.5s30.28-67.5 67.5-67.5 67.5 30.28 67.5 67.5c0 10.187-2.325 20.288-6.733 29.4 4.764 6.7 5.425 15.442 1.973 22.705l19.111 19.111c6.529-3.112 14.253-2.884 20.62.65 22.719-16.797 49.929-26.633 78.489-28.092 35.531-1.815 70.305 9.409 97.914 31.603 3.229 2.595 3.742 7.316 1.146 10.544-2.59 3.241-7.316 3.742-10.544 1.146-46.153-37.102-110.439-37.75-157.049-3.923 3.24 8.107 1.587 17.732-4.968 24.286-6.542 6.542-16.141 8.199-24.239 4.984-36.541 50.635-32.046 121.916 13.5 167.462 45.6 45.6 116.995 50.052 167.642 13.371-2.924-7.978-1.212-17.285 5.18-23.677 6.407-6.407 15.743-8.113 23.733-5.161 33.992-46.615 33.418-111.027-3.717-157.256-2.594-3.229-2.082-7.953 1.15-10.544 3.23-2.594 7.95-2.079 10.544 1.151 22.179 27.609 33.39 62.377 31.569 97.898-1.461 28.508-11.269 55.67-28.014 78.361 3.826 6.465 4.148 14.444.949 21.157l19.101 19.101c8.366-3.996 18.708-2.534 25.627 4.385 8.773 8.773 8.773 23.047 0 31.82-5.878 5.879-14.223 7.797-21.732 5.798-2.793 6.51-4.252 13.56-4.252 20.72 0 28.948 23.551 52.5 52.5 52.5s52.5-23.552 52.5-52.5-23.551-52.5-52.5-52.5c-4.142 0-7.5-3.357-7.5-7.5s3.358-7.5 7.5-7.5c37.22 0 67.5 30.28 67.5 67.5z"/></g></g></svg>