<svg id="Capa_1" enable-background="new 0 0 512 512" height="512" viewBox="0 0 512 512" width="512" xmlns="http://www.w3.org/2000/svg"><g><g><path d="m7.5 407.273c0 8.25 6.75 15 15 15h467c8.25 0 15-6.75 15-15v-5l-248.5-32.956-248.5 22.956z" fill="#a2abb8"/><path d="m27.5 42.273h-5c-8.25 0-15 6.75-15 15v46l248.5 22.956z" fill="#a2abb8"/><path d="m27.5 105.121 228.5 21.108 248.5-22.956v-46c0-8.25-6.75-15-15-15h-462z" fill="#c8d2dc"/><path d="m437.116 392.273h-429.616v-289h134.845z" fill="#4980ac"/><path d="m312.139 402.273h-269.639c-7.18 0-13.219-5.114-14.666-11.878l228.166-21.077 64.536 5.961c-4.191 8.319-7.078 17.406-8.397 26.994zm168.967-12.161c1.139 3.945 2.003 8.006 2.575 12.161h20.819v-10z" fill="#c8d2dc"/><path d="m429.96 103.273h-287.615c-7.847 12.81-24.451 30.511-24.451 30.511s19.937 42.431 13.803 48.565-48.565-13.803-48.565-13.803-34.193 32.073-41.923 28.135-1.88-50.454-1.88-50.454-5.195-2.86-11.827-6.93v247.975c0 1.754.321 3.432.88 5h285.739c9.704-37.213 43.538-64.68 83.791-64.68s74.087 27.467 83.791 64.68l1.539-190.52z" fill="#81a9c8"/><path d="m474.95 392.273h29.55v-289h-29.55l-12.59 60.32 12.14 52.365z" fill="#e9edf1"/><path d="m7.5 290.395v101.878h20v-99.911c-6.468-1.287-13.154-1.967-20-1.967z" fill="#de5791"/><path d="m27.5 292.362v99.911h81.878c0-49.42-35.19-90.616-81.878-99.911z" fill="#e592b8"/><path d="m57.018 78.672s-46.046 8.811-47.403 17.379 39.713 31.177 39.713 31.177-5.85 46.515 1.88 50.454 41.923-28.135 41.923-28.135 42.431 19.937 48.565 13.803-13.803-48.565-13.803-48.565 32.073-34.193 28.135-41.923-50.454-1.88-50.454-1.88-22.608-41.07-31.177-39.713c-8.568 1.357-17.379 47.403-17.379 47.403z" fill="#fff0af"/><path d="m474.5 215.958-70.353-34.011c-7.777-3.759-10.779-13.293-6.561-20.831l32.374-57.844h44.99z" fill="#ffd064"/><path d="m333.719 280.482c14.338 0 27.281-3.899 27.281-22.644 0-14.27 0-15.624 0-19.527 0-6.904-5.596-12.5-12.5-12.5s-12.5 5.596-12.5 12.5h-190c0-6.904-5.596-12.5-12.5-12.5s-12.5 5.596-12.5 12.5v19.527c0 18.745 12.943 22.644 27.281 22.644z" fill="#bcd1e1"/><path d="m241 133.273c-52.467 0-95 42.533-95 95v39.757c0 49.574 40.306 94.243 95 94.243-46.084 0-44.208-229 0-229z" fill="#bcd1e1"/><path d="m336 268.03c0-9.652 0-29.542 0-39.757 0-52.467-42.533-95-95-95-44.208 0-65 42.533-65 95v39.757c0 49.574 18.916 94.243 65 94.243 54.694 0 95-44.668 95-94.243z" fill="#dce7ef"/><path d="m187.033 280.482c8.691 69.054 99.243 69.054 107.934 0z" fill="#fff"/><circle cx="417.91" cy="394.183" fill="#9cd169" r="86.59"/><path d="m488.214 343.632-82.03 82.03-36.149-36.15c-2.93-2.929-7.678-2.93-10.607 0-2.929 2.929-2.929 7.678 0 10.606l41.453 41.454c1.407 1.407 3.314 2.197 5.304 2.197s3.896-.79 5.304-2.197l84.618-84.618c-2.237-4.689-4.884-9.145-7.893-13.322z" fill="#7dc03a"/></g><g><g><path d="m417.91 488.273c-39.294 0-73.039-24.211-87.101-58.5h-308.309c-12.407 0-22.5-10.094-22.5-22.5v-116.879c0-4.143 3.358-7.5 7.5-7.5 57.79 0 105.256 45.053 109.124 101.879h207.663c4.737-47.479 44.918-84.68 93.623-84.68 17.534 0 34.347 4.748 49.09 13.801v-93.23l-66.117-31.964c-11.328-5.902-15.742-19.917-9.842-31.245l26.127-46.682h-275.631c-1.803 2.092-3.44 3.939-4.768 5.417 1.884 4.243 4.748 10.928 7.359 17.97 7.273 19.616 8.079 29.287 2.872 34.494-5.205 5.205-14.877 4.401-34.494-2.872-7.042-2.611-13.727-5.476-17.969-7.359-3.453 3.103-8.926 7.893-14.816 12.552-16.409 12.979-25.36 16.734-31.918 13.391-6.561-3.343-8.784-12.789-7.928-33.693.307-7.504.965-14.747 1.446-19.364-4.018-2.324-10.264-6.05-16.516-10.212-3.777-2.515-7.034-4.83-9.805-6.988v146.287c0 4.143-3.358 7.5-7.5 7.5s-7.5-3.357-7.5-7.5v-203.123c0-12.406 10.093-22.5 22.5-22.5h39.384c3.382-6.924 6.954-10.218 11.34-10.912 5.322-.854 10.688 2.324 17.728 10.912h292.548c4.143 0 7.5 3.357 7.5 7.5s-3.357 7.5-7.5 7.5h-281.889c3.271 5.083 6.131 9.897 8.043 13.202 4.617-.48 11.86-1.14 19.364-1.446 20.9-.858 30.35 1.367 33.693 7.927 2.941 5.772.388 13.394-9.107 26.317h276.22c.096-.002.191-.002.287 0h66.889v-38.5c0-4.136-3.364-7.5-7.5-7.5h-76c-4.143 0-7.5-3.357-7.5-7.5s3.357-7.5 7.5-7.5h76c12.406 0 22.5 10.094 22.5 22.5v242.68c0 4.143-3.357 7.5-7.5 7.5s-7.5-3.357-7.5-7.5v-189.18h-15v105.032c.002.105.002.212 0 .317v104.07c0 2.213-.977 4.313-2.67 5.737l-5.146 4.332c-2.655 2.236-6.5 2.358-9.29.292-13.674-10.114-29.92-15.461-46.984-15.461-43.61 0-79.09 35.479-79.09 79.09s35.479 79.09 79.09 79.09 79.09-35.478 79.09-79.089c0-13.017-3.143-25.637-9.152-36.972l-71.359 71.36c-2.931 2.928-7.679 2.928-10.607 0l-41.453-41.453c-2.929-2.93-2.929-7.678 0-10.607 2.93-2.928 7.678-2.928 10.607 0l36.149 36.15 88.012-88.013c2.93-2.928 7.678-2.928 10.607 0 2.929 2.93 2.929 7.678 0 10.607l-10.942 10.941c8.614 14.494 13.138 30.957 13.138 47.987 0 51.881-42.209 94.09-94.09 94.09zm-402.91-88.5v7.5c0 4.136 3.364 7.5 7.5 7.5h303.59c-1.091-4.869-1.804-9.881-2.105-15zm0-15h86.583c-3.64-46.07-40.513-82.943-86.583-86.584zm419.357-274-30.227 54.007c-1.967 3.776-.496 8.448 3.281 10.416l59.589 28.807v-93.229h-32.643zm-415.707-13.291c5.121 5.218 19.537 15.049 34.294 23.176 2.691 1.482 4.207 4.457 3.824 7.505-2.099 16.716-2.619 34.157-1.408 41.368 6.545-3.259 20.35-13.932 32.64-25.454 2.241-2.102 5.539-2.624 8.319-1.317 15.249 7.161 31.677 13.046 38.909 14.122-1.075-7.234-6.96-23.663-14.123-38.907-1.307-2.781-.784-6.078 1.317-8.32 11.523-12.29 22.196-26.095 25.455-32.641-7.212-1.211-24.654-.692-41.367 1.409-3.052.377-6.024-1.132-7.506-3.824-8.127-14.757-17.958-29.173-23.176-34.294-3.38 6.483-8.275 23.232-11.444 39.777-.578 3.018-2.938 5.378-5.956 5.956-16.546 3.17-33.295 8.064-39.778 11.444zm3.85-47.709c-4.136 0-7.5 3.364-7.5 7.5v25.39c4.321-1.917 9.858-3.791 16.801-5.736 7.231-2.027 14.324-3.639 18.863-4.608.97-4.54 2.582-11.632 4.608-18.863.357-1.273.712-2.501 1.065-3.682h-33.837zm34.518 28.899h.01zm183.982 291.101c-49.75 0-91.336-35.363-100.583-82.097-17.869-1.824-26.917-11.842-26.917-29.838v-19.527c0-11.028 8.972-20 20-20 1.873 0 3.687.259 5.408.743.792-8.894 2.733-17.601 5.8-25.987 1.423-3.89 5.732-5.888 9.62-4.468 3.89 1.423 5.891 5.729 4.468 9.62-3.514 9.609-5.296 19.721-5.296 30.054v39.758c0 47.83 39.252 86.742 87.5 86.742s87.5-38.912 87.5-86.742v-39.758c0-48.248-39.252-87.5-87.5-87.5-26.12 0-50.678 11.543-67.375 31.668-2.646 3.188-7.375 3.625-10.561.983-3.188-2.646-3.628-7.374-.983-10.562 19.557-23.571 48.322-37.09 78.919-37.09 53.41 0 97.411 41.067 102.089 93.281 1.722-.484 3.536-.743 5.411-.743 11.028 0 20 8.972 20 20v19.527c0 17.996-9.048 28.014-26.918 29.838-9.246 46.735-50.831 82.098-100.582 82.098zm102.5-131.462v29.72c0 1.438-.03 2.874-.09 4.298 7.483-1.477 10.09-5.655 10.09-14.49v-19.527c0-2.757-2.243-5-5-5s-5 2.242-5 4.999zm-210-5c-2.757 0-5 2.243-5 5v19.527c0 8.835 2.606 13.014 10.09 14.49-.06-1.424-.09-2.859-.09-4.298v-29.72c0-2.756-2.243-4.999-5-4.999zm107.5 106.462c-14.644 0-28.708-5.259-39.602-14.808-12.005-10.523-19.545-25.581-21.807-43.547-.269-2.136.393-4.283 1.817-5.897 1.423-1.614 3.472-2.539 5.625-2.539h107.934c2.152 0 4.201.925 5.625 2.539s2.085 3.762 1.816 5.897c-2.261 17.965-9.802 33.023-21.807 43.547-10.893 9.549-24.957 14.808-39.601 14.808zm-44.927-51.791c6.545 25.336 26.532 36.791 44.927 36.791s38.382-11.455 44.927-36.791zm79.427-31.866c-4.143 0-7.5-3.357-7.5-7.5v-21.273c0-4.143 3.357-7.5 7.5-7.5s7.5 3.357 7.5 7.5v21.273c0 4.142-3.357 7.5-7.5 7.5zm-69 0c-4.142 0-7.5-3.357-7.5-7.5v-21.273c0-4.143 3.358-7.5 7.5-7.5s7.5 3.357 7.5 7.5v21.273c0 4.142-3.358 7.5-7.5 7.5zm267.5-175.343c-4.411 0-8-3.589-8-8s3.589-8 8-8 8 3.589 8 8-3.589 8-8 8zm-30 0c-4.411 0-8-3.589-8-8s3.589-8 8-8 8 3.589 8 8-3.589 8-8 8zm-30 0c-4.411 0-8-3.589-8-8s3.589-8 8-8 8 3.589 8 8-3.589 8-8 8z"/></g></g></g></svg>