<svg id="Capa_1" enable-background="new 0 0 512 512" height="512" viewBox="0 0 512 512" width="512" xmlns="http://www.w3.org/2000/svg"><g><g><path d="m123.439 169.11c.047-.071.093-.151.14-.225-16.479 24.999-26.079 54.934-26.079 87.115 0 87.537 70.963 158.5 158.5 158.5 55.534 0 104.389-28.567 132.695-71.802-.043.063-.093.129-.134.191-16.119 24.592-281.241-149.187-265.122-173.779z" fill="#81a9c8"/><path d="m256 97.5c-55.356 0-104.075 28.384-132.421 71.386-.047.074-.094.153-.14.225-16.119 24.592 6.229 119.944 79.44 167.932s169.563 30.439 185.682 5.847c.041-.063.09-.128.134-.191 16.311-24.915 25.805-54.696 25.805-86.699 0-87.537-70.963-158.5-158.5-158.5z" fill="#bcd1e1"/><path d="m231.286 286.311c-8.871 11.383-23.452 17.069-43 17.069-34.037 0-53.013-20.761-53.013-55.289 0-9.491 7.075-16.507 22.192-20.053 7.227-1.694 80.396 49.837 73.821 58.273z" fill="#4e5a61"/><path d="m270.701 251.612c0 34.528 18.976 51.769 53.013 51.769 18.34 0 32.308-6.028 41.29-16.989 7.688-9.381-62.019-59.189-71.028-56.235-14.65 4.806-23.275 12.769-23.275 21.455z" fill="#4e5a61"/><path d="m184.765 225.442c-11.014 0-20.07.908-27.299 2.604-.714 1.859-1.072 3.849-1.072 5.964 0 34.528 18.976 55.289 53.013 55.289 8.18 0 15.479-1.006 21.865-2.998 6.576-8.436 10.026-19.99 10.026-34.689.001-14.028-22.495-26.17-56.533-26.17z" fill="#7e8b96"/><path d="m327.235 225.442c-12.964 0-24.246 1.765-33.256 4.721-1.408 2.354-2.155 4.829-2.155 7.368 0 34.528 18.976 51.769 53.013 51.769 7.456 0 14.188-.997 20.158-2.915 7.688-9.382 11.733-22.368 11.733-38.292 0-14.029-15.456-22.651-49.493-22.651z" fill="#7e8b96"/><path d="m19.897 235.897c-7.351 3.702-12.397 11.311-12.397 20.103 0 12.426 10.074 22.5 22.5 22.5 8.792 0 16.401-5.046 20.103-12.397-3.039 1.53-31.736-27.167-30.206-30.206z" fill="#4980ac"/><path d="m30 233.5c-3.634 0-7.064.867-10.103 2.397-1.53 3.039-2.397 6.469-2.397 10.103 0 12.426 10.074 22.5 22.5 22.5 3.634 0 7.064-.867 10.103-2.397 1.53-3.039 2.397-6.469 2.397-10.103 0-12.426-10.074-22.5-22.5-22.5z" fill="#81a9c8"/><path d="m245.897 461.897c-7.351 3.702-12.397 11.311-12.397 20.103 0 12.426 10.074 22.5 22.5 22.5 8.792 0 16.401-5.046 20.103-12.397-3.039 1.53-31.736-27.167-30.206-30.206z" fill="#4980ac"/><path d="m256 459.5c-3.634 0-7.064.867-10.103 2.397-1.53 3.039-2.397 6.469-2.397 10.103 0 12.426 10.074 22.5 22.5 22.5 3.634 0 7.064-.867 10.103-2.397 1.53-3.039 2.397-6.469 2.397-10.103 0-12.426-10.074-22.5-22.5-22.5z" fill="#81a9c8"/><path d="m245.897 9.897c-7.351 3.702-12.397 11.311-12.397 20.103 0 12.426 10.074 22.5 22.5 22.5 8.792 0 16.401-5.046 20.103-12.397-3.039 1.53-31.736-27.167-30.206-30.206z" fill="#4980ac"/><path d="m256 7.5c-3.634 0-7.064.867-10.103 2.397-1.53 3.039-2.397 6.469-2.397 10.103 0 12.426 10.074 22.5 22.5 22.5 3.634 0 7.064-.867 10.103-2.397 1.53-3.039 2.397-6.469 2.397-10.103 0-12.426-10.074-22.5-22.5-22.5z" fill="#81a9c8"/><path d="m471.897 235.897c-7.351 3.702-12.397 11.311-12.397 20.103 0 12.426 10.074 22.5 22.5 22.5 8.792 0 16.401-5.046 20.103-12.397-3.039 1.53-31.736-27.167-30.206-30.206z" fill="#4980ac"/><path d="m482 233.5c-3.634 0-7.064.867-10.103 2.397-1.53 3.039-2.397 6.469-2.397 10.103 0 12.426 10.074 22.5 22.5 22.5 3.634 0 7.064-.867 10.103-2.397 1.53-3.039 2.397-6.469 2.397-10.103 0-12.426-10.074-22.5-22.5-22.5z" fill="#81a9c8"/><path d="m86.091 395.703c-7.351 3.702-12.397 11.311-12.397 20.103 0 12.426 10.074 22.5 22.5 22.5 8.792 0 16.401-5.046 20.103-12.397-3.039 1.53-31.736-27.167-30.206-30.206z" fill="#4980ac"/><path d="m96.194 393.306c-3.634 0-7.064.867-10.103 2.397-1.53 3.039-2.397 6.469-2.397 10.103 0 12.426 10.074 22.5 22.5 22.5 3.634 0 7.064-.867 10.103-2.397 1.53-3.039 2.397-6.469 2.397-10.103 0-12.426-10.074-22.5-22.5-22.5z" fill="#81a9c8"/><path d="m405.703 395.703c-7.351 3.702-12.397 11.311-12.397 20.103 0 12.426 10.074 22.5 22.5 22.5 8.792 0 16.401-5.046 20.103-12.397-3.039 1.53-31.736-27.167-30.206-30.206z" fill="#4980ac"/><path d="m415.806 393.306c-3.634 0-7.064.867-10.103 2.397-1.53 3.039-2.397 6.469-2.397 10.103 0 12.426 10.074 22.5 22.5 22.5 3.634 0 7.064-.867 10.103-2.397 1.53-3.039 2.397-6.469 2.397-10.103 0-12.426-10.073-22.5-22.5-22.5z" fill="#81a9c8"/><path d="m86.091 76.091c-7.351 3.702-12.397 11.311-12.397 20.103 0 12.426 10.074 22.5 22.5 22.5 8.792 0 16.401-5.046 20.103-12.397-3.039 1.53-31.736-27.167-30.206-30.206z" fill="#4980ac"/><path d="m96.194 73.694c-3.634 0-7.064.867-10.103 2.397-1.53 3.039-2.397 6.469-2.397 10.103 0 12.426 10.074 22.5 22.5 22.5 3.634 0 7.064-.867 10.103-2.397 1.53-3.039 2.397-6.469 2.397-10.103 0-12.426-10.074-22.5-22.5-22.5z" fill="#81a9c8"/><path d="m405.703 76.091c-7.351 3.702-12.397 11.311-12.397 20.103 0 12.426 10.074 22.5 22.5 22.5 8.792 0 16.401-5.046 20.103-12.397-3.039 1.53-31.736-27.167-30.206-30.206z" fill="#4980ac"/><path d="m415.806 73.694c-3.634 0-7.064.867-10.103 2.397-1.53 3.039-2.397 6.469-2.397 10.103 0 12.426 10.074 22.5 22.5 22.5 3.634 0 7.064-.867 10.103-2.397 1.53-3.039 2.397-6.469 2.397-10.103 0-12.426-10.073-22.5-22.5-22.5z" fill="#81a9c8"/></g><g><g><path d="m256 512c-16.542 0-30-13.458-30-30 0-13.953 9.575-25.712 22.5-29.051v-31.08c-13.651-.629-27.264-2.955-40.568-6.98-3.965-1.199-6.206-5.386-5.007-9.351 1.199-3.966 5.385-6.202 9.351-5.007 28.668 8.674 58.904 8.68 87.443.02 3.96-1.204 8.152 1.034 9.354 4.999 1.203 3.964-1.035 8.151-4.999 9.354-13.281 4.03-26.897 6.354-40.574 6.972v31.073c12.925 3.339 22.5 15.098 22.5 29.051 0 16.542-13.458 30-30 30zm0-45c-8.271 0-15 6.729-15 15s6.729 15 15 15 15-6.729 15-15-6.729-15-15-15zm67.714-156.119c-19.052 0-33.834-5.085-43.938-15.113-9.744-9.672-14.891-23.697-15.313-41.712-3.934-1.381-12.992-1.381-16.926 0-.423 18.015-5.569 32.04-15.313 41.712-10.104 10.028-24.886 15.113-43.938 15.113-37.892 0-60.514-23.473-60.514-62.789 0-13.754 9.888-30.149 56.993-30.149 28.845 0 50.903 8.427 59.21 21.543 3.361-.958 7.398-1.463 12.024-1.463s8.663.505 12.024 1.463c8.307-13.116 30.365-21.543 59.21-21.543 47.105 0 56.993 16.396 56.993 30.149.002 39.316-22.621 62.789-60.512 62.789zm3.52-77.939c-31.188 0-47.8 10.843-47.8 18.67 0 30.202 14.07 44.269 44.279 44.269 29.35 0 45.514-16.972 45.514-47.789.001-13.673-29.367-15.15-41.993-15.15zm-142.468 0c-12.626 0-41.993 1.477-41.993 15.149 0 30.817 16.164 47.789 45.514 47.789 30.209 0 44.279-14.066 44.279-44.269-.001-7.826-16.612-18.669-47.8-18.669zm222.947 76.456c-.72 0-1.45-.104-2.175-.323-3.965-1.199-6.206-5.386-5.007-9.351 8.673-28.668 8.68-58.905.02-87.443-1.203-3.964 1.035-8.151 4.999-9.354 3.958-1.208 8.151 1.033 9.354 4.999 4.03 13.281 6.354 26.897 6.972 40.574h31.073c3.339-12.925 15.098-22.5 29.051-22.5 16.542 0 30 13.458 30 30s-13.458 30-30 30c-13.953 0-25.712-9.575-29.051-22.5h-31.08c-.629 13.651-2.955 27.264-6.98 40.568-.981 3.241-3.956 5.33-7.176 5.33zm74.287-68.398c-8.271 0-15 6.729-15 15s6.729 15 15 15 15-6.729 15-15-6.729-15-15-15zm-377.73 68.398c-3.217 0-6.191-2.086-7.174-5.324-4.03-13.281-6.354-26.897-6.972-40.574h-31.073c-3.339 12.925-15.098 22.5-29.051 22.5-16.542 0-30-13.458-30-30s13.458-30 30-30c13.953 0 25.712 9.575 29.051 22.5h31.08c.629-13.651 2.955-27.264 6.98-40.568 1.199-3.965 5.383-6.207 9.351-5.007 3.965 1.199 6.206 5.386 5.007 9.351-8.673 28.668-8.68 58.905-.02 87.443 1.203 3.964-1.035 8.151-4.999 9.354-.725.221-1.459.325-2.18.325zm-74.27-68.398c-8.271 0-15 6.729-15 15s6.729 15 15 15 15-6.729 15-15-6.729-15-15-15zm271.899-129.208c-.72 0-1.45-.104-2.175-.323-28.668-8.674-58.904-8.68-87.443-.02-3.961 1.204-8.152-1.034-9.354-4.999-1.203-3.964 1.035-8.151 4.999-9.354 13.281-4.03 26.897-6.354 40.574-6.972v-31.073c-12.925-3.339-22.5-15.098-22.5-29.051 0-16.542 13.458-30 30-30s30 13.458 30 30c0 13.953-9.575 25.712-22.5 29.051v31.08c13.651.629 27.264 2.955 40.568 6.98 3.965 1.199 6.206 5.386 5.007 9.351-.98 3.24-3.957 5.33-7.176 5.33zm-45.899-96.792c-8.271 0-15 6.729-15 15s6.729 15 15 15 15-6.729 15-15-6.729-15-15-15zm-181.019 422.019c-11.697-11.697-11.697-30.729 0-42.426 9.866-9.866 24.952-11.41 36.452-4.632l21.977-21.977c-9.208-10.098-17.189-21.368-23.75-33.622-1.956-3.652-.58-8.197 3.071-10.152 3.652-1.956 8.193-.578 10.152 3.072 14.138 26.405 35.514 47.789 61.818 61.846 3.652 1.949 5.033 6.496 3.08 10.149-1.952 3.654-6.496 5.032-10.149 3.08-12.241-6.541-23.513-14.526-33.62-23.761l-21.972 21.972c6.778 11.5 5.234 26.586-4.632 36.452-11.698 11.696-30.73 11.696-42.427-.001zm31.819-31.819c-5.849-5.849-15.364-5.849-21.213 0s-5.849 15.364 0 21.213 15.364 5.849 21.213 0 5.849-15.365 0-21.213zm218.719-4.164c-.509-.509-.952-1.099-1.309-1.766-1.956-3.652-.58-8.197 3.072-10.152 26.404-14.139 47.79-35.515 61.846-61.818 1.952-3.654 6.496-5.032 10.149-3.08 3.653 1.945 5.033 6.494 3.08 10.149-6.541 12.241-14.526 23.513-23.761 33.62l21.972 21.972c11.5-6.778 26.586-5.234 36.452 4.632 11.697 11.697 11.697 30.729 0 42.426s-30.729 11.697-42.426 0c-9.866-9.866-11.41-24.952-4.632-36.452l-21.977-21.977c-10.098 9.208-21.368 17.189-33.622 23.75-2.986 1.599-6.567.972-8.844-1.304zm100.894 4.164c-5.849-5.849-15.364-5.849-21.213 0s-5.849 15.364 0 21.213 15.364 5.849 21.213 0 5.849-15.365 0-21.213zm-315.461-218.731c-2.275-2.275-2.903-5.853-1.308-8.837 6.541-12.241 14.526-23.513 23.761-33.62l-21.972-21.972c-11.5 6.778-26.586 5.234-36.452-4.632-11.697-11.697-11.697-30.729 0-42.426s30.729-11.697 42.426 0c9.866 9.866 11.41 24.952 4.632 36.452l21.977 21.977c10.098-9.208 21.368-17.189 33.622-23.75 3.652-1.956 8.195-.583 10.152 3.071 1.956 3.652.58 8.197-3.071 10.152-26.404 14.139-47.79 35.515-61.846 61.818-1.952 3.654-6.496 5.032-10.149 3.08-.669-.358-1.262-.803-1.772-1.313zm-4.152-100.882c-5.849-5.849-15.364-5.849-21.213 0s-5.849 15.364 0 21.213 15.364 5.849 21.213 0 5.849-15.364 0-21.213zm283.626 100.898c-.509-.509-.952-1.099-1.309-1.766-14.138-26.405-35.514-47.789-61.818-61.846-3.652-1.949-5.033-6.496-3.08-10.149 1.952-3.654 6.496-5.032 10.149-3.08 12.241 6.541 23.513 14.526 33.62 23.761l21.972-21.972c-6.778-11.5-5.234-26.586 4.632-36.452 11.697-11.697 30.729-11.697 42.426 0s11.697 30.729 0 42.426c-9.866 9.866-24.952 11.41-36.452 4.632l-21.977 21.977c9.208 10.098 17.189 21.368 23.75 33.622 1.956 3.652.58 8.197-3.072 10.152-2.982 1.598-6.565.971-8.841-1.305zm35.987-100.898c-5.849-5.849-15.364-5.849-21.213 0s-5.849 15.364 0 21.213 15.364 5.849 21.213 0c5.849-5.848 5.849-15.364 0-21.213z"/></g></g></g></svg>