<svg id="Capa_1" enable-background="new 0 0 512 512" height="512" viewBox="0 0 512 512" width="512" xmlns="http://www.w3.org/2000/svg"><g><g><path d="m35.873 195.426c-17.566 18.269-28.373 43.084-28.373 70.429 0 56.137 45.508 101.645 101.645 101.645h312.955c35.091 0 65.039-21.945 76.92-52.852-14.794 14.146-468.527-106.831-463.147-119.222z" fill="#81a9c8"/><path d="m422.1 202.7c0-49.473-40.106-89.579-89.579-89.579-3.411 0-6.775.197-10.087.569-13.066-60.696-67.033-106.19-131.634-106.19-74.371 0-134.66 60.289-134.66 134.66 0 11.885 1.546 23.407 4.437 34.384-9.188 5.007-17.509 11.398-24.704 18.881-5.379 12.392-8.373 26.059-8.373 40.429 0 56.137 45.508 101.645 101.645 101.645h312.955c22.086 0 42.125-8.706 56.92-22.852 3.527-9.175 5.479-19.131 5.479-29.548.001-45.507-36.891-82.399-82.399-82.399z" fill="#bcd1e1"/><circle cx="182" cy="160.5" fill="#81a9c8" r="60"/><circle cx="192" cy="140.5" fill="#9cd169" r="60"/><path d="m388.65 382.5v-30.002c-.001-8.249-6.751-14.998-15-14.998 0 0-112.298 0-140.952 0-14.327 0-20.136-5.563-24.348-12.499s-10.021-16.501-24.348-16.501c-19.534 0-38.645 0-45.652 0-8.25 0-15 6.75-15 15v89z" fill="#ebb044"/><path d="m138.35 397.5c-8.25 0-15 6.75-15 15v77c0 8.25 6.75 15 15 15h235.3c8.25 0 15-6.75 15-15v-5z" fill="#ffd064"/><path d="m373.65 367.5h-140.952c-14.327 0-20.135 5.563-24.348 12.499s-10.021 17.501-24.348 17.501c-19.534 0-38.645 0-45.652 0v79.805c0 3.957 3.238 7.195 7.195 7.195h243.105v-102c0-8.25-6.75-15-15-15z" fill="#fff0af"/></g><g><path d="m373.65 512h-235.3c-12.406 0-22.5-10.094-22.5-22.5v-77c0-12.406 10.094-22.5 22.5-22.5h45.652c8.859 0 12.814-5.414 17.434-13.063l.504-.831c4.555-7.499 12.167-16.105 30.759-16.105h140.951c2.628 0 5.153.453 7.5 1.285v-8.786c0-4.136-3.364-7.5-7.5-7.5h-140.952c-18.592 0-26.204-8.606-30.759-16.104-4.73-7.79-8.534-12.896-17.938-12.896h-45.651c-4.136 0-7.5 3.364-7.5 7.5v44c0 4.143-3.357 7.5-7.5 7.5h-14.204c-60.183 0-109.146-48.962-109.146-109.145 0-38.057 19.772-73.172 51.973-92.99-2.213-10.05-3.333-20.353-3.333-30.705 0-28.603 8.459-56.182 24.463-79.755 2.326-3.427 6.989-4.318 10.418-1.992 3.427 2.326 4.318 6.99 1.992 10.418-14.31 21.077-21.873 45.743-21.873 71.329 0 10.992 1.409 21.918 4.189 32.474.879 3.338-.634 6.844-3.664 8.496-30.326 16.527-49.165 48.225-49.165 82.725 0 51.912 42.233 94.145 94.146 94.145h6.704v-36.5c0-12.406 10.094-22.5 22.5-22.5h45.652c18.548 0 26.191 12.588 30.759 20.109 2.954 4.863 6.344 8.891 17.938 8.891h32.924c19.549 0 35.292-9.833 42.114-26.302 6.558-15.832 3.231-33.624-8.474-45.328l-26.763-26.764v23.079c0 4.143-3.357 7.5-7.5 7.5s-7.5-3.357-7.5-7.5v-41.185c0-4.143 3.357-7.5 7.5-7.5h41.186c4.143 0 7.5 3.357 7.5 7.5s-3.357 7.5-7.5 7.5h-23.079l26.764 26.763c16.01 16.01 20.611 40.219 11.724 61.676-3.361 8.115-8.277 15.039-14.418 20.562h66.475c12.406 0 22.5 10.094 22.5 22.5v137c-.002 12.405-10.095 22.499-22.502 22.499zm-235.3-107c-4.136 0-7.5 3.364-7.5 7.5v77c0 4.136 3.364 7.5 7.5 7.5h235.3c4.136 0 7.5-3.364 7.5-7.5v-107c0-4.136-3.364-7.5-7.5-7.5h-140.952c-11.594 0-14.983 4.027-17.938 8.892l-.484.8c-4.287 7.097-12.266 20.308-30.274 20.308zm283.75-30h-3.449c-4.143 0-7.5-3.357-7.5-7.5s3.357-7.5 7.5-7.5h3.449c41.3 0 74.9-33.601 74.9-74.9s-33.601-74.9-74.9-74.9c-4.143 0-7.5-3.357-7.5-7.5 0-45.259-36.82-82.079-82.079-82.079-3.049 0-6.161.176-9.251.521-3.829.439-7.356-2.11-8.167-5.875-12.508-58.098-64.785-100.267-124.303-100.267-31.578 0-61.857 11.654-85.258 32.814-3.07 2.778-7.813 2.542-10.593-.532-2.778-3.072-2.54-7.814.532-10.593 26.164-23.66 60.015-36.689 95.319-36.689 32.695 0 64.618 11.374 89.889 32.026 23.205 18.965 39.918 44.94 47.543 73.69 1.437-.063 2.868-.096 4.289-.096 51.105 0 93.114 39.69 96.814 89.867 46.2 3.699 82.665 42.478 82.665 89.613 0 49.571-40.329 89.9-89.9 89.9zm-230.1-167c-37.22 0-67.5-30.28-67.5-67.5s30.28-67.5 67.5-67.5 67.5 30.28 67.5 67.5-30.28 67.5-67.5 67.5zm0-120c-28.948 0-52.5 23.552-52.5 52.5s23.552 52.5 52.5 52.5 52.5-23.552 52.5-52.5-23.552-52.5-52.5-52.5zm0 90c-4.143 0-7.5-3.357-7.5-7.5v-22.5h-22.5c-4.143 0-7.5-3.357-7.5-7.5s3.357-7.5 7.5-7.5h22.5v-22.5c0-4.143 3.357-7.5 7.5-7.5s7.5 3.357 7.5 7.5v22.5h22.5c4.143 0 7.5 3.357 7.5 7.5s-3.357 7.5-7.5 7.5h-22.5v22.5c0 4.143-3.357 7.5-7.5 7.5z"/></g></g></svg>